<svg xmlns="http://www.w3.org/2000/svg" xmlns:xlink="http://www.w3.org/1999/xlink" width="931.183" height="777.362" viewBox="0 0 931.183 777.362">
  <defs>
    <linearGradient id="linear-gradient" x1="0.002" y1="0.501" x2="1" y2="0.501" gradientUnits="objectBoundingBox">
      <stop offset="0" stop-color="#ecc4d7"/>
      <stop offset="0.42" stop-color="#efd4d1"/>
      <stop offset="1" stop-color="#f2eac9"/>
    </linearGradient>
    <linearGradient id="linear-gradient-2" x1="0.415" y1="0.258" x2="0.585" y2="1.013" gradientUnits="objectBoundingBox">
      <stop offset="0" stop-opacity="0"/>
      <stop offset="0.97"/>
    </linearGradient>
    <linearGradient id="linear-gradient-3" x1="0.491" y1="-0.752" x2="0.523" y2="4.636" xlink:href="#linear-gradient-2"/>
    <linearGradient id="linear-gradient-4" x1="0.493" y1="-0.723" x2="0.523" y2="4.576" xlink:href="#linear-gradient-2"/>
    <linearGradient id="linear-gradient-5" x1="2.91" y1="0.497" x2="-11" y2="0.515" xlink:href="#linear-gradient-2"/>
    <linearGradient id="linear-gradient-6" x1="0.523" y1="-0.165" x2="0.441" y2="2.193" xlink:href="#linear-gradient-2"/>
    <linearGradient id="linear-gradient-7" x1="0.877" y1="-0.197" x2="-0.394" y2="2.152" xlink:href="#linear-gradient-2"/>
    <linearGradient id="linear-gradient-8" x1="0.926" y1="0.499" x2="-1.757" y2="0.506" xlink:href="#linear-gradient-2"/>
    <linearGradient id="linear-gradient-9" x1="0" y1="0.5" x2="1" y2="0.5" xlink:href="#linear-gradient-2"/>
    <linearGradient id="linear-gradient-10" x1="0.924" y1="0.499" x2="-1.75" y2="0.506" xlink:href="#linear-gradient-2"/>
    <linearGradient id="linear-gradient-11" x1="0.546" y1="1.444" x2="0.318" y2="-3.267" xlink:href="#linear-gradient-2"/>
    <linearGradient id="linear-gradient-12" x1="0.504" y1="-2.934" x2="0.496" y2="3.93" xlink:href="#linear-gradient-2"/>
    <linearGradient id="linear-gradient-13" x1="0.5" y1="-0.671" x2="0.5" y2="2.489" xlink:href="#linear-gradient-2"/>
    <linearGradient id="linear-gradient-14" x1="0.5" y1="-0.671" x2="0.5" y2="2.49" xlink:href="#linear-gradient-2"/>
    <linearGradient id="linear-gradient-15" x1="0.523" y1="0.194" x2="0.422" y2="1.522" xlink:href="#linear-gradient-2"/>
    <linearGradient id="linear-gradient-16" x1="-0.166" y1="0.5" x2="2.508" y2="0.499" xlink:href="#linear-gradient-2"/>
    <linearGradient id="linear-gradient-17" x1="0.499" y1="-0.641" x2="0.503" y2="3.781" xlink:href="#linear-gradient-2"/>
    <linearGradient id="linear-gradient-18" x1="1.107" y1="0.45" x2="-3.009" y2="0.71" xlink:href="#linear-gradient-2"/>
    <linearGradient id="linear-gradient-19" x1="0.467" y1="-0.046" x2="0.656" y2="5.057" xlink:href="#linear-gradient-2"/>
    <linearGradient id="linear-gradient-20" x1="0.498" y1="0.161" x2="0.512" y2="1.435" xlink:href="#linear-gradient-2"/>
    <linearGradient id="linear-gradient-21" x1="0.498" y1="0.161" x2="0.512" y2="1.437" xlink:href="#linear-gradient-2"/>
    <linearGradient id="linear-gradient-22" x1="0.524" y1="-0.026" x2="0.456" y2="1.466" xlink:href="#linear-gradient-2"/>
    <linearGradient id="linear-gradient-23" x1="0.522" y1="-0.021" x2="0.459" y2="1.457" xlink:href="#linear-gradient-2"/>
    <linearGradient id="linear-gradient-24" x1="0.503" y1="-0.93" x2="0.491" y2="4.773" xlink:href="#linear-gradient-2"/>
    <linearGradient id="linear-gradient-25" x1="0.503" y1="-0.878" x2="0.49" y2="4.614" xlink:href="#linear-gradient-2"/>
    <linearGradient id="linear-gradient-26" x1="-0.002" y1="0.5" x2="1" y2="0.5" xlink:href="#linear-gradient"/>
    <linearGradient id="linear-gradient-27" x1="0.513" y1="-0.034" x2="0.478" y2="1.379" xlink:href="#linear-gradient-2"/>
    <linearGradient id="linear-gradient-28" x1="0.925" y1="0.499" x2="-1.757" y2="0.506" xlink:href="#linear-gradient-2"/>
    <linearGradient id="linear-gradient-29" x1="0.541" y1="0.061" x2="0.406" y2="1.503" xlink:href="#linear-gradient-2"/>
    <linearGradient id="linear-gradient-31" x1="0.523" y1="-0.164" x2="0.441" y2="2.193" xlink:href="#linear-gradient-2"/>
    <linearGradient id="linear-gradient-32" x1="0.877" y1="-0.197" x2="-0.394" y2="2.151" xlink:href="#linear-gradient-2"/>
    <linearGradient id="linear-gradient-36" x1="0.5" y1="-0.671" x2="0.5" y2="2.489" xlink:href="#linear-gradient-2"/>
    <linearGradient id="linear-gradient-39" x1="0.503" y1="-0.931" x2="0.491" y2="4.773" xlink:href="#linear-gradient-2"/>
    <linearGradient id="linear-gradient-43" x1="-0.001" y1="0.499" x2="1.004" y2="0.499" xlink:href="#linear-gradient"/>
    <linearGradient id="linear-gradient-44" x1="0.495" y1="0.132" x2="0.597" y2="2.794" gradientUnits="objectBoundingBox">
      <stop offset="0" stop-opacity="0"/>
      <stop offset="0.49" stop-opacity="0.49"/>
      <stop offset="0.97"/>
    </linearGradient>
  </defs>
  <g id="construction_site" transform="matrix(1, -0.017, 0.017, 1, -6.187, 8.027)">
    <path id="Trazado_2" data-name="Trazado 2" d="M185.778,311.748C122.267,324.333-14.522,355.1,31.927,508.573c6.479,21.442,48.31,94.709,52.945,116.641,5.167,24.5-5.565,50.324-.316,74.8,9.436,44.014,61.882,60.379,105.724,67.211,50.719,7.9,103,13.85,152.92,2.058,27.527-6.5,53.626-18.22,81.02-25.305,112.452-28.781,234.9,23.517,345.412-12.029,32.711-10.493,65.4-31.446,75.721-64.68,6.645-21.644,2.874-44.993,2.758-67.7-.332-57.679,7.027-134.354,25.052-189.048S974.218,140.6,800.067,105.34C547.055,54.106,627.045,224.276,185.778,311.748Z" transform="translate(16.012 -44.207)" fill="#68e1fd" opacity="0.25"/>
    <path id="Trazado_3" data-name="Trazado 3" d="M167.207,473.009c-40.572,9.057-83.464,21.023-111,53.072-5.682,6.591-10.785,14.5-10.918,23.318-.348,20.989,24.751,30.816,44.9,33.641,62.192,8.56,125.246,5.872,187.935,3.219,39.661-1.712,79.422-3.424,118.669-9.433,77.1-12,153.575-40.917,231.175-32.186,25.546,2.876,50.546,9.827,76.108,12.481a230.486,230.486,0,0,0,120.243-20.2c13.253-6.163,27.253-15.2,30.732-29.823s-5.07-29.549-16.832-38.024-26.242-11.71-40.274-14.775c-33.8-7.345-62.954-20.39-97.563-22.65q-65.671-4.263-131.574-3.938a1888.662,1888.662,0,0,0-259.984,19.345Q237.567,457.327,167.207,473.009Z" transform="translate(32.245 181.949)" fill="#68e1fd" opacity="0.25"/>
    <g id="Grupo_1" data-name="Grupo 1" transform="translate(103.219 624.093)" opacity="0.24">
      <path id="Trazado_4" data-name="Trazado 4" d="M105.464,536.612c25.115,2.294,50.333,3.27,75.534,3.424,21.811.1,44.324-.565,64.166-9.622,10.871-4.965,20.681-12.361,32.1-15.887,10.751-3.321,22.256-3.03,33.367-4.52s22.855-5.393,29.378-14.552L297.414,481.3a96.686,96.686,0,0,0-16.607-4.451,91.353,91.353,0,0,0-21.725.223,647.81,647.81,0,0,0-81.235,13.08c-15,3.424-22.787,12.327-35.8,18.045-10.478,4.605-16.761.976-27.392.685C89.918,508.209,72.268,533.581,105.464,536.612Z" transform="translate(-87.229 -407.528)" fill="#3f3d56"/>
      <path id="Trazado_5" data-name="Trazado 5" d="M240.624,453.814c-6.266.1-14.689,2.054-14.6,8.32,22.6,7,46.926-.736,70.586.1,31.809,1.13,60.776,17.651,88.271,33.727a29.977,29.977,0,0,0-26.5,14.655c61.958,6.54,124.018-9.262,186.3-10.272,65.193-.993,130.506,14.312,195.169,6.283-1.13-5.256-7.464-7.259-12.772-8.064-27.2-4.109-54.921-2.243-82.365-4.006s-55.863-7.721-77.263-25A273.019,273.019,0,0,0,631.339,445.6c-12.84-6.043-27.82-4.194-41.91-2.5a1055.621,1055.621,0,0,1-281.266-3.767c-3.219,6.42,6.591,11.2,13.7,11.762l156.135,12.395c17.891,1.421,37.236,3.424,50.384,15.665-69.045,13.251-163.925-.445-228.964-27.289-10.683-4.417,6.677-16.863-4.845-15.648C281.2,437.618,256.7,453.523,240.624,453.814Z" transform="translate(30.643 -436.131)" fill="#3f3d56"/>
    </g>
    <path id="Trazado_6" data-name="Trazado 6" d="M155.16,255.531a13.884,13.884,0,0,1,2.91,9.947c-.171,1.558-.582,3.1-.668,4.657a5.718,5.718,0,0,0,1.387,4.348c.925.89,2.38,1.455,2.6,2.705.325,1.712-1.8,2.722-3.047,3.955a10.974,10.974,0,0,0-2.226,4.725,35.418,35.418,0,0,1-3.15,7.259,11.282,11.282,0,0,1-5.547,5.444c-1.712.616-3.8.462-5.427,1.4-3.835,2.208-2.928,8.56-6.488,11.282a7.447,7.447,0,0,1-3.424,1.233,14.962,14.962,0,0,1-8.286-1.113,6.369,6.369,0,0,1-2.91-2.26,7.636,7.636,0,0,1-.7-4.468c.291-5.136.993-10.375.822-15.562-.086-2.773-.411-5.547-.377-8.32A28.146,28.146,0,0,1,130.9,259.28a24.071,24.071,0,0,1,23.266-3.7l-1.524-1.712" transform="translate(79.402 63.769)" fill="url(#linear-gradient)"/>
    <path id="Trazado_7" data-name="Trazado 7" d="M130.244,274.418a4.691,4.691,0,0,0-3.424,5.444,5.564,5.564,0,0,0,5.136,4.143L126.495,294.5c-.462.89-1.233,1.952-2.208,1.712s-1.216-1.575-1.4-2.619c-.582-3.3-3.184-5.838-4.657-8.851-2.157-4.4-1.712-9.57-1.335-14.449.394-4.349.839-8.9,3.2-12.583a21.862,21.862,0,0,1,5.05-5.136,23.814,23.814,0,0,1,11.419-5.324,27.511,27.511,0,0,1,10.512,1.3,23.42,23.42,0,0,1,9.348,4.331,9.091,9.091,0,0,1,3.15,9.262c-5.136.685-15.117,0-19.14,3.749-3.424,3.236-1.1,10.272-5.53,12.481C134.73,275.411,132.71,274.795,130.244,274.418Z" transform="translate(77.058 59.223)" fill="#25233a"/>
    <path id="Trazado_8" data-name="Trazado 8" d="M176.479,261.487c-1.575-.942-8.56-3.869-10.152-4.811-.308-5.547-6.283-12.789-14.484-15.853-6.129-2.208-18.729-2.208-28.728,5.29-11.351,8.56-9.758,22.907-9.878,26.656a4.776,4.776,0,0,0,6.677,4.5,84.157,84.157,0,0,1,9.313-3.561l13.7-3.424C152.6,267.718,166.771,263.986,176.479,261.487Z" transform="translate(74.71 54.025)" fill="#68e1fd"/>
    <path id="Trazado_9" data-name="Trazado 9" d="M165.789,187.743,125.3,198.221l13.354-7.1,3.664-1.935,6.2-2.157,6.968-2.4,2.243-.788Z" transform="translate(82.844 126.76)" fill="url(#linear-gradient-2)"/>
    <path id="Trazado_10" data-name="Trazado 10" d="M131.737,193.03l-12.1,22.256-2.773-6.78,3.818-6.694-4.417-3.184,4.691-2.123L124,198.936l1.25-4.023Z" transform="translate(77.025 133.052)" fill="#65657f"/>
    <path id="Trazado_11" data-name="Trazado 11" d="M114.712,269.037s1.917.5,6.848-1.712a78.855,78.855,0,0,1,12.189-3.8l17.017-9.039s-21.64-10.888-34.411,1.455C116.287,255.974,111.322,262.8,114.712,269.037Z" transform="translate(75.082 61.369)" fill="#68e1fd"/>
    <path id="Trazado_12" data-name="Trazado 12" d="M114.07,257.253s9.262-15.9,24.105-15.853a29.515,29.515,0,0,1,19.055,7.173S131.721,232.532,114.07,257.253Z" transform="translate(75.402 55.423)" fill="url(#linear-gradient-3)"/>
    <path id="Trazado_13" data-name="Trazado 13" d="M113.87,263.554s.171,2.448,4.263.856,16.418-5.136,16.418-5.136l5.7-3.424S116.13,265.112,113.87,263.554Z" transform="translate(75.375 65.423)" fill="url(#linear-gradient-4)"/>
    <path id="Trazado_14" data-name="Trazado 14" d="M126.988,565.93a445.345,445.345,0,0,0,49.289-172.365c.411-5.478.633-11.368-2.26-16.042-5.53-8.971-18.541-8.44-28.95-6.848-4.725.753-10.067,1.935-12.429,6.078-1.712,3.065-19.739,14.158-18.1,17.274,11.984,22.616,16.846,51.617,10.854,81.766-5.889,29.669-16.47,51.6-20.715,81.218C107.094,557.216,126.063,567.676,126.988,565.93Z" transform="translate(69.021 140.697)" fill="#25233a"/>
    <rect id="Rectángulo_1" data-name="Rectángulo 1" width="30.354" height="436.237" transform="translate(732.87 199.005)" fill="#68e1fd"/>
    <rect id="Rectángulo_2" data-name="Rectángulo 2" width="17.462" height="436.237" transform="translate(737.304 199.005)" fill="url(#linear-gradient-5)"/>
    <path id="Trazado_15" data-name="Trazado 15" d="M459.885,239.7c0-.959,109.089,37.27,109.089,37.27l2.6,37.476L457.471,273.15l-.291-33.47Z" transform="translate(298.451 53.91)" fill="#68e1fd"/>
    <path id="Trazado_16" data-name="Trazado 16" d="M457.17,241.577c0-.959,111.811,39.291,111.811,39.291l2.6,30.662L457.478,270.236Z" transform="translate(298.444 55.232)" fill="url(#linear-gradient-6)"/>
    <path id="Trazado_17" data-name="Trazado 17" d="M454.923,244.086c0-.959,109.072,37.27,109.072,37.27l2.6,35.079L452.492,275.141,452.15,244Z" transform="translate(294.869 56.895)" fill="#68e1fd"/>
    <path id="Trazado_18" data-name="Trazado 18" d="M452.18,245.457c0-.959,111.794,39.291,111.794,39.291l2.6,30.662L452.471,274.116Z" transform="translate(294.891 57.9)" fill="url(#linear-gradient-7)"/>
    <rect id="Rectángulo_3" data-name="Rectángulo 3" width="30.354" height="449.539" transform="translate(848.764 232.023)" fill="#68e1fd"/>
    <rect id="Rectángulo_4" data-name="Rectángulo 4" width="30.354" height="449.539" transform="translate(852.24 232.023)" fill="url(#linear-gradient-8)"/>
    <rect id="Rectángulo_5" data-name="Rectángulo 5" width="4.28" height="449.539" transform="translate(860.885 232.023)" fill="#68e1fd"/>
    <path id="Trazado_19" data-name="Trazado 19" d="M565.992,295.206v5.633l-.531,25.012-112.753-37.8-.188-.068,1.455-29.481Z" transform="translate(295.133 177.808)" fill="#68e1fd"/>
    <path id="Trazado_20" data-name="Trazado 20" d="M565.383,297.774v28.967L452.63,286.269,453.9,261Z" transform="translate(295.211 179.541)" fill="url(#linear-gradient-9)"/>
    <rect id="Rectángulo_6" data-name="Rectángulo 6" width="30.354" height="445.516" transform="translate(426.199 189.839)" fill="#68e1fd"/>
    <rect id="Rectángulo_7" data-name="Rectángulo 7" width="30.354" height="445.516" transform="translate(429.572 189.839)" fill="url(#linear-gradient-10)"/>
    <rect id="Rectángulo_8" data-name="Rectángulo 8" width="301.16" height="28.385" transform="translate(438.715 436.192)" fill="#68e1fd"/>
    <rect id="Rectángulo_9" data-name="Rectángulo 9" width="301.16" height="28.385" transform="translate(438.715 436.192)" fill="url(#linear-gradient-11)"/>
    <rect id="Rectángulo_10" data-name="Rectángulo 10" width="285.888" height="3.886" transform="translate(450.091 436.379)" fill="url(#linear-gradient-12)"/>
    <rect id="Rectángulo_11" data-name="Rectángulo 11" width="301.16" height="28.385" transform="translate(438.715 292.365)" fill="#68e1fd"/>
    <rect id="Rectángulo_12" data-name="Rectángulo 12" width="301.16" height="28.385" transform="translate(438.715 292.365)" fill="url(#linear-gradient-13)"/>
    <rect id="Rectángulo_13" data-name="Rectángulo 13" width="301.16" height="28.385" transform="translate(442.489 299.747)" fill="#68e1fd"/>
    <rect id="Rectángulo_14" data-name="Rectángulo 14" width="301.16" height="32.323" transform="translate(438.715 295.841)" fill="url(#linear-gradient-14)"/>
    <path id="Trazado_21" data-name="Trazado 21" d="M365.2,211.341,274.21,177.46v7.4L365.2,218.719Z" transform="translate(180.48 122.216)" fill="#68e1fd"/>
    <path id="Trazado_22" data-name="Trazado 22" d="M365.2,211.341,274.21,177.46v7.4L365.2,218.719Z" transform="translate(180.48 122.216)" fill="url(#linear-gradient-15)"/>
    <rect id="Rectángulo_15" data-name="Rectángulo 15" width="285.597" height="2.962" transform="translate(450.378 299.88)" fill="#68e1fd"/>
    <rect id="Rectángulo_16" data-name="Rectángulo 16" width="285.597" height="2.962" transform="translate(450.378 290.535)" fill="#68e1fd"/>
    <rect id="Rectángulo_17" data-name="Rectángulo 17" width="18.233" height="445.516" transform="translate(438.136 189.839)" fill="#68e1fd"/>
    <rect id="Rectángulo_18" data-name="Rectángulo 18" width="18.233" height="445.516" transform="translate(438.136 189.839)" fill="url(#linear-gradient-16)"/>
    <rect id="Rectángulo_19" data-name="Rectángulo 19" width="301.16" height="28.385" transform="translate(559.435 480.294)" fill="#68e1fd"/>
    <rect id="Rectángulo_20" data-name="Rectángulo 20" width="301.16" height="24.447" transform="translate(559.435 484.196)" fill="url(#linear-gradient-17)"/>
    <path id="Trazado_23" data-name="Trazado 23" d="M241.685,323.6c-1.712,11.607-6.488,23.112-15.271,30.816s-21.9,11.128-32.716,6.557c-11.316-4.777-17.771-16.538-23.352-27.392-.12,27.512,10.923,54.784,7.088,81.954a20.8,20.8,0,0,1-4.092,10.974c-2.945,3.424-7.5,4.845-11.83,6.043a258.514,258.514,0,0,1-46.224,8.166c-1.507.12-3,.257-4.5.342-1.815-8.971-2.568-20.664-2.7-34.908v-4.314c0-11.436.274-24.379.7-38.726v-4.16c0-.8,0-2.054.1-3.424v-8.32q.445-13.354.856-28.111c0-1.267,0-2.517.086-3.8a49.973,49.973,0,0,1,1.233-10.375,22.393,22.393,0,0,1,9.4-13.867h0a48.959,48.959,0,0,1,11.573-5.581c16.367-5.735,35.832-2.311,47.543,10.015a46.219,46.219,0,0,1,5.393,6.968c2.6,3.972,4.759,8.218,7.019,12.429a87.016,87.016,0,0,0,7.892,12.789c2.7,3.424,6.643,6.694,10.905,5.941,6.129-1.1,7.807-8.971,7.875-15.151a226.5,226.5,0,0,0-1.712-30.662,92.153,92.153,0,0,1,23.472.856,185.231,185.231,0,0,1,1.935,18.935,88.7,88.7,0,0,1-.668,16.007Z" transform="translate(70.827 82.829)" fill="#68e1fd"/>
    <path id="Trazado_24" data-name="Trazado 24" d="M143.573,348.742c-4.588,7.482-10.837,13.8-17.12,19.859-2.962,2.825-1.233,36.894-4.3,39.633-1.113.993-3.835,4.349-6.848,7.875-1.507.12-3,.257-4.5.342-1.815-8.971-2.568-20.664-2.7-34.908V377.23c0-11.436.274-24.379.7-38.726v-4.16c0-.8,0-2.054.1-3.424V322.6c2.14-1.866,3.7,5.958,4.092,6.985a2.98,2.98,0,0,0,.565.924,1.712,1.712,0,0,0,1.233.359,8.115,8.115,0,0,0,5.136-3.047q5.033-5.033,9.57-10.512l20.236,6.437C151.054,332.444,148.178,341.261,143.573,348.742Z" transform="translate(71.463 107.068)" fill="url(#linear-gradient-18)"/>
    <path id="Trazado_25" data-name="Trazado 25" d="M158.083,344.659c-5.941,24.379-23.626,47.936-39.222,54.031-6.386,2.482-12.412,2.054-17.12-2.448-8.56-7.653-10.272-35.952-7.653-67.659A46.053,46.053,0,0,1,96.451,317.1a42.9,42.9,0,0,1,8.132-13.8,55.811,55.811,0,0,1,27.152-16.127l-.154.685-2.773,13.491-2.928,14.175-5.872,28.5-3.424,16.418c0,1.866,1.147,1.37,2.893-.479,4.879-5.136,14.6-20.835,18.712-24.105a2.641,2.641,0,0,0,.342-.308Z" transform="translate(61.332 86.254)" fill="#68e1fd"/>
    <path id="Trazado_26" data-name="Trazado 26" d="M201.306,306.789c-.565.12-1.164.188-1.712.274-12.566,1.489-25.252.993-37.887,1.267s-24.858,1.3-37.288,2.226l-5.016.394c-8.115.548-16.264,1.027-24.413,1.181a42.9,42.9,0,0,1,8.132-13.8,24.256,24.256,0,0,1,3.647-.548c4.657-.377,9.3-.719,13.953-1.01,2.208-.154,4.417-.274,6.625-.394,14.792-.856,29.566-1.387,44.341-1.917,7.533-.257,15.066-.514,22.581-.1h0C196.889,298.332,199.046,302.577,201.306,306.789Z" transform="translate(62.428 91.774)" fill="url(#linear-gradient-19)"/>
    <path id="Trazado_27" data-name="Trazado 27" d="M157.108,463.589c18.524,24.174,36.038,51.36,37.664,81.7.308,5.461.924,12.241,6.026,14.227a13.2,13.2,0,0,0,7.464-.12l18.832-3.886L215.367,503c-2.945-13.251-5.941-26.622-11.522-39-3.92-8.68-9.057-16.761-13.285-25.321-10.666-21.606-15.22-45.625-19.671-69.319-22.034,1.438-72.076-8.372-59.612,25.218C121.173,421.387,143.018,439.6,157.108,463.589Z" transform="translate(71.758 140.215)" fill="#3f3d56"/>
    <path id="Trazado_28" data-name="Trazado 28" d="M167.593,491.263A9.382,9.382,0,0,0,169.3,494.6a6.728,6.728,0,0,0,6.232,1.712,19.929,19.929,0,0,0,6.163-2.688,6.522,6.522,0,0,0,2.619-2.226,6.728,6.728,0,0,0-.171-5.136l-3.1-9.81a2.072,2.072,0,0,0-.959-1.438,2.192,2.192,0,0,0-1.883.531c-3.424,2.277-8.56,2.568-11.71,4.828S166.377,487.856,167.593,491.263Z" transform="translate(109.352 215.62)" fill="#3f3d56"/>
    <path id="Trazado_29" data-name="Trazado 29" d="M105.45,493.8a32.289,32.289,0,0,0,10.05,4.383,2.807,2.807,0,0,0,1.712,0c.822-.291,1.2-1.215,1.472-2.037l4.434-12.7c-.531,1.541-9.5-6.232-11.625-5.444C107.539,479.551,106.22,490.217,105.45,493.8Z" transform="translate(69.851 217.728)" fill="#3f3d56"/>
    <path id="Trazado_30" data-name="Trazado 30" d="M180.067,482.421a22.409,22.409,0,0,1,5.958-1.25c5.7-.137,11.145,4.057,16.692,2.756a39.8,39.8,0,0,1,4.383-1.25,7.362,7.362,0,0,1,7.516,6.009,11.47,11.47,0,0,1-3.1,9.69,27.394,27.394,0,0,1-8.68,5.906,70.023,70.023,0,0,1-21.178,6.506,11.112,11.112,0,0,1-5.564-.308,10.084,10.084,0,0,1-3.749-2.945c-3.561-4.075-7.6-11.231-6.968-16.915C166.045,484.613,175.29,483.894,180.067,482.421Z" transform="translate(109.215 220.028)" fill="#3f3d56"/>
    <path id="Trazado_31" data-name="Trazado 31" d="M126.426,490.713a6.625,6.625,0,0,1,2.226,1.113,7.19,7.19,0,0,1,1.575,2.91,29.276,29.276,0,0,0,9.622,12.909,17.446,17.446,0,0,1,4.691,4.246,4.314,4.314,0,0,1-.616,5.718,5.683,5.683,0,0,1-3.236.685,80.329,80.329,0,0,1-11.077-1.079c-9.947-1.438-20.544-3.167-28.008-9.9a10.477,10.477,0,0,1-3.869-6.437c-.308-3.253,1.712-5.821,3.424-8.355,1.233-1.849,2.825-5.975,4.759-7.19C110.282,482.649,121.958,489.172,126.426,490.713Z" transform="translate(64.557 222.54)" fill="#3f3d56"/>
    <path id="Trazado_32" data-name="Trazado 32" d="M414.683,275.69s-.12,1.866-.274,4.725c-.514,8.937-1.592,27.495-1.712,27.82S2.14,326.417,2.14,326.417L.428,302.449,0,297.809l23.968-.223Z" transform="translate(0 78.839)" fill="#68e1fd"/>
    <path id="Trazado_33" data-name="Trazado 33" d="M414.231,278.45c-.514,8.937-1.592,27.495-1.712,27.82S1.962,324.452,1.962,324.452L.25,300.484l23.54-.188Z" transform="translate(0.178 80.771)" fill="url(#linear-gradient-20)"/>
    <path id="Trazado_34" data-name="Trazado 34" d="M414.683,282.4s-.12,1.866-.274,4.725c-.514,8.954-1.592,27.512-1.712,27.82S2.14,333.076,2.14,333.076L.428,309.107,0,304.519l23.968-.223Z" transform="translate(0 83.458)" fill="#68e1fd"/>
    <path id="Trazado_35" data-name="Trazado 35" d="M414.231,285.16c-.514,8.954-1.592,27.512-1.712,27.82S1.962,331.11,1.962,331.11L.25,307.142l23.54-.12Z" transform="translate(0.178 85.392)" fill="url(#linear-gradient-21)"/>
    <path id="Trazado_36" data-name="Trazado 36" d="M263.56,292.939l133.211,40.8-.086-33.983L263.56,258.87Z" transform="translate(172.738 177.995)" fill="#68e1fd"/>
    <path id="Trazado_37" data-name="Trazado 37" d="M396.771,333.736h-.017L263.56,292.956V258.87l133.126,40.883Z" transform="translate(172.738 177.995)" fill="url(#linear-gradient-22)"/>
    <path id="Trazado_38" data-name="Trazado 38" d="M388.832,330.128,263.56,290.446V261.26l125.208,39.781Z" transform="translate(180.661 181.582)" fill="url(#linear-gradient-23)"/>
    <rect id="Rectángulo_21" data-name="Rectángulo 21" width="301.16" height="27.495" transform="translate(559.435 336.473)" fill="#68e1fd"/>
    <rect id="Rectángulo_22" data-name="Rectángulo 22" width="301.16" height="23.455" transform="translate(559.435 340.484)" fill="url(#linear-gradient-24)"/>
    <rect id="Rectángulo_23" data-name="Rectángulo 23" width="301.16" height="31.432" transform="translate(559.435 344.387)" fill="#68e1fd"/>
    <rect id="Rectángulo_24" data-name="Rectángulo 24" width="301.16" height="27.255" transform="translate(559.435 348.4)" fill="url(#linear-gradient-25)"/>
    <path id="Trazado_39" data-name="Trazado 39" d="M134.314,329.887c4.331-5.239,6.026-10.495,8.029-17,.6-1.952-1.3-2.037-3.544,3.3.565-3.784,1.712-9.9,1.712-11.351-2-1.849-2.448,1.524-3.013,2.893a59.074,59.074,0,0,0-2.38,5.564c.342-3.253.308-4.776.651-8.029,0-.6,0-1.421-.6-1.558-3.082.616-1.866,7.79-4.605,10.529.445-3,.907-10.084,0-9.621-1.712,0-2.534,2.191-2.842,3.921l-1.712,9.707c-.959-.291-1.147-1.524-1.387-2.5s-1.284-2.054-2.089-1.455a1.438,1.438,0,0,0-.479.89,12.7,12.7,0,0,0,.274,3.664,8.166,8.166,0,0,1-2.26,6.437,58.721,58.721,0,0,0,14.244,4.605Z" transform="translate(79.505 98.311)" fill="url(#linear-gradient-26)"/>
    <path id="Trazado_40" data-name="Trazado 40" d="M263.56,258.87h30.354l78.872,21.486v12.087Z" transform="translate(173.163 178.345)" fill="url(#linear-gradient-27)"/>
    <rect id="Rectángulo_25" data-name="Rectángulo 25" width="4.28" height="445.516" transform="translate(438.328 189.839)" fill="#68e1fd"/>
    <rect id="Rectángulo_26" data-name="Rectángulo 26" width="30.354" height="449.539" transform="translate(543.982 231.613)" fill="#68e1fd"/>
    <rect id="Rectángulo_27" data-name="Rectángulo 27" width="30.354" height="449.539" transform="translate(547.355 231.613)" fill="url(#linear-gradient-28)"/>
    <rect id="Rectángulo_28" data-name="Rectángulo 28" width="4.28" height="449.539" transform="translate(556.209 231.613)" fill="#68e1fd"/>
    <path id="Trazado_41" data-name="Trazado 41" d="M266.06,178.74l104.946,39.068v35.3L266.06,207.536Z" transform="translate(174.88 122.902)" fill="#68e1fd"/>
    <path id="Trazado_42" data-name="Trazado 42" d="M266.06,181.38l104.946,39.085V251.23L266.06,205.656Z" transform="translate(174.88 124.746)" fill="url(#linear-gradient-29)"/>
    <path id="Trazado_43" data-name="Trazado 43" d="M274.21,177.46,365.2,211.341v4.04L274.21,181.6Z" transform="translate(180.48 122.235)" fill="#68e1fd"/>
    <rect id="Rectángulo_29" data-name="Rectángulo 29" width="30.354" height="266.765" transform="translate(732.87 9.279)" fill="#68e1fd"/>
    <rect id="Rectángulo_30" data-name="Rectángulo 30" width="17.462" height="436.237" transform="translate(737.304 9.279)" fill="url(#linear-gradient-5)"/>
    <path id="Trazado_44" data-name="Trazado 44" d="M459.885,125.388c0-.942,109.089,37.288,109.089,37.288l2.6,37.425L457.471,158.807l-.291-33.487Z" transform="translate(298.451 -23.267)" fill="#68e1fd"/>
    <path id="Trazado_45" data-name="Trazado 45" d="M457.17,127.247c0-.942,111.811,39.376,111.811,39.376l2.6,30.594L457.427,155.94Z" transform="translate(298.444 -21.907)" fill="url(#linear-gradient-31)"/>
    <path id="Trazado_46" data-name="Trazado 46" d="M454.9,129.737c0-.959,109.072,37.27,109.072,37.27l2.6,35.1L452.471,160.81l-.291-31.073Z" transform="translate(294.891 -20.135)" fill="#68e1fd"/>
    <path id="Trazado_47" data-name="Trazado 47" d="M452.18,131.137c0-.959,111.794,39.376,111.794,39.376l2.6,30.594L452.471,159.813Z" transform="translate(294.891 -13.187)" fill="url(#linear-gradient-32)"/>
    <rect id="Rectángulo_31" data-name="Rectángulo 31" width="30.354" height="449.539" transform="translate(848.764 46.378)" fill="#68e1fd"/>
    <rect id="Rectángulo_32" data-name="Rectángulo 32" width="30.354" height="449.539" transform="translate(852.24 46.378)" fill="url(#linear-gradient-8)"/>
    <rect id="Rectángulo_33" data-name="Rectángulo 33" width="4.28" height="449.539" transform="translate(860.885 46.378)" fill="#68e1fd"/>
    <rect id="Rectángulo_34" data-name="Rectángulo 34" width="30.354" height="445.516" transform="translate(426.199)" fill="#68e1fd"/>
    <rect id="Rectángulo_35" data-name="Rectángulo 35" width="30.354" height="445.516" transform="translate(429.572)" fill="url(#linear-gradient-10)"/>
    <rect id="Rectángulo_36" data-name="Rectángulo 36" width="301.16" height="28.385" transform="translate(438.715 100.615)" fill="#68e1fd"/>
    <rect id="Rectángulo_37" data-name="Rectángulo 37" width="301.16" height="28.385" transform="translate(438.715 100.615)" fill="url(#linear-gradient-13)"/>
    <rect id="Rectángulo_38" data-name="Rectángulo 38" width="301.16" height="28.385" transform="translate(442.489 108.096)" fill="#68e1fd"/>
    <rect id="Rectángulo_39" data-name="Rectángulo 39" width="301.16" height="32.323" transform="translate(438.715 104.159)" fill="url(#linear-gradient-36)"/>
    <path id="Trazado_48" data-name="Trazado 48" d="M365.2,97.021,274.21,63.14v7.379L365.2,104.4Z" transform="translate(180.48 44.956)" fill="#68e1fd"/>
    <path id="Trazado_49" data-name="Trazado 49" d="M365.2,97.021,274.21,63.14v7.379L365.2,104.4Z" transform="translate(180.48 44.956)" fill="url(#linear-gradient-15)"/>
    <rect id="Rectángulo_40" data-name="Rectángulo 40" width="285.597" height="2.962" transform="translate(450.378 108.096)" fill="#68e1fd"/>
    <rect id="Rectángulo_41" data-name="Rectángulo 41" width="285.597" height="2.962" transform="translate(450.378 98.629)" fill="#68e1fd"/>
    <rect id="Rectángulo_42" data-name="Rectángulo 42" width="18.233" height="445.516" transform="translate(438.136)" fill="#68e1fd"/>
    <rect id="Rectángulo_43" data-name="Rectángulo 43" width="18.233" height="445.516" transform="translate(438.136)" fill="url(#linear-gradient-16)"/>
    <rect id="Rectángulo_44" data-name="Rectángulo 44" width="301.16" height="27.495" transform="translate(559.435 143.373)" fill="#68e1fd"/>
    <rect id="Rectángulo_45" data-name="Rectángulo 45" width="301.16" height="23.455" transform="translate(559.435 147.37)" fill="url(#linear-gradient-39)"/>
    <rect id="Rectángulo_46" data-name="Rectángulo 46" width="301.16" height="31.432" transform="translate(559.435 151.301)" fill="#68e1fd"/>
    <rect id="Rectángulo_47" data-name="Rectángulo 47" width="301.16" height="27.255" transform="translate(559.435 155.299)" fill="url(#linear-gradient-25)"/>
    <rect id="Rectángulo_48" data-name="Rectángulo 48" width="4.28" height="445.516" transform="translate(438.328)" fill="#68e1fd"/>
    <rect id="Rectángulo_49" data-name="Rectángulo 49" width="30.354" height="449.539" transform="translate(543.982 45.967)" fill="#68e1fd"/>
    <rect id="Rectángulo_50" data-name="Rectángulo 50" width="30.354" height="449.539" transform="translate(547.355 45.967)" fill="url(#linear-gradient-28)"/>
    <rect id="Rectángulo_51" data-name="Rectángulo 51" width="4.28" height="449.539" transform="translate(556.209 45.967)" fill="#68e1fd"/>
    <path id="Trazado_50" data-name="Trazado 50" d="M266.06,64.42l104.946,39.068v35.3L266.06,93.216Z" transform="translate(174.88 45.868)" fill="#68e1fd"/>
    <path id="Trazado_51" data-name="Trazado 51" d="M266.06,67.06l104.946,39.085V136.91L266.06,91.336Z" transform="translate(174.88 53.846)" fill="url(#linear-gradient-29)"/>
    <path id="Trazado_52" data-name="Trazado 52" d="M274.21,63.14,365.2,97.021v4.023L274.21,67.266Z" transform="translate(180.48 44.956)" fill="#68e1fd"/>
    <path id="Trazado_53" data-name="Trazado 53" d="M176.083,278.026a11.711,11.711,0,0,0-2.037,3.715,7.755,7.755,0,0,0-.736,3.321,2.825,2.825,0,0,0,1.883,2.6,1.044,1.044,0,0,0,.873-.086,1.318,1.318,0,0,0,.411-.548,38.657,38.657,0,0,0,2.363-5.461,5.975,5.975,0,0,0-.736,6.283c.342.7,1.01,1.387,1.712,1.216s.976-.924,1.164-1.592c.445-1.575.8-3.167,1.1-4.759a19.273,19.273,0,0,0-.462,3.116,3.526,3.526,0,0,0,.205,1.592,1.3,1.3,0,0,0,1.284.8,1.883,1.883,0,0,0,1.1-.839,23.368,23.368,0,0,0,3-5.136,10.272,10.272,0,0,0,.205,5.136,1.285,1.285,0,0,0,.428.651c.7.531,1.712-.257,2.123-1.01a16.074,16.074,0,0,0,1.986-4.622,5.666,5.666,0,0,0,.171-2.671,2.568,2.568,0,0,0-1.712-1.969,1.712,1.712,0,0,0-2.072,1.2c.154-1.147-1.13-2.071-2.277-1.952a4.416,4.416,0,0,0-2.791,1.866,2.243,2.243,0,0,0-2.072-2.054C179.182,276.64,177.727,276.194,176.083,278.026Z" transform="translate(114.79 79.741)" fill="url(#linear-gradient-43)"/>
    <path id="Trazado_54" data-name="Trazado 54" d="M215.789,313.306c-1.712,11.607-6.488,23.112-15.271,30.816s-21.9,11.128-32.716,6.557c-11.316-4.777-17.771-16.538-23.352-27.392,0,0,.668-9.707,7.7-3.921s17.463,40.866,39.017,20.373,21.64-42.355,21.64-42.355l3.681-.154a88.7,88.7,0,0,1-.7,16.076Z" transform="translate(95.241 93.631)" fill="url(#linear-gradient-44)"/>
  </g>
</svg>
