<svg xmlns="http://www.w3.org/2000/svg" xmlns:xlink="http://www.w3.org/1999/xlink" width="1151" height="1049.677" viewBox="0 0 1151 1049.677">
  <defs>
    <linearGradient id="linear-gradient" x1="-0.071" y1="0.952" x2="2.401" y2="-0.875" gradientUnits="objectBoundingBox">
      <stop offset="0" stop-color="#010101" stop-opacity="0"/>
      <stop offset="0.95" stop-color="#010101"/>
    </linearGradient>
    <linearGradient id="linear-gradient-2" x1="0.527" y1="-0.447" x2="0.456" y2="2.01" xlink:href="#linear-gradient"/>
  </defs>
  <g id="iphone" transform="translate(-0.034 -0.025)">
    <path id="Trazado_343" data-name="Trazado 343" d="M719.978,931.849c101.988-12.041,206.014-14.564,304.873-41.284a627.375,627.375,0,0,0,144.675-59.174c27.7-15.619,54.523-33.784,73.587-58.37,51.443-66.513,32.791-161.1-7.034-234.377s-98.2-137.865-125.9-215.96c-25.831-72.866-27.165-160.2-88.042-211.006-23.939-20-54.378-31.467-84.6-41.284C885.391,53.445,830.431,40.189,775.569,45.487c-68.76,6.651-130.244,41.49-194.639,65.228-63.279,23.257-130.463,36.1-193.936,59.036s-125.393,58-160.077,113.186C187.311,345.8,188.985,423.9,196.794,496.7s20.4,147.727-1.019,218.047c-17.657,57.912-57.482,108.9-69.221,168.14-13.922,70.274,20.179,128.438,88.357,159.264,81.154,36.7,170.142,22.018,235.919-24.61C527.935,962.789,625.873,942.927,719.978,931.849Z" transform="translate(-123.45 -44.28)" fill="#68e1fd" opacity="0.24"/>
    <path id="Trazado_344" data-name="Trazado 344" d="M446.737,172.936a26.9,26.9,0,0,1,9.168,22.217,52.509,52.509,0,0,1-7.737,23.478,101.867,101.867,0,0,1-23.7,28.062,234.73,234.73,0,0,1,.946-53.8c.631-4.851-2.571-17.536-.436-20.737C429.3,165.757,441.887,169.128,446.737,172.936Z" transform="translate(303.998 123.588)" fill="#f5e0cd"/>
    <path id="Trazado_345" data-name="Trazado 345" d="M848.482,482.448a22.362,22.362,0,0,0-2.886,19.4c4.851,12.952,19.84,12.515,30.245,18.676,20.2,11.666,16.565,44.021,0,60.417s-40.5,22.168-62.139,30.706a329.845,329.845,0,0,0-64.491,34.222c-5.53,3.638-10.866,7.276-16.032,11.23-50.085,36.6-90.856,79.529-156.608,107.518C536.721,781.6,497.5,796.15,469.416,829.208c-1.5,1.771-2.983,3.492-4.414,5.215-78.583,92.869-219.329,105.214-309.918,24.011-20.519-18.409-30.1-35.532-13.1-51.249C200.584,753.1,266.07,716.33,308.83,645.775c21.562-35.508,35.872-74.993,48.508-114.576,11.327-35.775,21.344-71.913,31.142-108.125A866.219,866.219,0,0,1,427.287,310.2c28.183-66.262,30.948-49.769,77.613-114.867,6.524-9.047,20.01,14.31,23.648,24.812,11.23,33.422,4.851,87.509-16.59,104-9.047,6.864-23.357,48.266-20.47,66.48a35.523,35.523,0,0,0,1.722,7.058c1.819,4.172,4.851,4.075,12.127,1.092,15.935-6.524,29.614-21.028,42.469-33.422,5.53-5.36,11.23-10.5,17.22-15.3,72.447-59.98,170.094-83.87,264.369-91.947,21-1.819,43.075-2.716,61.023,10.72a35.023,35.023,0,0,1,14.092,22.532c5.675,38.806-57.991,49.939-52.559,84.234a45.064,45.064,0,0,1,33.155,77.079C874.022,463.8,857.457,468.429,848.482,482.448Z" transform="translate(-109.559 137.286)" fill="#f5e0cd"/>
    <path id="Trazado_346" data-name="Trazado 346" d="M598.628,379.294c-7.155,63.667-31.7,123.89-55.978,183.142a71.809,71.809,0,0,1-4.972,10.405,24.517,24.517,0,0,1-4.972,6.063,24.884,24.884,0,0,1-11.06,5.166,68.584,68.584,0,0,1-18.288.922l-135.046-6.258c-24.545-1.188-53-4.341-66.5-24.909-7.786-11.787-2.619-26.68-3.08-40.771-1.091-32.428,6.161-83.191,6.791-115.619.364-20.2-9.338-49.308-23.818-72.762,1.819,4.172,4.851,4.075,12.127,1.091,15.935-6.524,29.614-21.028,42.469-33.422,5.53-5.36,11.23-10.5,17.22-15.3,27.431-7.883,55.517-13.315,71.016-19.4,36.575-14.213,67.645-15.571,106.5-10.041,27.092,3.881,49.284,25.637,59.689,50.934S601.635,352.1,598.628,379.294Z" transform="translate(102.072 220.966)" fill="url(#linear-gradient)"/>
    <rect id="Rect치ngulo_95" data-name="Rect치ngulo 95" width="288.187" height="585.444" rx="10.76" transform="translate(435.651 207.723)" fill="#68e1fd"/>
    <rect id="Rect치ngulo_96" data-name="Rect치ngulo 96" width="288.187" height="585.444" rx="10.76" transform="translate(435.651 207.723)" fill="url(#linear-gradient-2)"/>
    <path id="Trazado_347" data-name="Trazado 347" d="M604.42,519.14V683.025c0,32.088-18.263,50.424-50.133,50.424H350.7c-31.724,0-49.43-18.045-49.43-49.939V436c0-21.392.315-42.784-.146-64.152-.315-15.547-1.868-31.045-2.425-46.568-.145-3.444,1.358-6.912,1.916-10.429.388-2.425,1.383-5.384.509-7.276-6.185-14.383-1.722-29.347-2.571-43.973-.437-7.276,2.425-14.552,2.644-21.829,0-5.918-2.862-11.86-2.692-17.754.558-17.2,1.407-34.441,3.2-51.564,2.425-23.187,21.513-39.146,46.083-39.219,50.133-.121,100.242,0,150.375,0,19.161,0,38.3-.17,57.458,0,30.827.145,48.8,18.142,48.872,48.726,0,8.731-.146,17.463,0,26.194.994,40.8,4.293,81.688,2.425,122.313-1.286,26.679-1.965,53.359-2.256,80.208C604.129,446.548,604.445,482.856,604.42,519.14ZM311.82,431.1V682.006c0,24.836,14.552,39.607,39.219,39.631q101.406.145,202.764,0c26.995,0,41.232-14.383,41.232-41.232v-499.2c0-24.618-14.94-39.461-39.34-39.558-5.918,0-11.836.17-17.73,0-6.355-.267-9.7,2.425-11.569,8.634-3.129,10.793-7.009,13.8-18.118,13.849q-54.475.291-108.973.146c-12.394,0-15.644-2.6-19.282-14.552a9.847,9.847,0,0,0-11.084-8c-6.767.218-13.534,0-20.276,0-21.319.218-36.721,15.5-36.745,36.866Q311.7,304.71,311.82,431.1Zm288.308,195-.291-.194v60.635h.291ZM307.405,671.213h0V624.136h0Z" transform="translate(124.996 68.552)" fill="#68e1fd"/>
    <path id="Trazado_348" data-name="Trazado 348" d="M421.9,261.949c-7.009,10.429-13.1,22.459-11.957,34.974s12.127,24.763,24.618,23.017c6.185-.873,11.424-4.851,16.226-8.828q9.338-7.737,18.069-16.274a64.525,64.525,0,0,0,10.7-12.709,37.3,37.3,0,0,0,1.164-35.484c-4.633-9.022-17.754-21.707-28.862-18.118S428.229,252.562,421.9,261.949Z" transform="translate(284.671 203.545)" fill="#f5e0cd"/>
    <path id="Trazado_349" data-name="Trazado 349" d="M421.9,312.069c-7.009,10.429-13.1,22.459-11.957,34.974s12.127,24.763,24.618,23.017c6.185-.873,11.424-4.851,16.226-8.829q9.338-7.737,18.069-16.274a64.521,64.521,0,0,0,10.7-12.709,37.3,37.3,0,0,0,1.164-35.484c-4.632-9.023-17.754-21.707-28.862-18.118S428.229,302.682,421.9,312.069Z" transform="translate(284.671 271.198)" fill="#f5e0cd"/>
    <path id="Trazado_350" data-name="Trazado 350" d="M421.9,358.675c-7.009,10.429-13.1,22.459-11.957,34.974s12.127,24.788,24.618,23.017c6.185-.873,11.424-4.851,16.226-8.8q9.338-7.737,18.069-16.274a64.52,64.52,0,0,0,10.7-12.709,37.3,37.3,0,0,0,1.164-35.484c-4.632-9.047-17.754-21.707-28.862-18.142S428.229,349.288,421.9,358.675Z" transform="translate(284.671 334.117)" fill="#f5e0cd"/>
    <g id="c5Uefy" transform="translate(539.401 427.217)">
      <path id="Trazado_351" data-name="Trazado 351" d="M418.953,243.363l-1.843,1.649a23.334,23.334,0,0,0-6.064,7.761,20.2,20.2,0,0,0,2.28,20.737,15.959,15.959,0,0,0,6.985,5.918l1.261.485c-.194.558-.364,1.116-.558,1.649a53.964,53.964,0,0,1-9.7,16.687,27.35,27.35,0,0,1-3.808,3.493,10.623,10.623,0,0,1-9.823,1.916c-2.159-.631-4.293-1.334-6.452-1.989a21.272,21.272,0,0,0-5.481-1.043,19.405,19.405,0,0,0-7.955,1.673,27.36,27.36,0,0,1-6.161,1.868,10.406,10.406,0,0,1-5.87-.922,19.186,19.186,0,0,1-6.33-5.069,58.794,58.794,0,0,1-8.829-14.552,51.2,51.2,0,0,1-4.438-16.1,38.613,38.613,0,0,1,2.3-18.748,24.449,24.449,0,0,1,7.519-10.114,18.069,18.069,0,0,1,12.127-3.832,37.837,37.837,0,0,1,9.7,1.795c1.31.364,2.644.655,3.978,1.019a10.938,10.938,0,0,0,6.306,0l6.913-2.086a23.406,23.406,0,0,1,8.683-1.019,19.4,19.4,0,0,1,12.127,5.263c1.067.994,2.037,2.11,3.056,3.177A3.458,3.458,0,0,1,418.953,243.363Z" transform="translate(-345.866 -214.137)" fill="#fff"/>
      <path id="Trazado_352" data-name="Trazado 352" d="M361.141,247.919a23.624,23.624,0,0,1,4.851-14.552,22.168,22.168,0,0,1,13.024-7.276,7.106,7.106,0,0,1,.291,3.541,22.12,22.12,0,0,1-8.8,15.547,13.753,13.753,0,0,1-7.276,2.668Z" transform="translate(-324.095 -226.09)" fill="#fff"/>
    </g>
  </g>
</svg>
