<svg xmlns="http://www.w3.org/2000/svg" xmlns:xlink="http://www.w3.org/1999/xlink" width="742.447" height="801.804" viewBox="0 0 742.447 801.804">
  <defs>
    <linearGradient id="linear-gradient" x1="0.379" y1="-1.112" x2="1.409" y2="-3.87" gradientUnits="objectBoundingBox">
      <stop offset="0" stop-opacity="0"/>
      <stop offset="0.91" stop-opacity="0.8"/>
      <stop offset="1"/>
    </linearGradient>
    <linearGradient id="linear-gradient-2" x1="3.049" y1="9.552" x2="4.048" y2="9.552" gradientUnits="objectBoundingBox">
      <stop offset="0" stop-color="#ecc4d7"/>
      <stop offset="0.42" stop-color="#efd4d1"/>
      <stop offset="1" stop-color="#f2eac9"/>
    </linearGradient>
    <linearGradient id="linear-gradient-3" x1="-143.568" y1="-201.002" x2="-144.252" y2="-201.929" xlink:href="#linear-gradient-2"/>
    <linearGradient id="linear-gradient-4" x1="2.531" y1="4.113" x2="5.074" y2="4.482" xlink:href="#linear-gradient"/>
    <linearGradient id="linear-gradient-5" x1="1.278" y1="3.543" x2="1.856" y2="4.802" xlink:href="#linear-gradient"/>
    <linearGradient id="linear-gradient-6" x1="4.65" y1="-15.002" x2="5.649" y2="-15.002" gradientUnits="objectBoundingBox">
      <stop offset="0" stop-color="#183866"/>
      <stop offset="1" stop-color="#1a7fc1"/>
    </linearGradient>
    <linearGradient id="linear-gradient-7" x1="6.226" y1="17.128" x2="2.516" y2="19.673" xlink:href="#linear-gradient"/>
    <linearGradient id="linear-gradient-8" x1="75.85" y1="-4.652" x2="57.09" y2="-4.761" gradientUnits="objectBoundingBox">
      <stop offset="0" stop-color="#68e1fd"/>
      <stop offset="1" stop-color="#69b9eb"/>
    </linearGradient>
    <linearGradient id="linear-gradient-9" x1="75.83" y1="-7.166" x2="57.07" y2="-7.275" xlink:href="#linear-gradient-8"/>
    <linearGradient id="linear-gradient-10" x1="0.949" y1="1.666" x2="1.862" y2="0.22" gradientUnits="objectBoundingBox">
      <stop offset="0" stop-color="#fff" stop-opacity="0"/>
      <stop offset="0.09" stop-color="#fff" stop-opacity="0.051"/>
      <stop offset="0.24" stop-color="#fff" stop-opacity="0.169"/>
      <stop offset="0.45" stop-color="#fff" stop-opacity="0.369"/>
      <stop offset="0.69" stop-color="#fff" stop-opacity="0.651"/>
      <stop offset="0.98" stop-color="#fff"/>
    </linearGradient>
    <linearGradient id="linear-gradient-11" x1="0.78" y1="-0.063" x2="1.875" y2="-1.734" xlink:href="#linear-gradient-10"/>
    <linearGradient id="linear-gradient-12" x1="4.597" y1="38.662" x2="4.095" y2="-37.691" xlink:href="#linear-gradient"/>
    <linearGradient id="linear-gradient-13" x1="4.629" y1="33.767" x2="4.128" y2="-42.585" xlink:href="#linear-gradient"/>
    <linearGradient id="linear-gradient-14" x1="51.283" y1="3.494" x2="47.525" y2="7.136" xlink:href="#linear-gradient"/>
    <linearGradient id="linear-gradient-15" x1="65.692" y1="-1.212" x2="47.067" y2="-1.321" xlink:href="#linear-gradient-8"/>
    <linearGradient id="linear-gradient-16" x1="0.709" y1="-0.862" x2="1.471" y2="-2.154" xlink:href="#linear-gradient-10"/>
    <linearGradient id="linear-gradient-17" x1="4.825" y1="-1.578" x2="9.104" y2="-2.77" xlink:href="#linear-gradient-10"/>
    <linearGradient id="linear-gradient-18" x1="0.932" y1="-2.917" x2="1.784" y2="-4.055" xlink:href="#linear-gradient-10"/>
    <linearGradient id="linear-gradient-19" x1="4.147" y1="27.728" x2="3.706" y2="-39.15" xlink:href="#linear-gradient"/>
    <linearGradient id="linear-gradient-20" x1="4.179" y1="22.847" x2="3.738" y2="-44.031" xlink:href="#linear-gradient"/>
    <linearGradient id="linear-gradient-21" x1="44.443" y1="2.787" x2="40.422" y2="6.509" xlink:href="#linear-gradient"/>
    <linearGradient id="linear-gradient-22" x1="46.915" y1="2.874" x2="46.046" y2="6.017" xlink:href="#linear-gradient"/>
    <linearGradient id="linear-gradient-23" x1="0.604" y1="3.281" x2="1.861" y2="2.012" xlink:href="#linear-gradient-10"/>
    <linearGradient id="linear-gradient-24" x1="0.517" y1="1.268" x2="1.831" y2="-0.122" xlink:href="#linear-gradient-10"/>
    <linearGradient id="linear-gradient-25" x1="4.078" y1="38.147" x2="3.637" y2="-28.731" xlink:href="#linear-gradient"/>
    <linearGradient id="linear-gradient-26" x1="4.11" y1="33.255" x2="3.67" y2="-33.623" xlink:href="#linear-gradient"/>
    <linearGradient id="linear-gradient-27" x1="46.338" y1="3.101" x2="48.077" y2="6.771" xlink:href="#linear-gradient"/>
    <linearGradient id="linear-gradient-28" x1="47" y1="2.937" x2="45.269" y2="7.289" xlink:href="#linear-gradient"/>
    <linearGradient id="linear-gradient-29" x1="-1.042" y1="4.262" x2="5.003" y2="4.164" gradientUnits="objectBoundingBox">
      <stop offset="0" stop-opacity="0"/>
      <stop offset="0.84" stop-opacity="0.659"/>
      <stop offset="0.91" stop-opacity="0.8"/>
      <stop offset="1"/>
    </linearGradient>
    <linearGradient id="linear-gradient-30" x1="1.609" y1="2.766" x2="0.64" y2="4.034" xlink:href="#linear-gradient-29"/>
    <linearGradient id="linear-gradient-31" x1="0.694" y1="-0.3" x2="1.297" y2="-1.631" xlink:href="#linear-gradient-10"/>
    <linearGradient id="linear-gradient-32" x1="0.383" y1="-2.491" x2="1.383" y2="-2.491" xlink:href="#linear-gradient-10"/>
    <linearGradient id="linear-gradient-33" x1="2.757" y1="18.051" x2="2.484" y2="-23.407" xlink:href="#linear-gradient"/>
    <linearGradient id="linear-gradient-34" x1="2.79" y1="13.181" x2="2.516" y2="-28.277" xlink:href="#linear-gradient"/>
    <linearGradient id="linear-gradient-35" x1="27.236" y1="1.388" x2="29.795" y2="6.836" xlink:href="#linear-gradient"/>
    <linearGradient id="linear-gradient-36" x1="27.095" y1="1.092" x2="29.654" y2="6.539" xlink:href="#linear-gradient"/>
    <linearGradient id="linear-gradient-37" x1="5.491" y1="-0.753" x2="6.488" y2="-0.753" xlink:href="#linear-gradient-10"/>
    <linearGradient id="linear-gradient-38" x1="2.319" y1="-0.122" x2="3.319" y2="-0.122" xlink:href="#linear-gradient-10"/>
    <linearGradient id="linear-gradient-39" x1="0.432" y1="-24.88" x2="1.432" y2="-24.88" xlink:href="#linear-gradient-10"/>
    <linearGradient id="linear-gradient-40" x1="0.437" y1="-49.261" x2="1.437" y2="-49.261" xlink:href="#linear-gradient-10"/>
    <linearGradient id="linear-gradient-41" x1="2.765" y1="-24.688" x2="3.765" y2="-24.688" xlink:href="#linear-gradient-10"/>
    <linearGradient id="linear-gradient-42" x1="0.48" y1="7.692" x2="0.506" y2="5.224" xlink:href="#linear-gradient"/>
    <linearGradient id="linear-gradient-43" x1="2.287" y1="7.791" x2="2.312" y2="5.323" xlink:href="#linear-gradient"/>
    <linearGradient id="linear-gradient-44" x1="2.608" y1="-24.459" x2="3.604" y2="-24.806" xlink:href="#linear-gradient-10"/>
    <linearGradient id="linear-gradient-46" x1="6.961" y1="-0.491" x2="2.673" y2="-1.061" xlink:href="#linear-gradient-6"/>
    <linearGradient id="linear-gradient-47" x1="7.168" y1="-2.298" x2="2.467" y2="-2.861" xlink:href="#linear-gradient-6"/>
    <linearGradient id="linear-gradient-48" x1="5.671" y1="-8.051" x2="4.899" y2="-8.678" xlink:href="#linear-gradient-2"/>
    <linearGradient id="linear-gradient-49" x1="0.481" y1="6.187" x2="0.328" y2="4.156" xlink:href="#linear-gradient"/>
    <linearGradient id="linear-gradient-50" x1="0.555" y1="6.785" x2="0.417" y2="4.782" xlink:href="#linear-gradient"/>
    <linearGradient id="linear-gradient-51" x1="0.986" y1="1.868" x2="-1.137" y2="2.034" xlink:href="#linear-gradient"/>
    <linearGradient id="linear-gradient-52" x1="0.734" y1="2.217" x2="-1.366" y2="2.354" xlink:href="#linear-gradient"/>
    <linearGradient id="linear-gradient-53" x1="9.09" y1="7.348" x2="10.141" y2="7.348" xlink:href="#linear-gradient-2"/>
    <linearGradient id="linear-gradient-54" x1="0.516" y1="14.445" x2="0.456" y2="16.977" xlink:href="#linear-gradient"/>
    <linearGradient id="linear-gradient-55" x1="9.658" y1="11.266" x2="5.054" y2="11.017" xlink:href="#linear-gradient"/>
    <linearGradient id="linear-gradient-56" x1="1.396" y1="4.062" x2="1.501" y2="3.823" gradientUnits="objectBoundingBox">
      <stop offset="0.09" stop-color="#68e1fd"/>
      <stop offset="0.2" stop-color="#65d5f1"/>
      <stop offset="0.4" stop-color="#5db7d2"/>
      <stop offset="0.66" stop-color="#51859f"/>
      <stop offset="0.97" stop-color="#404059"/>
      <stop offset="0.99" stop-color="#3f3d56"/>
    </linearGradient>
    <linearGradient id="linear-gradient-57" x1="4.697" y1="6.702" x2="3.636" y2="4.935" xlink:href="#linear-gradient-2"/>
  </defs>
  <g id="logistics" transform="translate(0.002 -0.004)">
    <path id="Trazado_478" data-name="Trazado 478" d="M341.65,781.016C182.814,758,86.4,645.47,64.737,511.55c-13.406-82.329,1.49-172.647,47.258-255.383C232.374,38.7,536.64,33.689,536.64,33.689,711.725,25.023,677.2,320.622,667.039,384.4c-5.416,33.717,28.707,78.809,64.049,127.15,31.28,42.789,63.778,88.287,70.549,130.671C816.261,732.268,597.98,818.2,341.65,781.016Z" transform="translate(-60.01 9.993)" fill="#68e1fd" opacity="0.18"/>
    <path id="Trazado_479" data-name="Trazado 479" d="M340.413,657.406C181.577,634.386,85.166,521.86,63.5,387.94H729.987c31.415,42.79,63.778,88.287,70.548,130.671C815.024,608.658,596.744,694.643,340.413,657.406Z" transform="translate(-58.773 135.499)" fill="#68e1fd"/>
    <path id="Trazado_480" data-name="Trazado 480" d="M340.413,657.406C181.577,634.386,85.166,521.86,63.5,387.94H729.987c31.415,42.79,63.778,88.287,70.548,130.671C815.024,608.658,596.744,694.643,340.413,657.406Z" transform="translate(-58.773 135.499)" fill="url(#linear-gradient)"/>
    <path id="Trazado_481" data-name="Trazado 481" d="M326.758,544.1c-7.989-.135-17.6-1.219-21.259-8.4-1.76-3.521-1.625-7.718-2.167-11.781-5.416-35.613-67.7-33.988-78-68.517-.812-2.979-1.219-6.635.948-8.937,1.9-2.031,4.875-2.437,7.583-2.573l90.589-6.364c3.656-13.406-10.7-24.78-23.832-28.978-59.174-18.957-126.337,20.041-184.564-2.031-3.114-1.219-6.364-2.708-7.854-5.687-4.2-8.531,9.208-14.489,18.822-14.624l229.113-3.656c4.875-.135,9.749-.135,14.353,1.354,7.041,2.3,12.458,7.989,17.6,13.406,21.666,23.155,44.144,46.716,72.58,60.934,52.133,26,114.421,16.385,171.7,27.353,16.52,3.25,36.831,14.624,32.769,30.873-13,51.185-109.547,31.957-144.211,31.28Z" transform="translate(-43.223 133.572)" fill="#1d2741" opacity="0.18"/>
    <path id="Trazado_482" data-name="Trazado 482" d="M463.555,83.54l.135,44.55,17.468,45.769,14.218-6.771a7.84,7.84,0,0,1,10.156,3.114l3.792,6.635a10.183,10.183,0,0,1-3.656,13.947h0l-.406.271c-10.291,5.416-31.144,18.416-35.071,18.416-5.958,0-23.291-26.811-23.291-26.811Z" transform="translate(76.988 27.711)" fill="#68e1fd"/>
    <path id="Trazado_483" data-name="Trazado 483" d="M487.893,144.94s-6.364,5.01-3.385,10.427,13.135,5.687,13.135,5.687S505.9,146.294,487.893,144.94Z" transform="translate(90.023 49.453)" fill="#68e1fd"/>
    <path id="Trazado_484" data-name="Trazado 484" d="M497.2,122.564a56.71,56.71,0,0,1,9.343,1.76l14.083,3.385a3.616,3.616,0,0,1,1.9.948c.812,1.083-.406,2.708-1.625,3.114-4.062,1.625-9.208-1.354-12.864,1.083-2.031,1.354-2.708,4.062-4.333,5.823-2.031,2.437-5.416,3.521-8.666,3.791a74.578,74.578,0,0,0-9.614.948c-4.739,1.083-9.75,4.2-14.083,1.76a3.655,3.655,0,0,1-1.083-.948c-.542-.948.135-2.167.677-3.25a16.655,16.655,0,0,0,1.9-9.208c-.135-4.469-.271-4.062,4.2-5.687C483.522,123.919,490.293,122.023,497.2,122.564Z" transform="translate(85.186 41.497)" fill="url(#linear-gradient-2)"/>
    <path id="Trazado_485" data-name="Trazado 485" d="M434.7,292.816l-.406,9.343,16.385-.135,1.083-12.864Z" transform="translate(153.782 102.389)" fill="url(#linear-gradient-3)"/>
    <path id="Trazado_486" data-name="Trazado 486" d="M496.106,300.175l16.385-.135,5.01,6.5s21.8,7.854,25.863,18.551,3.25,16.249,3.25,16.249L489.2,322.518Z" transform="translate(91.966 104.373)" fill="#68e1fd"/>
    <path id="Trazado_487" data-name="Trazado 487" d="M406,184.64s115.234.812,124.712,7.448c26.269,18.28,18.145,136.629,18.145,136.629l-23.426,6.771L506.474,235.012Z" transform="translate(62.505 63.51)" fill="#25233a"/>
    <rect id="Rectángulo_137" data-name="Rectángulo 137" width="96.818" height="67.163" transform="translate(232.621 385.321)" fill="#68e1fd"/>
    <rect id="Rectángulo_138" data-name="Rectángulo 138" width="33.582" height="64.726" transform="translate(238.85 387.352)" fill="url(#linear-gradient-4)"/>
    <rect id="Rectángulo_139" data-name="Rectángulo 139" width="96.818" height="74.746" transform="translate(225.986 452.484)" fill="#68e1fd"/>
    <rect id="Rectángulo_140" data-name="Rectángulo 140" width="96.818" height="74.746" transform="translate(225.986 452.484)" fill="url(#linear-gradient-5)"/>
    <rect id="Rectángulo_141" data-name="Rectángulo 141" width="17.468" height="13.676" transform="translate(273.109 385.321)" fill="url(#linear-gradient-6)"/>
    <rect id="Rectángulo_142" data-name="Rectángulo 142" width="17.468" height="13.676" transform="translate(263.63 452.213)" fill="url(#linear-gradient-7)"/>
    <rect id="Rectángulo_143" data-name="Rectángulo 143" width="1.354" height="53.216" transform="translate(281.775 398.997)" fill="url(#linear-gradient-8)"/>
    <rect id="Rectángulo_144" data-name="Rectángulo 144" width="1.354" height="53.216" transform="translate(272.432 465.889)" fill="url(#linear-gradient-9)"/>
    <rect id="Rectángulo_145" data-name="Rectángulo 145" width="115.369" height="80.027" transform="translate(233.975 215.652)" fill="#68e1fd"/>
    <rect id="Rectángulo_146" data-name="Rectángulo 146" width="115.369" height="80.027" transform="translate(233.975 215.652)" fill="url(#linear-gradient-10)"/>
    <rect id="Rectángulo_147" data-name="Rectángulo 147" width="115.369" height="89.1" transform="translate(225.986 295.544)" fill="#68e1fd"/>
    <rect id="Rectángulo_148" data-name="Rectángulo 148" width="115.369" height="89.1" transform="translate(225.986 295.544)" fill="url(#linear-gradient-11)"/>
    <rect id="Rectángulo_149" data-name="Rectángulo 149" width="20.853" height="16.249" transform="translate(282.181 215.652)" fill="url(#linear-gradient-12)"/>
    <rect id="Rectángulo_150" data-name="Rectángulo 150" width="20.853" height="16.249" transform="translate(270.807 295.273)" fill="url(#linear-gradient-13)"/>
    <rect id="Rectángulo_151" data-name="Rectángulo 151" width="1.625" height="63.372" transform="translate(292.472 231.901)" fill="url(#linear-gradient-14)"/>
    <rect id="Rectángulo_152" data-name="Rectángulo 152" width="1.625" height="63.372" transform="translate(281.369 311.522)" fill="url(#linear-gradient-15)"/>
    <rect id="Rectángulo_153" data-name="Rectángulo 153" width="131.618" height="91.266" transform="translate(107.367 330.48)" fill="#68e1fd"/>
    <path id="Trazado_488" data-name="Trazado 488" d="M210.773,298.224v36.967H79.29V244.06H197.909v54.164Z" transform="translate(28.077 86.42)" fill="url(#linear-gradient-16)"/>
    <rect id="Rectángulo_154" data-name="Rectángulo 154" width="12.864" height="54.299" transform="translate(225.986 330.48)" fill="url(#linear-gradient-17)"/>
    <rect id="Rectángulo_155" data-name="Rectángulo 155" width="131.618" height="101.693" transform="translate(72.838 421.61)" fill="#68e1fd"/>
    <rect id="Rectángulo_156" data-name="Rectángulo 156" width="131.618" height="101.693" transform="translate(72.838 421.61)" fill="url(#linear-gradient-18)"/>
    <rect id="Rectángulo_157" data-name="Rectángulo 157" width="23.697" height="18.551" transform="translate(162.208 330.48)" fill="url(#linear-gradient-19)"/>
    <rect id="Rectángulo_158" data-name="Rectángulo 158" width="23.697" height="18.551" transform="translate(124.158 421.34)" fill="url(#linear-gradient-20)"/>
    <rect id="Rectángulo_159" data-name="Rectángulo 159" width="1.896" height="72.309" transform="translate(174.124 349.031)" fill="url(#linear-gradient-21)"/>
    <rect id="Rectángulo_160" data-name="Rectángulo 160" width="1.76" height="72.309" transform="translate(136.074 439.891)" fill="url(#linear-gradient-22)"/>
    <rect id="Rectángulo_161" data-name="Rectángulo 161" width="131.618" height="91.266" transform="translate(101.003 137.25)" fill="#68e1fd"/>
    <rect id="Rectángulo_162" data-name="Rectángulo 162" width="131.618" height="91.266" transform="translate(101.003 137.25)" fill="url(#linear-gradient-23)"/>
    <rect id="Rectángulo_163" data-name="Rectángulo 163" width="131.618" height="101.693" transform="translate(91.931 228.516)" fill="#68e1fd"/>
    <rect id="Rectángulo_164" data-name="Rectángulo 164" width="131.618" height="101.693" transform="translate(91.931 228.516)" fill="url(#linear-gradient-24)"/>
    <rect id="Rectángulo_165" data-name="Rectángulo 165" width="23.697" height="18.551" transform="translate(155.979 137.25)" fill="url(#linear-gradient-25)"/>
    <rect id="Rectángulo_166" data-name="Rectángulo 166" width="23.697" height="18.551" transform="translate(143.115 228.11)" fill="url(#linear-gradient-26)"/>
    <rect id="Rectángulo_167" data-name="Rectángulo 167" width="1.76" height="72.309" transform="translate(167.895 155.801)" fill="url(#linear-gradient-27)"/>
    <rect id="Rectángulo_168" data-name="Rectángulo 168" width="1.76" height="72.309" transform="translate(155.031 246.661)" fill="url(#linear-gradient-28)"/>
    <path id="Trazado_489" data-name="Trazado 489" d="M230.064,204.94v54.435s-19.77-25.322-18.957-39S230.064,204.94,230.064,204.94Z" transform="translate(-6.515 70.699)" opacity="0.46" fill="url(#linear-gradient-29)"/>
    <path id="Trazado_490" data-name="Trazado 490" d="M249.219,275.9l-.948,34.259H166.89v-89.1h7.989v-10.7l12.051,10.7,35.342,31.009,1.49,1.49Z" transform="translate(59.096 74.487)" fill="url(#linear-gradient-30)"/>
    <rect id="Rectángulo_169" data-name="Rectángulo 169" width="211.916" height="146.92" transform="translate(363.698 302.179)" fill="#68e1fd"/>
    <rect id="Rectángulo_170" data-name="Rectángulo 170" width="211.916" height="146.92" transform="translate(363.698 302.179)" fill="url(#linear-gradient-31)"/>
    <rect id="Rectángulo_171" data-name="Rectángulo 171" width="211.916" height="163.71" transform="translate(308.315 449.099)" fill="#68e1fd"/>
    <rect id="Rectángulo_172" data-name="Rectángulo 172" width="211.916" height="163.71" transform="translate(308.315 449.099)" fill="url(#linear-gradient-32)"/>
    <rect id="Rectángulo_173" data-name="Rectángulo 173" width="38.186" height="29.926" transform="translate(452.256 302.179)" fill="url(#linear-gradient-33)"/>
    <rect id="Rectángulo_174" data-name="Rectángulo 174" width="38.186" height="29.926" transform="translate(390.78 448.422)" fill="url(#linear-gradient-34)"/>
    <rect id="Rectángulo_175" data-name="Rectángulo 175" width="2.979" height="116.452" transform="translate(471.349 331.969)" fill="url(#linear-gradient-35)"/>
    <rect id="Rectángulo_176" data-name="Rectángulo 176" width="2.979" height="116.452" transform="translate(410.144 478.347)" fill="url(#linear-gradient-36)"/>
    <path id="Trazado_491" data-name="Trazado 491" d="M289.913,530.567H260.8V252.029a14.529,14.529,0,0,1,14.624-14.489h0a14.705,14.705,0,0,1,14.624,14.489V530.567Z" transform="translate(11.09 82.242)" fill="#68e1fd"/>
    <path id="Trazado_492" data-name="Trazado 492" d="M292.754,275.852h0a15.288,15.288,0,0,1-21.395-2.708l-38.727-49.56a15.288,15.288,0,0,1,2.708-21.395h0a15.261,15.261,0,0,1,21.395,2.573h0l38.727,49.56a15.22,15.22,0,0,1-2.708,21.53Z" transform="translate(-0.011 68.575)" fill="#68e1fd"/>
    <path id="Trazado_493" data-name="Trazado 493" d="M632.665,467.481h0a13.541,13.541,0,0,1-13.541,13.541H288.317A27.19,27.19,0,0,1,261.1,453.94H618.988a13.541,13.541,0,0,1,13.676,13.541Z" transform="translate(11.196 158.869)" fill="#68e1fd"/>
    <path id="Trazado_494" data-name="Trazado 494" d="M631.708,467.481H287.361A27.177,27.177,0,0,1,263.8,453.94H618.032A13.609,13.609,0,0,1,631.708,467.481Z" transform="translate(12.152 158.869)" fill="#68e1fd"/>
    <path id="Trazado_495" data-name="Trazado 495" d="M289.913,530.567H260.8V252.029a14.529,14.529,0,0,1,14.624-14.489h0a14.705,14.705,0,0,1,14.624,14.489V530.567Z" transform="translate(11.09 82.242)" fill="url(#linear-gradient-37)"/>
    <path id="Trazado_496" data-name="Trazado 496" d="M292.754,275.852h0a15.288,15.288,0,0,1-21.395-2.708l-38.727-49.56a15.288,15.288,0,0,1,2.708-21.395h0a15.261,15.261,0,0,1,21.395,2.573h0l38.727,49.56a15.22,15.22,0,0,1-2.708,21.53Z" transform="translate(-0.011 68.575)" fill="url(#linear-gradient-38)"/>
    <path id="Trazado_497" data-name="Trazado 497" d="M632.665,467.481h0a13.541,13.541,0,0,1-13.541,13.541H288.317A27.19,27.19,0,0,1,261.1,453.94H618.988a13.541,13.541,0,0,1,13.676,13.541Z" transform="translate(11.196 158.869)" fill="url(#linear-gradient-39)"/>
    <path id="Trazado_498" data-name="Trazado 498" d="M631.708,467.481H287.361A27.177,27.177,0,0,1,263.8,453.94H618.032A13.609,13.609,0,0,1,631.708,467.481Z" transform="translate(12.152 158.869)" fill="url(#linear-gradient-40)"/>
    <circle id="Elipse_83" data-name="Elipse 83" cx="22.478" cy="22.478" r="22.478" transform="translate(299.687 671.333) rotate(-45)" fill="#68e1fd"/>
    <circle id="Elipse_84" data-name="Elipse 84" cx="6.77" cy="6.77" r="6.77" transform="translate(324.835 665.213)" fill="#1d2741" opacity="0.57"/>
    <path id="Trazado_499" data-name="Trazado 499" d="M252.914,501.809H238.29V472.56h29.384Z" transform="translate(84.379 167.331)" fill="url(#linear-gradient-41)"/>
    <circle id="Elipse_85" data-name="Elipse 85" cx="22.478" cy="22.478" r="22.478" transform="translate(556.522 648.828)" fill="#68e1fd"/>
    <circle id="Elipse_86" data-name="Elipse 86" cx="22.478" cy="22.478" r="22.478" transform="translate(305.702 689.926) rotate(-80.78)" fill="url(#linear-gradient-42)"/>
    <circle id="Elipse_87" data-name="Elipse 87" cx="22.478" cy="22.478" r="22.478" transform="translate(556.522 648.828)" fill="url(#linear-gradient-43)"/>
    <path id="Trazado_500" data-name="Trazado 500" d="M482.5,499.41a6.77,6.77,0,1,0,6.771-6.77,6.77,6.77,0,0,0-6.771,6.77Z" transform="translate(89.594 172.573)" fill="#1d2741" opacity="0.57"/>
    <path id="Trazado_501" data-name="Trazado 501" d="M427.114,501.809h14.76V472.56H412.49Z" transform="translate(146.063 167.331)" fill="#68e1fd"/>
    <path id="Trazado_502" data-name="Trazado 502" d="M252.914,501.809H238.29V472.56h29.384Z" transform="translate(84.379 167.331)" fill="#68e1fd"/>
    <path id="Trazado_503" data-name="Trazado 503" d="M252.914,501.809H238.29V472.56h29.384Z" transform="translate(84.379 167.331)" fill="url(#linear-gradient-44)"/>
    <path id="Trazado_504" data-name="Trazado 504" d="M427.114,501.809h14.76V472.56H412.49Z" transform="translate(146.063 167.331)" fill="url(#linear-gradient-41)"/>
    <rect id="Rectángulo_177" data-name="Rectángulo 177" width="18.822" height="142.722" transform="translate(363.698 305.835)" opacity="0.2" fill="url(#linear-gradient-46)"/>
    <rect id="Rectángulo_178" data-name="Rectángulo 178" width="18.822" height="158.294" transform="translate(308.857 450.724)" opacity="0.2" fill="url(#linear-gradient-47)"/>
    <path id="Trazado_505" data-name="Trazado 505" d="M389.892,183.54s-7.177,42.6,23.29,52.079S519.073,239,519.073,239l69.33,82.058,17.2-23.155-62.559-85.85a69.059,69.059,0,0,0-45.362-21.53Z" transform="translate(56.541 63.121)" fill="#3f3d56"/>
    <path id="Trazado_506" data-name="Trazado 506" d="M476.39,287.726l7.177,5.958,9.885-13-5.823-8.125Z" transform="translate(168.69 96.511)" fill="url(#linear-gradient-48)"/>
    <path id="Trazado_507" data-name="Trazado 507" d="M541.7,295.464l9.885-13h8.125s19.5-12.458,30.6-9.072,14.9,7.448,14.9,7.448l-50.1,33.852Z" transform="translate(110.556 94.731)" fill="#68e1fd"/>
    <path id="Trazado_508" data-name="Trazado 508" d="M496.106,300.175l16.385-.135,5.01,6.5s21.8,7.854,25.863,18.551,3.25,16.249,3.25,16.249L489.2,322.518Z" transform="translate(91.966 104.373)" fill="url(#linear-gradient-49)"/>
    <path id="Trazado_509" data-name="Trazado 509" d="M541.7,295.464l9.885-13h8.125s19.5-12.458,30.6-9.072,14.9,7.448,14.9,7.448l-50.1,33.852Z" transform="translate(110.556 94.731)" fill="url(#linear-gradient-50)"/>
    <path id="Trazado_510" data-name="Trazado 510" d="M468.186,229.857H391.815L391,229.45c-2.437-1.354-8.666-6.5-7.989-20.311.542-10.02,9.479-46.716,16.791-75.423,5.146-20.447,9.614-36.967,9.614-36.967S418.9,71.833,434.74,65.334c5.958-2.437,13.541-6.5,21.8-5.01,13.676,2.708,27.759,15.03,29.79,31.686C487.956,105.957,468.186,229.857,468.186,229.857Z" transform="translate(54.348 19.377)" fill="#68e1fd"/>
    <path id="Trazado_511" data-name="Trazado 511" d="M468.186,229.857H391.815L391,229.45c-2.437-1.354-8.666-6.5-7.989-20.311.542-10.02,9.479-46.716,16.791-75.423,5.146-20.447,9.614-36.967,9.614-36.967S418.9,71.833,434.74,65.334c5.958-2.437,13.541-6.5,21.8-5.01,13.676,2.708,27.759,15.03,29.79,31.686C487.956,105.957,468.186,229.857,468.186,229.857Z" transform="translate(54.348 19.377)" fill="url(#linear-gradient-51)"/>
    <path id="Trazado_512" data-name="Trazado 512" d="M418.491,159.992s-17.332,45.769-4.333,60.393L391,221.062c-2.437-1.354-8.666-6.5-7.989-20.311.542-10.02,9.479-46.716,16.791-75.423l30.6-41.787Z" transform="translate(54.348 27.711)" fill="url(#linear-gradient-52)"/>
    <path id="Trazado_513" data-name="Trazado 513" d="M437.2,75.9l8.125-22.343S454.8,17.676,476.6,15.78s40.081,13.947,30.873,39.133-13.812,29.113-22.749,30.738S467.4,83.079,467.4,83.079l-7.854,11.916C459.678,94.995,457.105,101.9,437.2,75.9Z" transform="translate(73.553 3.663)" fill="url(#linear-gradient-53)"/>
    <path id="Trazado_514" data-name="Trazado 514" d="M417.992,84.734s-37.1,53.622-35.071,67.569c2.437,16.385,72.58,18.957,101.287,19.77a16.479,16.479,0,0,0,16.52-11.916v-.135A16.71,16.71,0,0,0,489.489,139.3h0a15.752,15.752,0,0,0-2.437-.542l-48.07-6.5L461.594,89.2c5.823-18.28-15.843-33.175-30.738-21.124a55.031,55.031,0,0,0-12.864,16.655Z" transform="translate(54.304 20.694)" fill="#68e1fd"/>
    <path id="Trazado_515" data-name="Trazado 515" d="M415.61,124.137l-5.958-.677-4.062,22.207h6.635Z" transform="translate(143.619 43.715)" fill="#68e1fd"/>
    <path id="Trazado_516" data-name="Trazado 516" d="M487.893,144.94s-6.364,5.01-3.385,10.427,13.135,5.687,13.135,5.687S505.9,146.294,487.893,144.94Z" transform="translate(90.023 49.453)" fill="url(#linear-gradient-54)"/>
    <path id="Trazado_517" data-name="Trazado 517" d="M415.61,124.137l-5.958-.677-4.062,22.207h6.635Z" transform="translate(143.619 43.715)" fill="url(#linear-gradient-55)"/>
    <path id="Trazado_518" data-name="Trazado 518" d="M463.9,52.915c-1.9-.812-.271-4.062-1.49-5.687s-3.385-.677-4.739.542a10.2,10.2,0,0,0-2.844,10.02,7.705,7.705,0,0,1,.542,3.521c-.677,2.437-3.927,2.708-6.364,2.167s-5.146-1.625-7.177-.271c-1.76-2.979-.542-6.77.813-9.885a103.8,103.8,0,0,1,8.666-16.249,8.938,8.938,0,0,0,1.625-3.656c.271-2.031-.948-3.791-1.625-5.552-3.521-8.531,1.354-18.957,9.479-23.426s18.28-3.656,26.676,0c3.114,1.354,6.094,3.114,9.343,3.791,4.875.948,9.885-.406,14.9-.406a24.523,24.523,0,0,1,19.5,10.833A24.631,24.631,0,0,1,533.231,41c-1.76,4.2-6.093,8.4-10.291,6.906-1.76-.542-3.114-2.031-4.739-2.979s-4.062-1.083-5.146.406a7.507,7.507,0,0,1-.813,1.083c-1.489,1.083-2.708-1.49-3.521-2.979-1.9-3.656-7.041-3.521-11.1-3.385a57.644,57.644,0,0,1-11.781-.948c-2.844-.542-6.635-2.437-9.479-1.625C472.838,38.02,464.307,53.051,463.9,52.915Z" transform="translate(74.882 -1.38)" fill="#3f3d56"/>
    <path id="Trazado_519" data-name="Trazado 519" d="M493.846,111.06l3.521,4.2L417.2,173.078l-3.114-4.469Z" transform="translate(146.629 39.325)" fill="url(#linear-gradient-56)"/>
    <path id="Trazado_520" data-name="Trazado 520" d="M486.8,158.418s1.354,4.469,8.4,2.167,19.634-9.749,20.718-11.645,11.916-13.135,11.239-19.5Z" transform="translate(91.116 43.964)" fill="url(#linear-gradient-57)"/>
  </g>
</svg>
