<svg xmlns="http://www.w3.org/2000/svg" xmlns:xlink="http://www.w3.org/1999/xlink" width="850.163" height="644.58" viewBox="0 0 850.163 644.58">
  <defs>
    <linearGradient id="linear-gradient" x1="0.5" y1="1" x2="0.5" gradientUnits="objectBoundingBox">
      <stop offset="0" stop-color="gray" stop-opacity="0.251"/>
      <stop offset="0.54" stop-color="gray" stop-opacity="0.122"/>
      <stop offset="1" stop-color="gray" stop-opacity="0.102"/>
    </linearGradient>
  </defs>
  <g id="undraw_business_deal_cpi9" transform="translate(0.61 -0.085)">
    <path id="Trazado_101" data-name="Trazado 101" d="M908.149,223.206c-.148.693-.288,1.385-.451,2.07-5.1,23.538-13.446,46.221-25.849,67.051-.412.693-.825,1.385-1.245,2.078a192.684,192.684,0,0,1-29.141,36.782c-6.178,6.1-12.917,11.9-20.932,16.076-11.228,5.867-24.355,8.248-37.257,10.193-13.4,2.031-26.985,3.727-40.533,5.556q-7.221.957-14.357,2.031c-13.088,1.938-26.083,4.179-38.766,7.151a227.27,227.27,0,0,0-45.233,15.22q-1.72.778-3.4,1.65c-1.12.56-2.249,1.128-3.354,1.7s-2.194,1.152-3.276,1.743c-.56.3-1.121.607-1.673.926s-1.1.6-1.634.91c-1.619.9-3.206,1.829-4.793,2.762l-.062.039c-1.05.615-2.085,1.245-3.113,1.875-5.867,3.564-11.61,7.283-17.352,11.026l-3.611,2.334L606.523,416c-1.089.708-2.2,1.416-3.3,2.116-.778.514-1.556,1.027-2.4,1.556-4.077,2.568-8.209,5.089-12.45,7.493-1,.576-2.015,1.152-3.035,1.712a172.46,172.46,0,0,1-26.783,12.077l-.125.047a122.177,122.177,0,0,1-14.224,4.015c-2.778.607-5.564,1.1-8.38,1.486a89.842,89.842,0,0,1-22.721.319c-14.839-1.72-28.744-7.416-43.575-9.337-30.534-3.891-60.188,8.645-88.9,18.465q-10.59,3.618-21.336,6.777c-4.762,1.408-9.54,2.739-14.356,4.023A540.212,540.212,0,0,1,254.9,482.541a253.566,253.566,0,0,1-38.245.848,140.437,140.437,0,0,1-14.349-1.556c-16.107-2.49-31.125-7.711-43.248-17.274-9.929-7.851-17.033-18.084-22.441-28.791a125.639,125.639,0,0,1-11.6-34.658c-.3-1.642-.56-3.292-.778-4.941q-.584-4.233-.871-8.513a121.848,121.848,0,0,1,5.354-45.015c5.136-16.278,13.7-31.9,17.461-48.306q.233-1.043.444-2.078a71.915,71.915,0,0,0,1.144-7.54c1.922-20.154-5.447-39.8-11.228-59.511-.2-.685-.4-1.377-.6-2.07q-.934-3.284-1.79-6.56c-5.354-20.838-6.84-43.147-2.07-63.947.148-.693.327-1.385.5-2.07a93.624,93.624,0,0,1,17.6-36.051c8.933-11.205,20.659-20.535,33.187-28.728q9.159-5.992,18.94-11.2,7-3.735,14.349-7.073A282.58,282.58,0,0,1,344.979,42.805c2.334.1,4.669.226,7,.4s4.887.374,7.33.6c28.526,2.77,56.282,9.454,83.843,16.761,9.236,2.451,18.457,4.964,27.67,7.431,4.1,1.089,8.194,2.179,12.294,3.237,20.084,5.19,40.463,9.89,61.1,13.4q7.167,1.237,14.349,2.257a411.021,411.021,0,0,0,50.182,4.256q9.8.195,19.6-.171,4.949-.179,9.906-.537c34.121-2.4,67.1-10.45,100.129-17.967q7.167-1.634,14.357-3.221c6.287-1.385,12.574-2.723,18.893-3.961C810.953,57.558,846,62,882.556,77.945c8.311,3.618,16.613,7.991,21.7,14.784s6.365,15.135,7.314,23.188c1.346,11.47,2.225,23.087,2.56,34.767,0,.685,0,1.377.047,2.07A312.074,312.074,0,0,1,908.149,223.206Z" transform="translate(-69.403 -37.302)" fill="#6c63ff" opacity="0.1"/>
    <path id="Trazado_102" data-name="Trazado 102" d="M649.9,292.422h-2.568V294.5h2.91Zm-29.125,0a.132.132,0,0,0,0,.054c-.07.568-.148,1.136-.226,1.712v.311h22.255v-.124l1.556-1.953Zm-59.644,0V225.371h25.6c-.272-.179-.552-.366-.84-.537l-.373-.241-.482-.3c-.28-.163-.56-.327-.856-.482s-.475-.265-.724-.4l-.171-.093H561.134v-3.7l-.6.233-.63.3h-.047l-.132.07-.4.21-.4.21c-.389.21-.778.444-1.167.685l-.373.249-.778.5c-1,.669-1.992,1.37-3.011,2.023-.257.163-.513.327-.778.475-.553.327-1.121.638-1.7.918a6.489,6.489,0,0,1-.778.335l-.42.163-.389.132h0a18.228,18.228,0,0,1-2.8.731v65.549H508.346c0,.078.054.14.078.218.21.622.42,1.237.623,1.86h37.739v71.868h.584l.677.039,1.222.07,1.953.233.895.086.973.1h.148l1.72.21.366.047.833.117,1.19.171h0l2.856-.125h0l.389.07a2.706,2.706,0,0,1,.482.078V294.5h59.4v-.311c.078-.576.156-1.144.226-1.712a.132.132,0,0,1,0-.055Zm88.769,0h-2.568V294.5h2.91Zm-30.728,0c-.093.693-.179,1.385-.272,2.078h24.814l1.689-2.078Zm-58.041,0V225.371h25.6c-.272-.179-.552-.366-.84-.537l-.373-.241-.482-.3c-.28-.163-.56-.327-.856-.482s-.475-.265-.724-.4l-.171-.093H561.134v-3.7l-.6.233-.63.3h-.047l-.132.07-.4.21-.4.21c-.389.21-.778.444-1.167.685l-.374.249-.778.5c-1,.669-1.992,1.37-3.011,2.023-.257.163-.514.327-.778.475-.553.327-1.121.638-1.7.918a6.489,6.489,0,0,1-.778.335l-.42.163-.389.132h0a18.225,18.225,0,0,1-2.8.731v65.549H508.346c0,.078.054.14.078.218.21.615.428,1.237.63,1.86h37.731v71.86h.584l.677.039,1.222.07,1.953.241.895.086.973.1h.148l1.72.21.366.047.833.117,1.19.171h0l2.856-.125h0l.389.07a2.706,2.706,0,0,1,.482.078V294.5h57.846c.093-.693.179-1.385.272-2.078ZM755.308,152.795H916.746c0-.693,0-1.385-.047-2.07H755.308V69.317q-7.19,1.556-14.357,3.221v78.186H565.375l-.443-.4.669-.591h0l65.308-58.686q-9.8.374-19.6.171l-50.181,45.085V86.981q-7.19-1.019-14.349-2.257v49.31l-73.37-65.946c-9.213-2.467-18.434-4.98-27.67-7.431l99.779,89.671-.444.4H361.9V43.966q-3.665-.342-7.33-.6c-2.334-.171-4.669-.3-7-.4V150.725H219.225V67.676q-7.268,3.33-14.349,7.073v75.976H135.148c-.171.685-.35,1.377-.5,2.07h70.226V223.3H138.51c.195.693.4,1.385.6,2.07h65.767v67.051H149.193q-.21,1.035-.444,2.078h56.126V481.974c4.669.724,9.5,1.229,14.349,1.556V294.5H347.546V466.878c4.817-1.284,9.594-2.614,14.356-4.023V294.5H546.785V445.106a122.159,122.159,0,0,0,14.224-4.015l.125-.047V294.5H740.952v70.638q7.159-1.05,14.357-2.015V294.5H883.17c.42-.693.832-1.385,1.245-2.078H755.308V225.371H910.264c.163-.685.3-1.377.451-2.07H755.308Zm-536.083,0H347.546V223.3H219.225Zm0,139.627V225.371H347.546v67.051ZM361.9,152.795H546.785V223.3H361.9Zm0,139.627V225.371H546.785v67.051Zm379.049,0H561.134V225.371H740.952Zm0-69.121H561.134V154.686l2.521-1.891h177.3ZM620.778,292.422a.132.132,0,0,0,0,.054c-.07.568-.148,1.136-.226,1.712v.311h22.255v-.124l1.556-1.953Zm29.125,0h-2.568V294.5h2.91Zm-88.769,0V225.371h25.6c-.272-.179-.552-.366-.84-.537l-.373-.241-.482-.3c-.28-.163-.56-.327-.856-.482s-.475-.265-.724-.4l-.171-.093H561.134v-3.7l-.6.233-.63.3h-.047l-.132.07-.4.21-.4.21c-.389.21-.778.444-1.167.685l-.373.249-.778.5c-1,.669-1.992,1.37-3.011,2.023-.257.163-.513.327-.778.475-.553.327-1.121.638-1.7.918a6.489,6.489,0,0,1-.778.335l-.42.163-.389.132h0a18.228,18.228,0,0,1-2.8.731v65.549H508.346c0,.078.054.14.078.218.21.622.42,1.237.623,1.86h37.739v71.868h.584l.677.039,1.222.07,1.953.233.895.086.973.1h.148l1.72.21.366.047.833.117,1.19.171h0l2.856-.125h0l.389.07a2.706,2.706,0,0,1,.482.078V294.5h59.4v-.311c.078-.576.156-1.144.226-1.712a.132.132,0,0,1,0-.055Z" transform="translate(-71.97 -37.397)" fill="#6c63ff" opacity="0.1"/>
    <path id="Trazado_103" data-name="Trazado 103" d="M321.276,120.472h1.113a2.257,2.257,0,0,1-1.362-1.813h0c0-1.432,2.14-2.6,4.754-2.6h33.273c2.615,0,4.747,1.167,4.747,2.6h0c0,1.424-2.132,2.6-4.747,2.6h-1.113a2.233,2.233,0,0,1,1.362,1.805c0,1.222-1.556,2.249-3.634,2.521h9.579c2.607,0,4.747,1.167,4.747,2.6s-2.14,2.6-4.747,2.6H331.968c-2.607,0-4.747-1.175-4.747-2.6,0-1.222,1.556-2.241,3.634-2.521h-9.579c-2.614,0-4.747-1.167-4.747-2.6S318.662,120.472,321.276,120.472Z" transform="translate(-112.324 -53.614)" fill="#6c63ff" opacity="0.1"/>
    <path id="Trazado_104" data-name="Trazado 104" d="M784.717,152.242h1.113a2.256,2.256,0,0,1-1.354-1.813h0c0-1.432,2.132-2.6,4.746-2.6h33.273c2.614,0,4.754,1.167,4.754,2.6h0c0,1.424-2.14,2.591-4.754,2.591H821.39a2.256,2.256,0,0,1,1.354,1.813c0,1.222-1.556,2.249-3.634,2.521h9.579c2.614,0,4.746,1.167,4.746,2.6s-2.132,2.6-4.746,2.6H795.416c-2.614,0-4.754-1.175-4.754-2.6,0-1.222,1.556-2.249,3.634-2.521h-9.579c-2.607,0-4.746-1.167-4.746-2.6S782.11,152.242,784.717,152.242Z" transform="translate(-215.149 -60.663)" fill="#6c63ff" opacity="0.1"/>
    <path id="Trazado_105" data-name="Trazado 105" d="M255.644,288.2h1.1a2.249,2.249,0,0,1-1.354-1.813h0c0-1.424,2.14-2.6,4.747-2.6h33.281c2.607,0,4.747,1.175,4.747,2.6h0c0,1.432-2.14,2.6-4.747,2.6H292.31a2.225,2.225,0,0,1,1.354,1.805c0,1.222-1.556,2.249-3.634,2.521h9.579c2.615,0,4.754,1.175,4.754,2.6s-2.14,2.6-4.754,2.6H266.367c-2.614,0-4.747-1.167-4.747-2.6,0-1.214,1.556-2.241,3.634-2.521h-9.61c-2.615,0-4.754-1.167-4.754-2.6S253.061,288.2,255.644,288.2Z" transform="translate(-97.761 -90.828)" fill="#6c63ff" opacity="0.1"/>
    <ellipse id="Elipse_12" data-name="Elipse 12" cx="50.547" cy="166.34" rx="50.547" ry="166.34" transform="translate(448.328 457.575) rotate(-78.45)" fill="#6c63ff" opacity="0.1"/>
    <path id="Trazado_106" data-name="Trazado 106" d="M828.56,409.279s8.847-43.427,42.626-39.4c0,0,23.344,1.6,28.145,16.885v33.779Z" transform="translate(-225.93 -109.87)" fill="#3a3768"/>
    <path id="Trazado_107" data-name="Trazado 107" d="M915.4,398.449,614.6,373.51,576,381.556l2.412,53.885,2.63.319,3,80.917,295.167,53.076,31.374-26.542V455.494l4.015-2.358Z" transform="translate(-127.789 -82.948)" fill="#d48a9b"/>
    <path id="Trazado_108" data-name="Trazado 108" d="M1003.066,405.56l-.809,54.687-32.572,15.282-.4-57.107Z" transform="translate(-215.047 -90.059)" opacity="0.05"/>
    <path id="Trazado_109" data-name="Trazado 109" d="M997.149,478.94l.4,86.061L966.18,591.543,968.2,491.81Z" transform="translate(-214.359 -106.34)" opacity="0.05"/>
    <path id="Trazado_110" data-name="Trazado 110" d="M582.936,456.869l300.42,36.658.156-6.956-300.8-32.44Z" transform="translate(-129.278 -100.835)" opacity="0.05"/>
    <path id="Trazado_111" data-name="Trazado 111" d="M997.493,482.1V478.94L967.73,492.075v6.972Z" transform="translate(-214.703 -106.34)" opacity="0.05"/>
    <path id="Trazado_112" data-name="Trazado 112" d="M575.48,381.556l38.6-8.046,300.8,24.939-33.778,12.862Z" transform="translate(-127.674 -82.948)" fill="#efc6cd"/>
    <path id="Trazado_113" data-name="Trazado 113" d="M964.161,407.55l14.761.965-24.464,7.322L942,414.942Z" transform="translate(-208.994 -90.5)" opacity="0.1"/>
    <path id="Trazado_114" data-name="Trazado 114" d="M964.161,406.72l14.761.965-24.464,7.33-12.458-.9Z" transform="translate(-208.994 -90.316)" fill="#fff"/>
    <path id="Trazado_115" data-name="Trazado 115" d="M1022.32,444.54c.584-.249,1.2.226,1.821.342.358.07.724,0,1.082.07.724.093,1.44.576,2.132.335" transform="translate(-268.92 -126.478)" fill="#d3dae1"/>
    <path id="Trazado_116" data-name="Trazado 116" d="M1021.34,445.109c.576-.249,1.2.218,1.821.342.358.062.724,0,1.082.062.724.1,1.439.584,2.132.342" transform="translate(-268.702 -126.605)" fill="#d3dae1"/>
    <path id="Trazado_117" data-name="Trazado 117" d="M1019.08,446.249c.583-.249,1.206.218,1.829.335.35.07.724,0,1.074.07.731.1,1.447.584,2.132.335" transform="translate(-268.201 -126.858)" fill="#d3dae1"/>
    <path id="Trazado_118" data-name="Trazado 118" d="M882.161,398.21l14.761.973L872.458,406.5,860,405.6Z" transform="translate(-190.801 -88.428)" opacity="0.1"/>
    <path id="Trazado_119" data-name="Trazado 119" d="M882.161,397.39l14.761.965-24.464,7.322L860,404.782Z" transform="translate(-190.801 -88.246)" fill="#fff"/>
    <path id="Trazado_120" data-name="Trazado 120" d="M940.32,435.209c.584-.249,1.2.218,1.821.342.358.062.724,0,1.082.062.724.1,1.44.584,2.132.342" transform="translate(-250.726 -124.408)" fill="#d3dae1"/>
    <path id="Trazado_121" data-name="Trazado 121" d="M939.34,435.779c.576-.249,1.2.218,1.821.335.358.07.724,0,1.082.07.724.1,1.44.584,2.132.335" transform="translate(-250.509 -124.535)" fill="#d3dae1"/>
    <path id="Trazado_122" data-name="Trazado 122" d="M937.08,436.91c.583-.249,1.206.226,1.829.342.35.07.724,0,1.074.07.732.093,1.447.584,2.132.335" transform="translate(-250.007 -124.786)" fill="#d3dae1"/>
    <path id="Trazado_123" data-name="Trazado 123" d="M921.491,402.88l14.769.965-24.464,7.33-12.466-.9Z" transform="translate(-199.527 -89.464)" opacity="0.1"/>
    <path id="Trazado_124" data-name="Trazado 124" d="M921.491,402.06l14.769.965L911.8,410.347l-12.466-.9Z" transform="translate(-199.527 -89.282)" fill="#fff"/>
    <path id="Trazado_125" data-name="Trazado 125" d="M979.65,439.879c.584-.249,1.206.218,1.829.335.35.07.716,0,1.074.07.724.093,1.447.584,2.132.335" transform="translate(-259.452 -125.444)" fill="#d3dae1"/>
    <path id="Trazado_126" data-name="Trazado 126" d="M978.67,440.44c.584-.249,1.206.226,1.829.342.35.07.716,0,1.074.07.724.093,1.447.584,2.132.335" transform="translate(-259.235 -125.569)" fill="#d3dae1"/>
    <path id="Trazado_127" data-name="Trazado 127" d="M976.42,441.579c.576-.249,1.2.218,1.821.342.358.062.724,0,1.082.062.724.1,1.44.584,2.132.342" transform="translate(-258.736 -125.822)" fill="#d3dae1"/>
    <ellipse id="Elipse_13" data-name="Elipse 13" cx="157.555" cy="32.432" rx="157.555" ry="32.432" transform="translate(230.211 550.854)" fill="#6c63ff" opacity="0.1"/>
    <path id="Trazado_128" data-name="Trazado 128" d="M688.408,395.719c-1.681-14.769-8.334-28.861-8.334-28.861l.506-4.98s.109-2.49-.055-6.225a28.315,28.315,0,0,1,.91-6.91c1.362-4.319-1.7-9.625-2.047-10.116s.171-9.96-2.895-14.605-23.484-13.283-23.484-13.283-1.1-2.3-2.646-4.98l.14-.272a29.258,29.258,0,0,0-4.669-6.3c-1.253-1.338-2.459-2.1-3.431-1.727a27.986,27.986,0,0,1-.9-3.945c.2.054.412.109.615.148a6.349,6.349,0,0,0,2.568.062c1.9-.428,3.159-2.132,4.217-3.735,5.276-8.015,9.82-16.808,10.746-26.293a16.718,16.718,0,0,0-.272-5.8,19.584,19.584,0,0,0-1.821-4.241,34.078,34.078,0,0,0-5.136-7.571c-3.634-3.828-8.645-6.171-13.8-7.556A47.761,47.761,0,0,0,620.8,237.2c-1.556.179-3.113.436-4.669.537a48.482,48.482,0,0,1-5.922-.1l-10.186-.591-.047-.156-1.7-.1c-.669,1.331,0,2.91.833,4.155s1.79,2.544,1.72,4.015-1.136,2.653-1.969,3.891-1.463,2.856-.63,4.07a2.326,2.326,0,0,0,.412.451c.879.91,2.412,1.012,3.743,1h.233a25.344,25.344,0,0,0-5.159,15.345,25.8,25.8,0,0,0,14.076,22.861c.148.506.3,1.027.436,1.556a47.667,47.667,0,0,1,1.634,16.823l-.179.389-.109-.412s-12,8.139-15.562,10.295-7.143,9.462-7.314,11.454-5.789,32.036-5.789,32.036a73.6,73.6,0,0,0-2.817,9.275l-7.167,6.3s-14.784,1.331-19.064.335l.124.825a64.653,64.653,0,0,0-11.485-1.556,12.178,12.178,0,0,0-6.225.833l-.148.07-.117.054a24.668,24.668,0,0,0-6.536,1.836c-.249.1-.475.2-.692.3l.047-1.019-16-.825-8.17-1.657s-2.895-2.334-4.6-1.992-5.276-1.992-5.276-1.992a14.258,14.258,0,0,0-2.63-1.634c-.272-1.883-.443-3.027-.443-3.027s-6.357-25.227-11.12-40.058c-3.19-9.906-7.781-14.784-10.489-16.909-1.206-2.1-2-3.455-2-3.455-.521-1.821-3.385-5.922-4.116-6.023-.117-.187-.2-.28-.249-.28a.911.911,0,0,0-.459.07c-1.338-6.661-2.117-15.01-.07-22.286a24.6,24.6,0,0,0,8.98-18.955v-.661a24.487,24.487,0,0,0-5.781-15.8l-.265-.3a2.057,2.057,0,0,0,.2-.163,4.171,4.171,0,0,0,1.471-4.015c-.35-1.494-1.517-2.669-2.117-4.085a26.462,26.462,0,0,1-.864-3.33,10.27,10.27,0,0,0-2.451-4.272l.117.311a14.787,14.787,0,0,0-13.018-4.373c-3.509.56-6.777,2.194-10.3,2.7-2.529.358-5.1.125-7.649.381A19.851,19.851,0,0,0,426.5,231.3a3.891,3.891,0,0,0-1.44,1.058,5.7,5.7,0,0,0-.716,2c-.864,3.151-3.6,5.4-5.587,8.03a18.792,18.792,0,0,0-3.766,10.38,8.124,8.124,0,0,0,.272,2.84c.171.552.436,1.074.56,1.634.389,1.712-.506,3.416-.942,5.112a9.953,9.953,0,0,0,.552,6.49c3.074,6.879,13.166,9.174,15.267,16.4a20.084,20.084,0,0,0,5.05,1.556c.14.716.265,1.44.366,2.171a.582.582,0,0,0-.132.078c-2.724,2.653-3.4,7.781-3.4,7.781l-.327.265c-1.113.918-4.918,4-8.357,6.373-4.085,2.825-10.894,12.287-15.656,15.111s-8.684,20.231-7.657,26.557,5.276,24.068,3.572,30.542,2.552,36.019,2.552,36.019a43.5,43.5,0,0,1,8.342,2.474l-.086,1.292-.257,3.891s-7.711,27.888-4.762,49.357-1.362,23.678-1.362,23.678.9,9.516-1.362,12.839-2.723,10.621-2.723,10.621-.226,16.38.226,21.009.677,13.065-.91,15.057-4.537,15.041-4.311,19.025-5.673,13.065-2.5,24.791-9.338,11.952-9.338,11.952,1.6,17.9,5,23.017l.5.731c-.086.3-.171.607-.265.942-1.284,4.669-3.042,12.038-1.821,13.82,1.813,2.661,2.723,2.21,2.723,2.21l.677,11.952s13.617,11.509,24.06,11.073,8.4-11.073,8.4-11.073l-8.894-23.064-.3-.778,9.882-18.675s2.723-8.186,3.4-11.065,4.373-13.08,4.373-13.08,9.338-22.13,9.532-24.791.91-17.033,2.723-19.92,6.809-19.453,6.809-19.453l.124.109a6.56,6.56,0,0,1,1.7,6.528c-1.144,4.2-.459,12.831-.459,12.831a87.3,87.3,0,0,1-1.362,11.073c-.91,3.766-1.128,34.526.459,41.824,1.268,5.844,1.229,16.784,1.167,20.924-1.066,4.4-2,9.859-.265,10.5,2.957,1.113,17.936.887,17.936.887s6.349-2.218,14.979,5.532,35.171-2.21,35.171-2.21,8.17-2.218-7.945-8.63c-11.244-4.474-18.5-7.454-23.25-10.645.109-.21.226-.42.327-.646,0,0-6.583-6.225-1.136-17.259a48.061,48.061,0,0,0,5.221-20.364l.91-37.187-2.723-49.365L493.2,441.629l.373-.125c.358,9.524,2.218,32.2,11.952,27.8,12.255-5.532,1.813-19.92,1.813-19.92l-5.5-10.723,1.642-.56-6.155-19.889a44.858,44.858,0,0,1-.234-11.726,46.437,46.437,0,0,0-.14-6.847c8.061-1.408,15.78-2.9,17.165-2.56,1.634.4,10.777.475,14.372.49-1.175.918-2.116,1.829-2.116,1.829l14.636,9.851s4.964-2.716,6-5.595a6.458,6.458,0,0,0,2.739-1.463c.156,3.4,1.058,7.081,4.2,7.167a5.448,5.448,0,0,0,2.288-.451l23.935-4.739L578.117,417l1.432,2.544c-.724,10.824-1.556,22.317-2.288,32.425l-.335,2.21.171.039c-1.136,15.563-2.046,27.351-2.046,27.351a14.34,14.34,0,0,1,5.968-6l.156,23.095s1.2,36.518,1.2,41.5.163,16.1.163,16.1,2.56,13.61,4.085,18.091,2.723,24.9,2.723,24.9,3.579,5.641,2.046,7.781,5.96,6.8,5.96,6.8-4.77,6.474-5.112,10.793c-.039.5.451,1.027,1.338,1.556-.28.226-.568.451-.887.669-2.21,1.478-5.447,2.505-10.318,2.085-13.283-1.167-22.643,11.119-14.473,13.609s32.681,2.988,32.681,2.988,7.423-4.63,13.228-2.545c-.086,4.871.156,9.338.194,9.929l-.07.054c-3.471,3.113-10.116,8.466-16.605,10.653-9.337,3.151-11.407,15.936.677,17.594s29.787-1.992,29.787-1.992,9.19-6.8,16.17-8.295,12.94-4.817,11.75-8.8c-.778-2.545-2.778-9.213-4.132-13.7q-.117-.4-.233-.778c.21-.467.42-.949.615-1.447,0,0-3.572-18.59-.677-23.235s1.362-51.131,1.362-51.131-4.941-11.781-2.381-18.916-4.085-17.267-4.085-17.267.724-20.3,2.669-31.615q.132-.724.257-1.4a63.752,63.752,0,0,0,9.493-3.665s1.7-25.569,2.723-31.374c.1-.545.241-1.424.412-2.568l.778-4.1h0l.918-4.669h0l3.113-15.913,5.618-7.268,14.473-14.784S690.113,410.5,688.408,395.719Zm-223.2-91.3-.109.078a1.358,1.358,0,0,1-.039-.171A.707.707,0,0,0,465.21,304.422Zm143,18.123-.56,1.222,2.047-2.039-2.778,3.112.934-1.961ZM594.387,351.1c-.537,1.424-1.113,2.965-1.712,4.568l1.1-3.276Z" transform="translate(-128.108 -78.024)" fill="url(#linear-gradient)"/>
    <path id="Trazado_129" data-name="Trazado 129" d="M595.853,445.184s-1.906,12.691,3.813,12.855,9.54-9.789,9.54-9.789l-2.334-7.96Z" transform="translate(-174.231 -125.551)" fill="#585b8a"/>
    <path id="Trazado_130" data-name="Trazado 130" d="M595.853,445.184s-1.906,12.691,3.813,12.855,9.54-9.789,9.54-9.789l-2.334-7.96Z" transform="translate(-174.231 -125.551)" opacity="0.2"/>
    <path id="Trazado_131" data-name="Trazado 131" d="M423.563,787.384c-10.178.444-23.453-11.057-23.453-11.057l-.661-11.944s-.879.443-2.653-2.21c-1.191-1.782.521-9.166,1.774-13.812.607-2.272,1.1-3.891,1.1-3.891l22.332,5.976,1.066,2.825,8.668,23.048S433.733,786.94,423.563,787.384Z" transform="translate(-130.044 -193.041)" fill="#636992"/>
    <path id="Trazado_132" data-name="Trazado 132" d="M544,748.9s-25.873,9.952-34.238,2.21-14.6-5.532-14.6-5.532-14.6.226-17.477-.887c-1.7-.646-.778-6.178.28-10.583.716-3.042,1.494-5.556,1.494-5.556s25.429-8.629,29.413-3.323a19.078,19.078,0,0,0,4.241,4.046c4.607,3.33,11.8,6.349,23.188,10.995C551.965,746.681,544,748.9,544,748.9Z" transform="translate(-147.874 -188.389)" fill="#636992"/>
    <path id="Trazado_133" data-name="Trazado 133" d="M531.512,496.35l7.073,14.154s10.178,14.38-1.766,19.9S525.1,498.568,525.1,498.568Z" transform="translate(-158.6 -137.99)" fill="#ffd6d6"/>
    <path id="Trazado_134" data-name="Trazado 134" d="M495.25,338.61s7.742,3.54,12.388,18.356S518.477,397,518.477,397s4.2,28.526,3.533,35.607a45.907,45.907,0,0,0,.226,11.719l5.968,19.9-11.944,4.2L497.9,398.106Z" transform="translate(-151.978 -102.991)" fill="#dce6f2"/>
    <path id="Trazado_135" data-name="Trazado 135" d="M495.25,338.61s7.742,3.54,12.388,18.356S518.477,397,518.477,397s4.2,28.526,3.533,35.607a45.907,45.907,0,0,0,.226,11.719l5.968,19.9-11.944,4.2L497.9,398.106Z" transform="translate(-151.978 -102.991)" opacity="0.05"/>
    <path id="Trazado_136" data-name="Trazado 136" d="M422.621,750.458l1.066,2.825-1.307,2.5c-5.089,2.21-17.695.443-17.695.443s-2.334-2.965-5.525-7.844c.607-2.272,1.1-3.891,1.1-3.891Z" transform="translate(-130.658 -193.045)" opacity="0.1"/>
    <path id="Trazado_137" data-name="Trazado 137" d="M514.257,730.317c-6.451,14.613-28.378,9.19-34.471,7.361-1-.3-1.556-.506-1.556-.506s.039-1.191.054-3.066c.716-3.042,1.494-5.556,1.494-5.556s25.429-8.629,29.413-3.323a19.072,19.072,0,0,0,4.241,4.046,7.5,7.5,0,0,0,.825,1.043Z" transform="translate(-148.201 -188.388)" opacity="0.1"/>
    <path id="Trazado_138" data-name="Trazado 138" d="M494.15,653.46c-5.307,11.05,1.113,17.251,1.113,17.251-6.451,14.605-28.378,9.19-34.471,7.353-1-.3-1.556-.5-1.556-.5s.444-15.267-1.1-22.566-1.331-38.035-.444-41.793a88.975,88.975,0,0,0,1.323-11.065s-.661-8.622.444-12.823a6.622,6.622,0,0,0-1.65-6.521l-.117-.117s-4.863,16.59-6.638,19.453-2.428,17.251-2.653,19.9-9.291,24.776-9.291,24.776-3.533,10.17-4.194,13.041-3.323,11.065-3.323,11.065L420.928,691.5c-5.089,2.21-17.695.443-17.695.443s-2.428-3.112-5.75-8.186-4.863-22.994-4.863-22.994,12.162-.226,9.065-11.944,2.653-20.792,2.436-24.776,2.653-17.025,4.2-19.017,1.323-10.4.879-15.041-.218-21.01-.218-21.01.444-7.3,2.653-10.614,1.331-12.831,1.331-12.831,4.194-2.21,1.323-23.663,4.669-49.318,4.669-49.318l.257-3.891.4-6.3s63.254-3.984,68.343.879a16.777,16.777,0,0,1,3.229,4.63,46.062,46.062,0,0,1,3.657,11.773l2.654,67.013,2.653,49.318-.887,37.156A49.394,49.394,0,0,1,494.15,653.46Z" transform="translate(-129.207 -130.105)" fill="#565988"/>
    <path id="Trazado_139" data-name="Trazado 139" d="M493.752,538.42l-6.637,143.751-7.968,13.1c-1-.3-1.556-.5-1.556-.5s.444-15.267-1.1-22.566-1.331-38.035-.444-41.793a88.981,88.981,0,0,0,1.323-11.065s-.661-8.622.444-12.824a6.622,6.622,0,0,0-1.65-6.521l.109-.778Z" transform="translate(-147.562 -147.324)" opacity="0.1"/>
    <path id="Trazado_140" data-name="Trazado 140" d="M407.016,735.356s17.251-6.855,19.9-4.669-20.34,5.525-20.34,5.525Z" transform="translate(-132.304 -189.887)" opacity="0.1"/>
    <path id="Trazado_141" data-name="Trazado 141" d="M512,713.5c-.661.226-17.469,6.225-15.921,12.606S512,713.5,512,713.5Z" transform="translate(-152.14 -186.169)" opacity="0.1"/>
    <path id="Trazado_142" data-name="Trazado 142" d="M449.07,290.676s5.634,13.6,2.653,20.574S483.9,330.159,483.9,330.159s-10.279-26.542-.327-41.474S449.07,290.676,449.07,290.676Z" transform="translate(-141.731 -90.548)" fill="#ffd6d6"/>
    <path id="Trazado_143" data-name="Trazado 143" d="M698.508,791.378c-6.8,1.494-15.757,8.295-15.757,8.295s-17.251,3.649-29.032,1.992-9.781-14.434-.661-17.586c6.326-2.179,12.808-7.556,16.193-10.637,1.494-1.377,2.381-2.334,2.381-2.334l33.016-6.638s.537,1.844,1.284,4.389c1.323,4.49,3.276,11.151,4.023,13.687C711.113,786.569,705.308,789.884,698.508,791.378Z" transform="translate(-185.323 -197.478)" fill="#505484"/>
    <path id="Trazado_144" data-name="Trazado 144" d="M683.16,759.071s-13.936,1.494-19.741-1.821-14.1,1.992-14.1,1.992-23.889-.5-31.849-2.988,1.159-14.784,14.1-13.6c4.715.428,7.906-.607,10.061-2.085A10.6,10.6,0,0,0,646.012,734l28.013,1.657,3.891,9.929Z" transform="translate(-178.434 -190.717)" fill="#505484"/>
    <path id="Trazado_145" data-name="Trazado 145" d="M686.082,750.115s-32.557-5.322-36.712-9.548A10.6,10.6,0,0,0,653.751,734l28.013,1.657,3.891,9.929Z" transform="translate(-186.172 -190.717)" opacity="0.1"/>
    <path id="Trazado_146" data-name="Trazado 146" d="M634.52,514.715l.335,48.594s1.159,36.494,1.159,41.474.163,16.084.163,16.084,2.49,13.6,3.984,18.084,2.653,24.9,2.653,24.9,3.486,5.642,1.992,7.781,5.8,6.8,5.8,6.8-4.669,6.474-4.972,10.785,37.148,10.435,37.148,10.435L668.2,550.042,656.58,512.56Z" transform="translate(-182.878 -141.586)" fill="#575988"/>
    <path id="Trazado_147" data-name="Trazado 147" d="M634.52,514.715l.335,48.594s1.159,36.494,1.159,41.474.163,16.084.163,16.084,2.49,13.6,3.984,18.084,2.653,24.9,2.653,24.9,3.486,5.642,1.992,7.781,5.8,6.8,5.8,6.8-4.669,6.474-4.972,10.785,37.148,10.435,37.148,10.435L668.2,550.042,656.58,512.56Z" transform="translate(-182.878 -141.586)" opacity="0.1"/>
    <path id="Trazado_148" data-name="Trazado 148" d="M712.691,768.9c-10.839,25.842-36.619,5.9-36.619,5.9s0-.5-.062-1.354c1.494-1.377,2.381-2.334,2.381-2.334l33.016-6.638S711.944,766.353,712.691,768.9Z" transform="translate(-192.083 -197.478)" opacity="0.1"/>
    <path id="Trazado_149" data-name="Trazado 149" d="M705.794,709.219c-10.621,27.234-36.992,6.8-36.992,6.8s-.833-14.1.833-20.566-1.828-25.881-1.828-25.881-1.992-17.251-3.813-21.227-1.657-11.944-1.657-12.606.661-5.976-.833-9.625-2.334-12.606-2.334-12.606,0-12.606-1.494-20.068l-5.144-25.678-9.291-52.586,2.9-.5,52-9.12s9.789,49.8,6.466,54.9c-.716,1.12-1.346,3.572-1.868,6.731-1.9,11.3-2.607,31.584-2.607,31.584s6.466,10.116,3.984,17.251,2.334,18.908,2.334,18.908,1.494,46.447-1.331,51.092S705.794,709.219,705.794,709.219Z" transform="translate(-184.812 -140.033)" fill="#575988"/>
    <path id="Trazado_150" data-name="Trazado 150" d="M706.185,321.5s-47.108,33.172-36.494,16.582c5.719-8.933,4.669-20.309,2.428-28.9a68.2,68.2,0,0,0-4.669-12.676s40.027-17.025,34.72-1.766a28.591,28.591,0,0,0-1.556,11.081A29.569,29.569,0,0,0,706.185,321.5Z" transform="translate(-190.184 -91.848)" fill="#d28690"/>
    <path id="Trazado_151" data-name="Trazado 151" d="M601.281,427.832s-19.9-5.75-23.219-.109,1,18.021,7,20.014,19.8-6.746,19.8-6.746Z" transform="translate(-170.096 -122.213)" fill="#d28690"/>
    <path id="Trazado_152" data-name="Trazado 152" d="M629.374,416l-8.295,7.633s-14.434,1.323-18.582.327c0,0,3.821,25.546-1.657,28.7l33.506-6.8Z" transform="translate(-175.405 -120.162)" fill="#585b8a"/>
    <path id="Trazado_153" data-name="Trazado 153" d="M629.374,416l-8.295,7.633s-14.434,1.323-18.582.327c0,0,3.821,25.546-1.657,28.7l33.506-6.8Z" transform="translate(-175.405 -120.162)" opacity="0.1"/>
    <path id="Trazado_154" data-name="Trazado 154" d="M486.445,267.71a24.9,24.9,0,0,1-24.9,24.9c-12.777-6.139-24.9-11.135-24.9-24.9a24.9,24.9,0,1,1,49.761,0Z" transform="translate(-138.97 -81.518)" opacity="0.1"/>
    <path id="Trazado_155" data-name="Trazado 155" d="M486.476,267.147a24.853,24.853,0,1,1-5.634-15.742A24.853,24.853,0,0,1,486.476,267.147Z" transform="translate(-139.001 -81.625)" fill="#ffd6d6"/>
    <path id="Trazado_156" data-name="Trazado 156" d="M498.781,467.891a56.281,56.281,0,0,1-7.711,4s-12.606-1.829-14.427.327-17.9,2.988-17.9,2.988-24.55-1.159-28.2-4.311a14.941,14.941,0,0,0-3.727-2.21l.4-6.3s63.254-3.984,68.343.879A16.774,16.774,0,0,1,498.781,467.891Z" transform="translate(-136.795 -130.112)" opacity="0.1"/>
    <path id="Trazado_157" data-name="Trazado 157" d="M497.811,429.57c-.5,2.817-10.785,7.128-10.785,7.128s-12.606-1.821-14.427.335-17.9,2.988-17.9,2.988-24.55-1.167-28.2-4.319-11.781-4.669-11.781-4.669-4.147-29.522-2.482-35.988-2.49-24.223-3.486-30.526,2.817-23.717,7.462-26.534,11.283-12.279,15.259-15.1c3.354-2.373,7.058-5.447,8.139-6.373l.319-.265s.669-5.143,3.323-7.781,27.032,16.753,27.032,16.753.171,1.494,1.829-1.323c.373-.63,3.587,4.007,4.147,5.968,0,0,13.267,23.227,14.1,28.013s4.311,20.4,4.972,24.215c.171.98.451,4.42.778,9.026.062.9.117,1.86.187,2.856.49,7.641,1.019,17.4,1.338,24.776,0,.84.07,1.65.093,2.428A82.617,82.617,0,0,1,497.811,429.57Z" transform="translate(-132.751 -96.249)" fill="#dce6f2"/>
    <path id="Trazado_158" data-name="Trazado 158" d="M415,387.21s9.12,11.112,12.108,11.112S415,387.21,415,387.21Z" transform="translate(-134.172 -113.774)" opacity="0.1"/>
    <path id="Trazado_159" data-name="Trazado 159" d="M435.948,417.91s-14.932,16.255-12.94,19.243S435.948,417.91,435.948,417.91Z" transform="translate(-135.908 -120.586)" opacity="0.1"/>
    <path id="Trazado_160" data-name="Trazado 160" d="M425.62,452.291s17.119-18.745,17.9-25.211Z" transform="translate(-136.529 -122.62)" opacity="0.1"/>
    <path id="Trazado_161" data-name="Trazado 161" d="M453.33,455.384s19.741-10.45,21.4-18.745S453.33,455.384,453.33,455.384Z" transform="translate(-142.677 -124.39)" opacity="0.1"/>
    <path id="Trazado_162" data-name="Trazado 162" d="M484.739,330.963,482,337.593l4.56,2.155,4.482,12.528S503.4,376.989,502.9,389.844s2.241,32.175,2.241,32.175l7.128-1.323-3.362-37.809a54.537,54.537,0,0,0-4.342-16.971c-5.7-13.041-16.294-37.117-16.963-37.117-.91,0-.272.335-.272.335Z" transform="translate(-149.038 -100.815)" opacity="0.1"/>
    <path id="Trazado_163" data-name="Trazado 163" d="M485.589,330.105l-2.739,6.637,4.568,2.155,4.474,12.528s12.357,24.713,11.859,37.568,2.241,32.176,2.241,32.176l7.135-1.323-3.369-37.809a54.328,54.328,0,0,0-4.334-16.971c-5.7-13.049-16.294-37.117-16.955-37.117-.918,0-.28.335-.28.335Z" transform="translate(-149.226 -100.626)" fill="#575989"/>
    <path id="Trazado_164" data-name="Trazado 164" d="M585.474,449.415c-3.47-.265-11.8-4.474-15.1-6.225l-1.4-.778.171-12.847a22.579,22.579,0,0,1,2.537-1.284c4.42-1.93,13.485-4.552,18.029,3.891C595.839,443.494,589.87,449.711,585.474,449.415Z" transform="translate(-168.334 -122.452)" fill="#ffd6d6"/>
    <path id="Trazado_165" data-name="Trazado 165" d="M480.8,251.382a3.682,3.682,0,0,1-1.159.475c-2.887.63-6.171-1.852-8.645-.257-1.51.98-1.86,3.011-2.062,4.8q-.529,4.669-1.058,9.275a11.448,11.448,0,0,1-.685,3.2c-1.222,2.793-4.575,4.108-7.633,4.062a4.552,4.552,0,0,1-3.291-1.089c-.537-.545-.825-1.307-1.416-1.805-3.891-3.26-5.073,4.731-4.046,7,1.65,3.712,7.509,7.291,5.05,12.006a4.5,4.5,0,0,1-1.805,1.813A24.9,24.9,0,1,1,480.8,251.382Z" transform="translate(-138.963 -81.601)" opacity="0.1"/>
    <path id="Trazado_166" data-name="Trazado 166" d="M451.908,266.8c.584.49.879,1.253,1.416,1.8a4.56,4.56,0,0,0,3.291,1.089c3.058.047,6.412-1.261,7.626-4.07a11.079,11.079,0,0,0,.693-3.19l1.058-9.275c.2-1.79.545-3.821,2.062-4.8,2.475-1.556,5.758.887,8.645.257a4.225,4.225,0,0,0,3.113-4.871c-.335-1.486-1.471-2.661-2.054-4.077a26.641,26.641,0,0,1-.848-3.323c-1.611-6.038-8.7-9.431-14.862-8.419-3.424.568-6.606,2.2-10.038,2.7-2.459.358-4.972.124-7.454.389a18.815,18.815,0,0,0-6.614,1.953,3.844,3.844,0,0,0-1.4,1.058,5.842,5.842,0,0,0-.7,1.992c-.833,3.113-3.509,5.408-5.447,8.03A19.134,19.134,0,0,0,426.7,254.4a8.3,8.3,0,0,0,.265,2.84c.163.545.42,1.074.545,1.634.381,1.7-.49,3.408-.918,5.1a10.209,10.209,0,0,0,.545,6.49c2.988,6.871,12.831,9.166,14.878,16.38a16.34,16.34,0,0,0,5.789,1.556,5.584,5.584,0,0,0,5.1-2.607c2.451-4.669-3.4-8.295-5.05-12C446.827,271.518,447.987,263.534,451.908,266.8Z" transform="translate(-136.68 -78.393)" fill="#353045"/>
    <path id="Trazado_167" data-name="Trazado 167" d="M702.218,294.739a28.592,28.592,0,0,0-1.556,11.081c-1.2,1.019-2.505-2.031-3.89-1.245-3.8,2.194-8.186,7.415-12.886,7.415a25.809,25.809,0,0,1-11.726-2.809,68.2,68.2,0,0,0-4.669-12.676S707.525,279.48,702.218,294.739Z" transform="translate(-190.193 -91.848)" opacity="0.1"/>
    <path id="Trazado_168" data-name="Trazado 168" d="M707.021,276.381a25.88,25.88,0,1,1-25.88-25.881A25.88,25.88,0,0,1,707.021,276.381Z" transform="translate(-187.479 -83.442)" fill="#d28690"/>
    <path id="Trazado_169" data-name="Trazado 169" d="M702.133,334.168s-4.871,5.307-5.533,5.743-14.784,59.916-15.033,60.608-16.815,54.4-16.815,54.4L638.21,467.967l2.218-65.69L659.881,348.1s6.42-7.3,8.4-9.952,26.76-18.582,26.76-18.582l4.233,8.723Z" transform="translate(-183.696 -98.767)" fill="#f0f3f7"/>
    <path id="Trazado_170" data-name="Trazado 170" d="M707.008,330l-30.518,21.85-.49-12c1.992-2.653,26.76-18.574,26.76-18.574Z" transform="translate(-192.081 -99.146)" opacity="0.1"/>
    <path id="Trazado_171" data-name="Trazado 171" d="M707.863,328.293l-30.518,21.85-.475-11.991c1.992-2.661,26.76-18.582,26.76-18.582Z" transform="translate(-192.274 -98.767)" fill="#f0f3f7"/>
    <path id="Trazado_172" data-name="Trazado 172" d="M664.841,336.59l1.019,5.338-6.824,6.933,5.447-12.193s-11.672,8.131-15.173,10.287-7,9.454-7.135,11.446-5.641,32.012-5.641,32.012-4.148,11.112-2.98,14.263-6.3,102.511-6.3,102.511a14.784,14.784,0,0,1,9.976-7.649l-2.661-58.718s3.237-39.062,3.4-39.56,7.548-23.142,7.548-23.142Z" transform="translate(-181.265 -102.543)" fill="#585b8a"/>
    <path id="Trazado_173" data-name="Trazado 173" d="M667.584,344.3l-.529,10.894s-7.384,23.3-9.867,27.118-10.038,26.542-10.038,26.542l-4.256,39.482-7.3,3.323L632,445.036l5.976-38.128s11.275-32.176,12.94-35.5l8.318-17.523Z" transform="translate(-182.319 -104.254)" opacity="0.1"/>
    <path id="Trazado_174" data-name="Trazado 174" d="M666.717,343.45l-.521,10.894s-7.384,23.3-9.875,27.118S646.291,408,646.291,408l-4.233,39.474-7.3,3.315-3.649-6.63,5.976-38.128s11.275-32.183,12.932-35.5l8.38-17.5Z" transform="translate(-182.121 -104.065)" fill="#663d5c"/>
    <path id="Trazado_175" data-name="Trazado 175" d="M566.31,449.278l14.263,9.874s10.061-5.641,4.2-9.291a25.98,25.98,0,0,0-12.94-4.2C569.952,445.66,566.31,449.278,566.31,449.278Z" transform="translate(-167.744 -126.743)" fill="#d28690"/>
    <path id="Trazado_176" data-name="Trazado 176" d="M579.7,426.476a2.194,2.194,0,0,0-1.035,1.875c0,3.027.342,11.042,2.879,7.423,3.113-4.428,2.545-8.4,7.3-5.532a28.014,28.014,0,0,1,7.626,7l-1.323-9.509S585.377,422.912,579.7,426.476Z" transform="translate(-170.486 -122.195)" fill="#d28690"/>
    <path id="Trazado_177" data-name="Trazado 177" d="M705.341,560.425c-.716,1.12-1.346,3.572-1.868,6.731-29.086,8.723-50.368-9.719-50.368-9.719a253.88,253.88,0,0,1-6.3-26.534c-.521-3.066-.4-9.011.078-16.263l52-9.12S708.664,555.281,705.341,560.425Z" transform="translate(-185.527 -140.024)" opacity="0.1"/>
    <path id="Trazado_178" data-name="Trazado 178" d="M735.186,370.646c-1.323,4.319-.825,13.1-.825,13.1l-11.944,56.4s-5.8,43.458-6.8,49.263-2.653,31.351-2.653,31.351c-33.841,16.59-59.916-5.968-59.916-5.968a254.308,254.308,0,0,1-6.3-26.542c-1.665-9.851,3.237-49.318,5.556-66.849.692-5.19,1.159-8.458,1.159-8.458l8.707-32.347s10.7-27.289,14.683-35.249,19.982-25.842,19.982-25.842c1.984-1.261,5.159,3.19,7.517,7.244,1.782,3.066,3.112,5.914,3.112,5.914s19.9,8.622,22.885,13.228,2.49,14.1,2.825,14.6S736.516,366.336,735.186,370.646Z" transform="translate(-185.515 -98.705)" fill="#585b8a"/>
    <path id="Trazado_179" data-name="Trazado 179" d="M690.127,350.767s1.494,8.793-2.334,11.446c-3.7,2.568-31.211,56.671-32.923,60.048.693-5.2,1.159-8.466,1.159-8.466l8.707-32.339s10.707-27.289,14.683-35.257,19.99-25.842,19.99-25.842c1.984-1.261,5.151,3.19,7.509,7.244C703.363,334.987,695.947,348.946,690.127,350.767Z" transform="translate(-187.393 -98.893)" opacity="0.1"/>
    <path id="Trazado_180" data-name="Trazado 180" d="M689.273,349.917s1.486,8.793-2.334,11.446S655.735,418.027,654,421.4c.693-5.19,1.159-8.458,1.159-8.458l8.707-32.347s10.7-27.289,14.683-35.249,19.982-25.842,19.982-25.842c1.984-1.261,5.159,3.19,7.517,7.244C702.508,334.129,695.085,348.1,689.273,349.917Z" transform="translate(-187.2 -98.705)" fill="#585b8a"/>
    <path id="Trazado_181" data-name="Trazado 181" d="M669.228,420.746l-9.361,48.7v.008l-.895,4.661v.008l-2.016,10.482-8.6-1.821-4.008-.848-55.457-11.75-4.077-.864-9.306-1.969,1.821-12.092.755-5.027L584.8,405.65Z" transform="translate(-127.68 -90.079)" fill="#0d7dfc"/>
    <path id="Trazado_182" data-name="Trazado 182" d="M678.436,511.92s-22.06,7.96-17.251,17.415,35.662-7.3,35.662-7.3Z" transform="translate(-188.642 -141.444)" fill="#d28690"/>
    <path id="Trazado_183" data-name="Trazado 183" d="M703.8,599.1c0,.661.833,9.127,4.148,12.108S703.8,599.1,703.8,599.1Z" transform="translate(-198.249 -160.787)" opacity="0.1"/>
    <path id="Trazado_184" data-name="Trazado 184" d="M675.24,637.68s3.976,10.948,19.733,15.43S675.24,637.68,675.24,637.68Z" transform="translate(-191.912 -169.347)" opacity="0.1"/>
    <path id="Trazado_185" data-name="Trazado 185" d="M708.457,276.4a25.873,25.873,0,0,1-12.971,22.433,13.772,13.772,0,0,1-3.891-3.245c-1.128-1.37-2.008-3.237-1.331-4.871.545-1.315,1.984-2.148,2.334-3.509a5.168,5.168,0,0,0-.124-2.506c-.288-1.284-.56-2.568-.84-3.844-.241-1.089-.669-2.373-1.751-2.638s-1.984.638-2.832,1.307c-2.078,1.642-6.062,2.755-8.559,1.408s-1.8-5.852-2.2-8.287a1.447,1.447,0,0,0-.545-1.1,2.272,2.272,0,0,0-1.128-.078,3.248,3.248,0,0,1-2.817-2.5,21.5,21.5,0,0,1-.451-4.007,4.471,4.471,0,0,0-1.79-3.463,5.532,5.532,0,0,0-2.949-.482l-4.879.054a25.881,25.881,0,0,1,46.688,15.345Z" transform="translate(-188.915 -83.461)" opacity="0.1"/>
    <path id="Trazado_186" data-name="Trazado 186" d="M686.454,277.538c.848-.669,1.782-1.556,2.832-1.3s1.5,1.556,1.743,2.63l.84,3.836a5.213,5.213,0,0,1,.132,2.513c-.4,1.369-1.828,2.194-2.381,3.509-.677,1.634.21,3.5,1.331,4.863a14.006,14.006,0,0,0,8.007,4.785,5.882,5.882,0,0,0,2.5.055c1.852-.428,3.112-2.132,4.109-3.727,5.143-8.015,9.571-16.8,10.474-26.277a16.854,16.854,0,0,0-.265-5.8A19.453,19.453,0,0,0,714,258.388a34.238,34.238,0,0,0-5-7.571c-3.54-3.813-8.427-6.155-13.446-7.54a45.537,45.537,0,0,0-17.36-1.362c-1.556.179-3.05.436-4.583.537a46.132,46.132,0,0,1-5.774-.093l-11.454-.685c-.654,1.331,0,2.91.778,4.155s1.743,2.537,1.681,4.015-1.113,2.646-1.922,3.891-1.424,2.856-.615,4.07,2.459,1.292,3.891,1.276l5.774-.062a5.516,5.516,0,0,1,2.933.506,4.483,4.483,0,0,1,1.79,3.463,22.891,22.891,0,0,0,.451,4.007,3.237,3.237,0,0,0,2.817,2.5,2.1,2.1,0,0,1,1.128.086,1.432,1.432,0,0,1,.545,1.089c.4,2.435-.343,6.933,2.2,8.287S684.377,279.18,686.454,277.538Z" transform="translate(-187.626 -81.472)" fill="#663d5c"/>
    <path id="Trazado_187" data-name="Trazado 187" d="M723.454,353.45a12.684,12.684,0,0,0-13.345,8.52c-3.113,8.863-8.3,24.853-7,31.172,1.829,8.956,3.984,23.889,3.984,23.889s9.454,5.447,4.669,10.94-6.139,13.275-6.139,13.275-6.139,2.653-7.462,8.295-10.287,13.431-10.287,13.431L674.44,476.409s22.223,22.566,26.705,23.717l13.765-16.091,16.255-21.562,14.1-14.784s3.315-7.781,1.657-22.566-8.131-28.861-8.131-28.861l.5-4.98S740.814,355.605,723.454,353.45Z" transform="translate(-191.735 -106.268)" opacity="0.1"/>
    <path id="Trazado_188" data-name="Trazado 188" d="M725.156,353.45a12.683,12.683,0,0,0-13.329,8.52c-3.113,8.863-8.3,24.853-7,31.172,1.821,8.956,3.976,23.889,3.976,23.889s9.454,5.447,4.669,10.94-6.132,13.275-6.132,13.275-6.139,2.653-7.47,8.295-10.279,13.431-10.279,13.431L676.15,476.41s22.223,22.566,26.705,23.717l13.765-16.092,16.216-21.562,14.1-14.784s3.323-7.781,1.657-22.566-8.124-28.861-8.124-28.861l.5-4.98S742.516,355.605,725.156,353.45Z" transform="translate(-192.114 -106.269)" fill="#585b8a"/>
    <path id="Trazado_189" data-name="Trazado 189" d="M721.28,418.34s14.1,17.243,20.076,13.43S721.28,418.34,721.28,418.34Z" transform="translate(-202.127 -120.681)" opacity="0.1"/>
    <path id="Trazado_190" data-name="Trazado 190" d="M728.1,401.28c1.494.5,13.773,17.586,20.076,15.563S728.1,401.28,728.1,401.28Z" transform="translate(-203.64 -116.896)" opacity="0.1"/>
    <path id="Trazado_191" data-name="Trazado 191" d="M732.58,439s.833,9.789,10.948,8.458S732.58,439,732.58,439Z" transform="translate(-204.635 -125.265)" opacity="0.1"/>
    <path id="Trazado_192" data-name="Trazado 192" d="M619.46,301.83l-5.47,12.193,6.832-6.933Z" transform="translate(-136.218 -67.044)" opacity="0.1"/>
    <path id="Trazado_193" data-name="Trazado 193" d="M619.46,300.98l-5.47,12.193,6.832-6.933Z" transform="translate(-136.218 -66.855)" fill="#f0f3f7"/>
    <path id="Trazado_194" data-name="Trazado 194" d="M589.413,482.9l-4.077-.864-7.486-14.061.755-5.027Z" transform="translate(-128.2 -102.792)" opacity="0.3"/>
    <path id="Trazado_195" data-name="Trazado 195" d="M679.5,487.65l-.895,4.661v.008l-10.614,8.661-4.007-.848Z" transform="translate(-147.31 -108.272)" opacity="0.3"/>
    <path id="Trazado_196" data-name="Trazado 196" d="M500.29,429.177c-2.054.342-4.046.654-5.867.887-10.116,1.331-34.175-10.614-34.175-10.614s-29.359-24.55-37.817-47.769,10.116-26.705,10.116-26.705c7-3.984,22.231,7.128,24.387,8.956s3.984,6.466,3.813,9.454,4.98,6.8,4.98,6.8,8.793,15.259,10.948,16.917,2.653,3.151,3.315,5.976,6.466,5.143,8.956,4.972,5.447.833,5.447,2.155c0,1.066,2.436,1.6,4.435,1.766C499.418,410.479,500,421.622,500.29,429.177Z" transform="translate(-135.331 -104.214)" opacity="0.1"/>
    <path id="Trazado_197" data-name="Trazado 197" d="M500.576,425.993c-1.556.249-3.05.475-4.451.661-10.116,1.331-34.168-10.614-34.168-10.614s-29.359-24.55-37.817-47.769,10.116-26.705,10.116-26.705c7-3.984,22.223,7.128,24.379,8.956s3.984,6.466,3.821,9.454,4.972,6.8,4.972,6.8,8.793,15.259,10.948,16.916,2.653,3.151,3.323,5.976,6.466,5.136,8.956,4.972,5.447.833,5.447,2.155c0,.778,1.385,1.3,2.926,1.556.062.9.117,1.86.187,2.856C499.728,408.858,500.257,418.616,500.576,425.993Z" transform="translate(-135.71 -103.457)" opacity="0.1"/>
    <path id="Trazado_198" data-name="Trazado 198" d="M571.678,428.84l-.63,14.909h-.677l-1.4-.778.171-12.847A22.569,22.569,0,0,1,571.678,428.84Z" transform="translate(-168.334 -123.011)" opacity="0.1"/>
    <path id="Trazado_199" data-name="Trazado 199" d="M432.546,343.267s-18.574,3.486-10.116,26.705,37.817,47.777,37.817,47.777,24.052,11.936,34.175,10.614,25.538-4.809,27.53-4.311,15.43.5,15.43.5l.661-15.563-15.563-.833-7.96-1.657s-2.825-2.334-4.482-1.992-5.136-1.992-5.136-1.992-2.661-2.155-4.669-2.155-5.8-.5-5.8-1.821-2.988-2.334-5.447-2.155-8.334-2.155-9.019-5.011-1.159-4.311-3.315-5.968S465.7,368.478,465.7,368.478s-5.143-3.813-4.98-6.793-1.657-7.633-3.813-9.462S439.5,339.29,432.546,343.267Z" transform="translate(-135.331 -103.835)" fill="#dce6f2"/>
    <path id="Trazado_200" data-name="Trazado 200" d="M495.86,412.15s-7.135,7.135-5.315,8.458Z" transform="translate(-150.868 -119.308)" opacity="0.1"/>
    <path id="Trazado_201" data-name="Trazado 201" d="M505.2,419.4s-9.291,7.135-6.8,7.633S505.2,419.4,505.2,419.4Z" transform="translate(-152.582 -120.916)" opacity="0.1"/>
    <path id="Trazado_202" data-name="Trazado 202" d="M487,433c1.331.669,21.064,12.45,28.534,12.279Z" transform="translate(-150.147 -123.934)" opacity="0.1"/>
    <path id="Trazado_203" data-name="Trazado 203" d="M479.974,326.947s-3.486,11.446-4.817,11.446c-1.043,0-18.551-14.177-25.857-20.138l.319-.265s.661-5.143,3.315-7.781S479.974,326.947,479.974,326.947Z" transform="translate(-141.783 -96.635)" opacity="0.1"/>
    <path id="Trazado_204" data-name="Trazado 204" d="M479.114,325.237s-3.478,11.446-4.809,11.446c-1.05,0-18.558-14.178-25.865-20.138l.319-.265s.669-5.143,3.323-7.781S479.114,325.237,479.114,325.237Z" transform="translate(-141.592 -96.256)" fill="#dce6f2"/>
    <g id="Grupo_2" data-name="Grupo 2" transform="translate(290.547 153.588)" opacity="0.15">
      <path id="Trazado_205" data-name="Trazado 205" d="M427.49,282.54h0c2.334,5.33,8.762,7.914,12.489,12.162C437.761,289.481,431.279,286.921,427.49,282.54Z" transform="translate(-427.49 -244.139)"/>
      <path id="Trazado_206" data-name="Trazado 206" d="M455.145,297.038a5.593,5.593,0,0,1-5.1,2.607,14.893,14.893,0,0,1-5.12-1.307,9.954,9.954,0,0,1,1.323,2.817,16.264,16.264,0,0,0,5.789,1.556,5.537,5.537,0,0,0,5.1-2.607c1.486-2.84-.062-5.268-1.875-7.563A4.941,4.941,0,0,1,455.145,297.038Z" transform="translate(-431.357 -246.358)"/>
      <path id="Trazado_207" data-name="Trazado 207" d="M485.4,244.87c-.335-1.494-1.471-2.669-2.054-4.077a25.436,25.436,0,0,1-.848-3.33,10.318,10.318,0,0,0-2.389-4.272,9.927,9.927,0,0,1,.4,1.175,26.769,26.769,0,0,0,.871,3.346c.584,1.408,1.72,2.583,2.054,4.077a4.225,4.225,0,0,1-3.113,4.871c-2.879.63-6.163-1.86-8.637-.257-1.517.973-1.867,3-2.07,4.793q-.521,4.669-1.058,9.283a11.127,11.127,0,0,1-.685,3.19c-1.222,2.8-4.575,4.116-7.633,4.07a4.583,4.583,0,0,1-3.284-1.089,21.712,21.712,0,0,0-1.424-1.805c-3.891-3.268-5.073,4.723-4.046,7a14.1,14.1,0,0,0,1.9,2.856c-.856-2.568.342-9.96,4.14-6.793a20.105,20.105,0,0,1,1.416,1.805,4.614,4.614,0,0,0,3.291,1.089c3.058.047,6.412-1.268,7.633-4.07a11.13,11.13,0,0,0,.685-3.2q.529-4.669,1.058-9.275c.2-1.79.552-3.821,2.062-4.793,2.482-1.6,5.766.887,8.645.249A4.217,4.217,0,0,0,485.4,244.87Z" transform="translate(-432.734 -233.19)"/>
    </g>
    <path id="Trazado_208" data-name="Trazado 208" d="M703.062,296.414a6.015,6.015,0,0,1-2.5-.062,14.006,14.006,0,0,1-8-4.778c-1.128-1.37-2.015-3.237-1.331-4.871.545-1.315,1.976-2.14,2.334-3.509a5.214,5.214,0,0,0-.132-2.513l-.84-3.836c-.241-1.089-.661-2.373-1.743-2.63s-1.984.63-2.832,1.3c-2.078,1.642-6.069,2.762-8.559,1.408s-1.8-5.852-2.2-8.287a1.455,1.455,0,0,0-.545-1.089,2.218,2.218,0,0,0-1.136-.086,3.257,3.257,0,0,1-2.817-2.5,22.105,22.105,0,0,1-.443-4.007,4.49,4.49,0,0,0-1.8-3.463,5.6,5.6,0,0,0-2.934-.506l-5.774.062c-1.424,0-3.112-.093-3.891-1.276s-.2-2.863.615-4.07,1.852-2.4,1.922-3.891-.895-2.77-1.681-4.015a7.2,7.2,0,0,1-.98-2.225l-1.658-.1c-.646,1.323,0,2.9.778,4.155s1.751,2.537,1.681,4.007-1.1,2.653-1.922,3.891-1.416,2.856-.607,4.07,2.451,1.3,3.891,1.284l5.774-.07a5.586,5.586,0,0,1,2.934.514,4.467,4.467,0,0,1,1.8,3.463,21.5,21.5,0,0,0,.451,4.007,3.221,3.221,0,0,0,2.817,2.49,2.279,2.279,0,0,1,1.128.086,1.462,1.462,0,0,1,.545,1.1c.4,2.428-.342,6.933,2.2,8.287s6.513.233,8.559-1.408c.848-.669,1.79-1.556,2.84-1.307s1.5,1.556,1.735,2.63l.848,3.844a5.2,5.2,0,0,1,.124,2.513c-.389,1.362-1.829,2.194-2.373,3.5-.677,1.634.2,3.509,1.331,4.871a14.006,14.006,0,0,0,8.054,4.778,6.015,6.015,0,0,0,2.5.062,5.867,5.867,0,0,0,3.237-2.459A4.326,4.326,0,0,1,703.062,296.414Z" transform="translate(-187.574 -81.439)" opacity="0.1"/>
    <ellipse id="Elipse_14" data-name="Elipse 14" cx="18.807" cy="2.887" rx="18.807" ry="2.887" transform="translate(139.699 552.853)" fill="#6c63ff" opacity="0.1"/>
    <ellipse id="Elipse_15" data-name="Elipse 15" cx="18.807" cy="2.887" rx="18.807" ry="2.887" transform="translate(796.376 477.795)" fill="#6c63ff" opacity="0.1"/>
    <ellipse id="Elipse_16" data-name="Elipse 16" cx="54.469" cy="8.357" rx="54.469" ry="8.357" transform="translate(568.976 588.655)" fill="#6c63ff" opacity="0.1"/>
    <ellipse id="Elipse_17" data-name="Elipse 17" cx="42.486" cy="6.521" rx="42.486" ry="6.521" transform="translate(735.799 555.087)" fill="#6c63ff" opacity="0.1"/>
    <ellipse id="Elipse_18" data-name="Elipse 18" cx="72.047" cy="11.057" rx="72.047" ry="11.057" transform="translate(699.243 615.524)" fill="#6c63ff" opacity="0.1"/>
    <ellipse id="Elipse_19" data-name="Elipse 19" cx="54.469" cy="8.357" rx="54.469" ry="8.357" transform="translate(23.54 627.951)" fill="#6c63ff" opacity="0.1"/>
    <path id="Trazado_209" data-name="Trazado 209" d="M257.225,631.85s2.132,2.786-.98,7-5.68,7.781-4.669,10.38c0,0,4.669-7.781,8.559-7.921S261.435,636.55,257.225,631.85Z" transform="translate(-97.863 -168.053)" fill="#0d7dfc"/>
    <path id="Trazado_210" data-name="Trazado 210" d="M257.265,631.85a3.115,3.115,0,0,1,.436.872c3.735,4.389,5.719,8.474,2.132,8.559-3.338.093-7.346,6.069-8.3,7.579a2.9,2.9,0,0,0,.109.342s4.669-7.781,8.559-7.921S261.474,636.55,257.265,631.85Z" transform="translate(-97.903 -168.053)" opacity="0.1"/>
    <path id="Trazado_211" data-name="Trazado 211" d="M263.858,636.23c0,.98-.117,1.774-.249,1.774s-.249-.778-.249-1.774.14-.514.272-.514S263.858,635.25,263.858,636.23Z" transform="translate(-100.527 -168.885)" fill="#ffd037"/>
    <path id="Trazado_212" data-name="Trazado 212" d="M265.262,637.727c-.856.467-1.611.778-1.673.63s.576-.591,1.44-1.066.521-.125.584,0S266.125,637.252,265.262,637.727Z" transform="translate(-100.577 -169.207)" fill="#ffd037"/>
    <path id="Trazado_213" data-name="Trazado 213" d="M243.076,631.85s-2.132,2.786.98,7,5.688,7.781,4.669,10.38c0,0-4.669-7.781-8.521-7.921S238.843,636.55,243.076,631.85Z" transform="translate(-94.966 -168.053)" fill="#0d7dfc"/>
    <path id="Trazado_214" data-name="Trazado 214" d="M243.072,631.85a3.43,3.43,0,0,0-.436.872c-3.735,4.389-5.719,8.474-2.132,8.559,3.338.093,7.346,6.069,8.31,7.579a2.983,2.983,0,0,1-.117.342s-4.669-7.781-8.521-7.921S238.839,636.55,243.072,631.85Z" transform="translate(-94.961 -168.053)" opacity="0.1"/>
    <path id="Trazado_215" data-name="Trazado 215" d="M239.35,636.23c0,.98.109,1.774.241,1.774s.249-.778.249-1.774-.14-.514-.272-.514S239.35,635.25,239.35,636.23Z" transform="translate(-95.2 -168.885)" fill="#ffd037"/>
    <path id="Trazado_216" data-name="Trazado 216" d="M237.451,637.727c.864.467,1.611.778,1.681.63s-.584-.591-1.447-1.066-.521-.125-.584,0S236.587,637.252,237.451,637.727Z" transform="translate(-94.663 -169.207)" fill="#ffd037"/>
    <ellipse id="Elipse_20" data-name="Elipse 20" cx="22.278" cy="3.416" rx="22.278" ry="3.416" transform="translate(131.458 495.653)" fill="#6c63ff" opacity="0.1"/>
    <path id="Trazado_217" data-name="Trazado 217" d="M259.868,648.979l-.109.872-.148,1.229-.062.514-.148,1.229-.07.514-.148,1.229-1.7,14.006c-.148,1.245-2.187,2.218-4.669,2.218h-8.824c-2.459,0-4.5-.973-4.669-2.218l-1.7-14.006-.148-1.229-.062-.514-.156-1.229-.062-.514-.148-1.229-.109-.872c-.086-.708,1.019-1.3,2.412-1.3h18.123C258.848,647.68,259.953,648.271,259.868,648.979Z" transform="translate(-94.662 -171.565)" fill="#65617d"/>
    <path id="Trazado_218" data-name="Trazado 218" d="M205.681,614.76l-.148,1.229H183.108l-.148-1.229Z" transform="translate(-40.585 -136.475)" fill="#9d9cb5"/>
    <path id="Trazado_219" data-name="Trazado 219" d="M205.531,617l-.148,1.229h-22L183.23,617Z" transform="translate(-40.644 -136.972)" fill="#9d9cb5"/>
    <path id="Trazado_220" data-name="Trazado 220" d="M205.383,619.24l-.156,1.229h-21.57l-.148-1.229Z" transform="translate(-40.707 -137.469)" fill="#9d9cb5"/>
    <path id="Trazado_221" data-name="Trazado 221" d="M1082.6,618s-2.661,12.388,9.174,13.851l.731-1.377S1083.328,621.844,1082.6,618Z" transform="translate(-282.237 -164.98)" fill="#6c63ff"/>
    <path id="Trazado_222" data-name="Trazado 222" d="M1097.309,628.591l-2.755.584-.272.062s-7.345-5.96-7.252-19.266a32.832,32.832,0,0,0,3.509,5.548C1093.449,619.37,1096.756,624.505,1097.309,628.591Z" transform="translate(-283.277 -163.199)" fill="#6c63ff"/>
    <path id="Trazado_223" data-name="Trazado 223" d="M1099.566,628.56a1.727,1.727,0,0,1-1.479.195c-7.065-1.65-4.669-24.674-4.669-24.674.389.179.778,3.112,2.443,6.894C1098.7,617.612,1101.838,626.895,1099.566,628.56Z" transform="translate(-284.608 -161.892)" fill="#6c63ff"/>
    <path id="Trazado_224" data-name="Trazado 224" d="M1118.115,618s.459,12.388-11.376,13.851l-.739-1.4S1117.384,621.844,1118.115,618Z" transform="translate(-287.486 -164.98)" fill="#6c63ff"/>
    <path id="Trazado_225" data-name="Trazado 225" d="M1113.653,610a22.911,22.911,0,0,1-9.447,19.266l-.28-.062-2.747-.583c.545-4.085,3.891-9.221,6.762-13.073A29.922,29.922,0,0,1,1113.653,610Z" transform="translate(-286.416 -163.205)" fill="#6c63ff"/>
    <path id="Trazado_226" data-name="Trazado 226" d="M1103.408,627.364a4.3,4.3,0,0,1-1.556,1.206h0a3.041,3.041,0,0,1-.583.195c-1.735.4-2.335-.848-2.241-2.98.163-3.789,2.545-10.365,4.669-15.29a19.107,19.107,0,0,1,4.435-6.4S1108.022,622.01,1103.408,627.364Z" transform="translate(-285.937 -161.894)" fill="#6c63ff"/>
    <path id="Trazado_227" data-name="Trazado 227" d="M1101.021,593.7s-7.89,28.013-1.1,32.2S1102.764,596.174,1101.021,593.7Z" transform="translate(-285.526 -159.589)" fill="#6c63ff"/>
    <path id="Trazado_228" data-name="Trazado 228" d="M1082.6,618s-2.661,12.388,9.174,13.851l.731-1.377S1083.328,621.844,1082.6,618Z" transform="translate(-282.237 -164.98)" fill="#0d7dfc" opacity="0.1"/>
    <path id="Trazado_229" data-name="Trazado 229" d="M1097.309,628.591l-2.755.584-.272.062s-7.345-5.96-7.252-19.266a32.832,32.832,0,0,0,3.509,5.548C1093.449,619.37,1096.756,624.505,1097.309,628.591Z" transform="translate(-283.277 -163.199)" opacity="0.1"/>
    <path id="Trazado_230" data-name="Trazado 230" d="M1099.566,628.56a1.727,1.727,0,0,1-1.479.195c-7.065-1.65-4.669-24.674-4.669-24.674.389.179.778,3.112,2.443,6.894C1098.7,617.612,1101.838,626.895,1099.566,628.56Z" transform="translate(-284.608 -161.892)" opacity="0.1"/>
    <path id="Trazado_231" data-name="Trazado 231" d="M1118.115,618s.459,12.388-11.376,13.851l-.739-1.4S1117.384,621.844,1118.115,618Z" transform="translate(-287.486 -164.98)" fill="#0d7dfc" opacity="0.1"/>
    <path id="Trazado_232" data-name="Trazado 232" d="M1113.653,610a22.911,22.911,0,0,1-9.447,19.266l-.28-.062-2.747-.583c.545-4.085,3.891-9.221,6.762-13.073A29.922,29.922,0,0,1,1113.653,610Z" transform="translate(-286.416 -163.205)" fill="#0d7dfc" opacity="0.1"/>
    <path id="Trazado_233" data-name="Trazado 233" d="M1103.408,627.364a4.3,4.3,0,0,1-1.556,1.206h0a3.041,3.041,0,0,1-.583.195c-1.735.4-2.335-.848-2.241-2.98.163-3.789,2.545-10.365,4.669-15.29a19.107,19.107,0,0,1,4.435-6.4S1108.022,622.01,1103.408,627.364Z" transform="translate(-285.937 -161.894)" fill="#0d7dfc" opacity="0.1"/>
    <path id="Trazado_234" data-name="Trazado 234" d="M1101.021,593.7s-7.89,28.013-1.1,32.2S1102.764,596.174,1101.021,593.7Z" transform="translate(-285.526 -159.589)" opacity="0.1"/>
    <path id="Trazado_235" data-name="Trazado 235" d="M1082.651,618s-1.556,12.388,10.271,13.851l.731-1.377S1083.382,621.844,1082.651,618Z" transform="translate(-282.29 -164.98)" fill="#0d7dfc"/>
    <path id="Trazado_236" data-name="Trazado 236" d="M1098.4,628.6l-2.755.584-.272.062S1086.93,623.283,1087,610c0,0,2.163,2.334,4.606,5.548C1094.54,619.376,1097.847,624.512,1098.4,628.6Z" transform="translate(-283.271 -163.205)" fill="#0d7dfc"/>
    <path id="Trazado_237" data-name="Trazado 237" d="M1099.72,630.172l-2.754.584c-2.607-2.288-3.642-8.264-4.015-13.656C1095.86,620.952,1099.167,626.087,1099.72,630.172Z" transform="translate(-284.591 -164.781)" opacity="0.1"/>
    <path id="Trazado_238" data-name="Trazado 238" d="M1100.754,628.56a1.744,1.744,0,0,1-1.487.195c-7.065-1.65-5.774-24.674-5.774-24.674.389.179,1.914,3.112,3.54,6.894C1099.89,617.612,1103.018,626.895,1100.754,628.56Z" transform="translate(-284.691 -161.892)" fill="#0d7dfc"/>
    <path id="Trazado_239" data-name="Trazado 239" d="M1118.433,618s1.556,12.388-10.271,13.851l-.731-1.377S1117.7,621.844,1118.433,618Z" transform="translate(-287.803 -164.98)" fill="#0d7dfc"/>
    <path id="Trazado_240" data-name="Trazado 240" d="M1113.966,610c.093,13.306-8.349,19.266-8.349,19.266l-.272-.062-2.755-.583c.545-4.085,3.891-9.221,6.77-13.073C1111.8,612.334,1113.966,610,1113.966,610Z" transform="translate(-286.729 -163.205)" fill="#0d7dfc"/>
    <path id="Trazado_241" data-name="Trazado 241" d="M1109.36,617.1c-.358,5.027-1.276,10.559-3.509,13.143a3.983,3.983,0,0,1-.506.513l-2.755-.584C1103.135,626.087,1106.449,620.952,1109.36,617.1Z" transform="translate(-286.729 -164.781)" opacity="0.1"/>
    <path id="Trazado_242" data-name="Trazado 242" d="M1104.819,627.364a4.212,4.212,0,0,1-1.556,1.206h0a3.125,3.125,0,0,1-.576.195c-1.743.4-2.334-.848-2.249-2.98.171-3.789,2.552-10.365,4.669-15.29,1.556-3.541,2.964-6.225,3.338-6.4C1108.445,604.082,1109.433,622.01,1104.819,627.364Z" transform="translate(-286.25 -161.894)" fill="#0d7dfc"/>
    <path id="Trazado_243" data-name="Trazado 243" d="M1101.67,630.526a1.867,1.867,0,0,1-1.12-.358c-3.323-2.07-3.393-9.835-2.6-17.228C1100.806,619.577,1103.935,628.861,1101.67,630.526Z" transform="translate(-285.607 -163.858)" fill="#0d7dfc" opacity="0.1"/>
    <path id="Trazado_244" data-name="Trazado 244" d="M1104.821,629.19c-.381.833-.9,1.268-1.556,1.206h0a2.093,2.093,0,0,1-.941-.358,5.028,5.028,0,0,1-1.883-2.428c.171-3.789,2.552-10.365,4.669-15.29C1105.871,619.144,1106.128,626.381,1104.821,629.19Z" transform="translate(-286.252 -163.72)" opacity="0.1"/>
    <path id="Trazado_245" data-name="Trazado 245" d="M1101.26,593.7s-6.785,28.013,0,32.2S1103,596.174,1101.26,593.7Z" transform="translate(-285.765 -159.589)" fill="#0d7dfc"/>
    <path id="Trazado_246" data-name="Trazado 246" d="M1056.694,597.61H1028.44v4.677h4.311l.109.552,1.727,9.081h16.426l1.728-9.081.1-.552h3.852Z" transform="translate(-228.173 -132.669)" fill="#4b4770"/>
    <path id="Trazado_247" data-name="Trazado 247" d="M1056.694,597.61H1028.44v4.677h4.311l.109.552,1.727,9.081h16.426l1.728-9.081.1-.552h3.852Z" transform="translate(-228.173 -132.669)" opacity="0.1"/>
    <path id="Trazado_248" data-name="Trazado 248" d="M1055.75,601.14l-.475,2.482-1.727,9.081h-16.426l-1.727-9.081-.475-2.482Z" transform="translate(-229.611 -133.453)" fill="#4b4770"/>
    <path id="Trazado_249" data-name="Trazado 249" d="M1055.75,601.14l-.475,2.482h-19.881l-.475-2.482Z" transform="translate(-229.611 -133.453)" opacity="0.1"/>
    <rect id="Rectngulo_58" data-name="Rectngulo 58" width="28.254" height="4.677" transform="translate(801.364 464.941)" fill="#4b4770"/>
    <path id="Trazado_250" data-name="Trazado 250" d="M179.656,734.509a13.569,13.569,0,0,0-1.774,3.346c-.109.288-.218.623-.327.942a3.387,3.387,0,0,0-.615-.218,8.557,8.557,0,0,0-2.778-.233c0-.366.047-.778.054-1.144.117-4.1-.366-9.812-4.28-7.392-3.751,2.334-1.074,6.225,1.346,8.715.21.218.42.42.622.615-2.21,1.556-2.63,5.237-3,9.057s-3.611,8-5.766,10.372c-.218.241-.412.459-.607.661a7.9,7.9,0,0,0-6.264-1.611c-.086-.334-.187-.685-.288-1.05-1.743-6.3-5.361-17.2-9.976-19.585l.607-.778c1.961-2.56,4.171-6.373.91-7.346s-3.556,3.3-3.377,6.505q.047.607.093,1.144a4.77,4.77,0,0,0-3.408,1.665l-.506-.6c-2.646-3.113-7.493-8.069-8.964-4.326-1.369,3.486,2.9,8.015,5.906,10.637l.187.163c-2.015,8.178,6.785,14.847,11.524,17.765l.615.373c-6.536,7.7-10.575,22.146-10.575,22.146l18.3,3.268s12.139-10.474,10.583-20.309h.124c12.131-2.428,14.886-15.36,12.995-23.04l.218-.086a13.734,13.734,0,0,0,5.618-4.249C190.254,735.209,183.157,729.887,179.656,734.509Z" transform="translate(-71.183 -189.546)" fill="#6c63ff"/>
    <path id="Trazado_251" data-name="Trazado 251" d="M179.656,734.509a13.569,13.569,0,0,0-1.774,3.346c-.109.288-.218.623-.327.942a3.387,3.387,0,0,0-.615-.218,8.557,8.557,0,0,0-2.778-.233c0-.366.047-.778.054-1.144.117-4.1-.366-9.812-4.28-7.392-3.751,2.334-1.074,6.225,1.346,8.715.21.218.42.42.622.615-2.21,1.556-2.63,5.237-3,9.057s-3.611,8-5.766,10.372c-.218.241-.412.459-.607.661a7.9,7.9,0,0,0-6.264-1.611c-.086-.334-.187-.685-.288-1.05-1.743-6.3-5.361-17.2-9.976-19.585l.607-.778c1.961-2.56,4.171-6.373.91-7.346s-3.556,3.3-3.377,6.505q.047.607.093,1.144a4.77,4.77,0,0,0-3.408,1.665l-.506-.6c-2.646-3.113-7.493-8.069-8.964-4.326-1.369,3.486,2.9,8.015,5.906,10.637l.187.163c-2.015,8.178,6.785,14.847,11.524,17.765l.615.373c-6.536,7.7-10.575,22.146-10.575,22.146l18.3,3.268s12.139-10.474,10.583-20.309h.124c12.131-2.428,14.886-15.36,12.995-23.04l.218-.086a13.734,13.734,0,0,0,5.618-4.249C190.254,735.209,183.157,729.887,179.656,734.509Z" transform="translate(-71.183 -189.546)" opacity="0.1"/>
    <path id="Trazado_252" data-name="Trazado 252" d="M143.543,740.742l-2.14,6.225s-1.191-.84-2.692-2.163c-3-2.622-7.275-7.151-5.906-10.637,1.471-3.743,6.318,1.2,8.964,4.326C142.835,739.738,143.543,740.742,143.543,740.742Z" transform="translate(-71.503 -190.457)" fill="#0d7dfc"/>
    <path id="Trazado_253" data-name="Trazado 253" d="M151.766,736.216a29.686,29.686,0,0,1-2.085,2.459,32.84,32.84,0,0,1-.381-3.3c-.179-3.206.163-7.462,3.377-6.505S153.727,733.656,151.766,736.216Z" transform="translate(-75.212 -189.549)" fill="#0d7dfc"/>
    <path id="Trazado_254" data-name="Trazado 254" d="M186.248,737.347c-.062,2.062-.265,3.712-.265,3.712a27.151,27.151,0,0,1-2.669-2.389c-2.42-2.513-5.1-6.388-1.346-8.715C185.844,727.527,186.326,733.246,186.248,737.347Z" transform="translate(-82.056 -189.691)" fill="#0d7dfc"/>
    <path id="Trazado_255" data-name="Trazado 255" d="M201.342,741.046a13.734,13.734,0,0,1-5.618,4.249,16.837,16.837,0,0,1-1.883.685l-2.521-3.541A25.041,25.041,0,0,1,192.363,739a13.574,13.574,0,0,1,1.774-3.346C197.623,731.031,204.735,736.354,201.342,741.046Z" transform="translate(-84.544 -190.69)" fill="#0d7dfc"/>
    <path id="Trazado_256" data-name="Trazado 256" d="M143.528,740.11c1.066,1.245,1.774,2.21,1.774,2.21l-2.14,6.225s-1.191-.84-2.692-2.163a12.217,12.217,0,0,1,2.412-5.5C143.092,740.624,143.318,740.359,143.528,740.11Z" transform="translate(-73.262 -192.073)" opacity="0.1"/>
    <path id="Trazado_257" data-name="Trazado 257" d="M151.777,738.11a29.662,29.662,0,0,1-2.085,2.459,32.837,32.837,0,0,1-.381-3.3A4.3,4.3,0,0,1,151.777,738.11Z" transform="translate(-75.223 -191.443)" opacity="0.1"/>
    <path id="Trazado_258" data-name="Trazado 258" d="M160.3,763.3l-5.322,2.334s-1.159-.56-2.832-1.6c-5.595-3.439-16.839-12.1-9.338-22.309s13.827,8.1,16.341,17.057C159.9,761.5,160.3,763.3,160.3,763.3Z" transform="translate(-73.226 -191.763)" fill="#0d7dfc"/>
    <path id="Trazado_259" data-name="Trazado 259" d="M184.18,740.943a4.373,4.373,0,0,1,2.934-1.323c-.062,2.062-.265,3.712-.265,3.712A27.175,27.175,0,0,1,184.18,740.943Z" transform="translate(-82.96 -191.964)" opacity="0.1"/>
    <path id="Trazado_260" data-name="Trazado 260" d="M195.744,746.755a16.8,16.8,0,0,1-1.883.685L191.34,743.9a25.028,25.028,0,0,1,1.043-3.439C193.993,741.409,195.192,743.775,195.744,746.755Z" transform="translate(-84.548 -192.151)" opacity="0.1"/>
    <path id="Trazado_261" data-name="Trazado 261" d="M176.949,770.008c-.288.062-.591.117-.895.163-17.842,2.708-5.883-6.918-5.883-6.918s.778-.778,1.891-1.953c2.155-2.373,5.392-6.528,5.766-10.372.56-5.781,1.206-11.205,8.03-9.618C192.558,742.882,193.842,766.623,176.949,770.008Z" transform="translate(-78.981 -192.277)" fill="#0d7dfc"/>
    <rect id="Rectngulo_59" data-name="Rectngulo 59" width="34.09" height="8.964" transform="translate(63.543 622.154)" fill="#d4dfec"/>
    <rect id="Rectngulo_60" data-name="Rectngulo 60" width="44.54" height="31.281" transform="translate(58.128 593.02)" fill="#d4dfec"/>
    <rect id="Rectngulo_61" data-name="Rectngulo 61" width="34.09" height="8.964" transform="translate(63.543 622.154)" opacity="0.1"/>
    <rect id="Rectngulo_62" data-name="Rectngulo 62" width="44.54" height="31.281" transform="translate(58.128 593.02)" opacity="0.1"/>
    <rect id="Rectngulo_63" data-name="Rectngulo 63" width="34.09" height="8.964" transform="translate(65.784 622.154)" fill="#d4dfec"/>
    <path id="Trazado_262" data-name="Trazado 262" d="M162.523,764.51c.778,2.677,1.152,4.513,1.152,4.513l-5.322,2.334s-1.159-.56-2.832-1.6C157.605,767.117,159.955,765.125,162.523,764.51Z" transform="translate(-76.601 -197.487)" opacity="0.1"/>
    <path id="Trazado_263" data-name="Trazado 263" d="M176.949,775.787c-.288.062-.591.117-.895.163-17.842,2.708-5.883-6.918-5.883-6.918s.778-.778,1.891-1.953C175.392,769.749,176.77,772.753,176.949,775.787Z" transform="translate(-78.981 -198.057)" opacity="0.1"/>
    <path id="Trazado_264" data-name="Trazado 264" d="M142.72,792.539s9.991-35.794,24.005-24.752-5.7,28.013-5.7,28.013Z" transform="translate(-73.761 -197.745)" fill="#0d7dfc"/>
    <circle id="Elipse_21" data-name="Elipse 21" cx="1.121" cy="1.121" r="1.121" transform="translate(72.881 554.449)" opacity="0.1"/>
    <circle id="Elipse_22" data-name="Elipse 22" cx="1.121" cy="1.121" r="1.121" transform="translate(72.788 559.678)" opacity="0.1"/>
    <circle id="Elipse_23" data-name="Elipse 23" cx="1.121" cy="1.121" r="1.121" transform="translate(105.29 555.476)" opacity="0.1"/>
    <circle id="Elipse_24" data-name="Elipse 24" cx="1.121" cy="1.121" r="1.121" transform="translate(79.145 582.282)" opacity="0.1"/>
    <circle id="Elipse_25" data-name="Elipse 25" cx="1.121" cy="1.121" r="1.121" transform="translate(102.956 564.16)" opacity="0.1"/>
    <circle id="Elipse_26" data-name="Elipse 26" cx="1.121" cy="1.121" r="1.121" transform="translate(91.377 575.746)" opacity="0.1"/>
    <circle id="Elipse_27" data-name="Elipse 27" cx="1.121" cy="1.121" r="1.121" transform="translate(76.709 556.69)" opacity="0.1"/>
    <circle id="Elipse_28" data-name="Elipse 28" cx="1.121" cy="1.121" r="1.121" transform="translate(102.209 558.837)" fill="#0d7dfc" opacity="0.1"/>
    <circle id="Elipse_29" data-name="Elipse 29" cx="1.121" cy="1.121" r="1.121" transform="translate(98.38 567.521)" opacity="0.1"/>
    <circle id="Elipse_30" data-name="Elipse 30" cx="1.121" cy="1.121" r="1.121" transform="translate(86.615 581.442)" opacity="0.1"/>
    <circle id="Elipse_31" data-name="Elipse 31" cx="1.121" cy="1.121" r="1.121" transform="translate(84.187 575.933)" opacity="0.1"/>
    <circle id="Elipse_32" data-name="Elipse 32" cx="1.121" cy="1.121" r="1.121" transform="translate(78.39 563.506)" opacity="0.1"/>
    <rect id="Rectngulo_64" data-name="Rectngulo 64" width="34.09" height="3.276" transform="translate(65.784 622.154)" opacity="0.1"/>
    <rect id="Rectngulo_65" data-name="Rectngulo 65" width="44.54" height="31.281" transform="translate(60.369 593.02)" fill="#d4dfec"/>
    <circle id="Elipse_33" data-name="Elipse 33" cx="1.121" cy="1.121" r="1.121" transform="translate(88.109 586.484)" opacity="0.1"/>
    <circle id="Elipse_34" data-name="Elipse 34" cx="1.121" cy="1.121" r="1.121" transform="translate(81.386 587.885)" opacity="0.1"/>
    <circle id="Elipse_35" data-name="Elipse 35" cx="8.139" cy="8.139" r="8.139" transform="translate(30.776 32.247)" fill="#6c63ff" opacity="0.1"/>
    <circle id="Elipse_36" data-name="Elipse 36" cx="10.894" cy="10.894" r="10.894" transform="translate(809.706 285.567)" fill="#6c63ff" opacity="0.1"/>
    <circle id="Elipse_37" data-name="Elipse 37" cx="7.952" cy="7.952" r="7.952" transform="translate(833.649 265.164)" fill="#6c63ff" opacity="0.1"/>
    <ellipse id="Elipse_38" data-name="Elipse 38" cx="10" cy="11" rx="10" ry="11" transform="translate(42.39 0.085)" fill="#6c63ff" opacity="0.1"/>
    <ellipse id="Elipse_39" data-name="Elipse 39" cx="11" cy="10" rx="11" ry="10" transform="translate(-0.61 50.085)" fill="#6c63ff" opacity="0.1"/>
  </g>
</svg>
