<svg xmlns="http://www.w3.org/2000/svg" xmlns:xlink="http://www.w3.org/1999/xlink" width="893.644" height="673.325" viewBox="0 0 893.644 673.325">
  <defs>
    <linearGradient id="linear-gradient" x1="0.5" y1="1" x2="0.5" gradientUnits="objectBoundingBox">
      <stop offset="0" stop-color="gray" stop-opacity="0.251"/>
      <stop offset="0.535" stop-color="gray" stop-opacity="0.122"/>
      <stop offset="1" stop-color="gray" stop-opacity="0.102"/>
    </linearGradient>
  </defs>
  <g id="undraw_mobile_user_7oqo" transform="translate(0.005)">
    <path id="Trazado_56" data-name="Trazado 56" d="M189.734,316v39.8a63.012,63.012,0,0,1,0,126.023v39.8H395.351V316Z" transform="translate(-56.436 -118.191)" fill="#f2f2f2"/>
    <circle id="Elipse_1" data-name="Elipse 1" cx="49.5" cy="49.5" r="49.5" transform="translate(146.995 250.326)" fill="#f2f2f2"/>
    <path id="Trazado_57" data-name="Trazado 57" d="M873.7,367.8,793,318.055V702.7h80.7Z" transform="translate(-215.105 -86.855)" fill="#f2f2f2"/>
    <path id="Trazado_58" data-name="Trazado 58" d="M681,709.977h80.7V298.762L681,249.02Z" transform="translate(-184.724 -94.136)" fill="#f2f2f2"/>
    <path id="Trazado_59" data-name="Trazado 59" d="M680.495,208.036,277,0V187.711H406.339V404.088H277V615.842H680.495Z" transform="translate(-112.138)" fill="#f2f2f2"/>
    <path id="Trazado_60" data-name="Trazado 60" d="M905,387.09V695.415h42.008l113.863-212.249Z" transform="translate(-317.027 -79.574)" fill="#f2f2f2"/>
    <path id="Trazado_61" data-name="Trazado 61" d="M1060.741,628.049c-66.971,50.06-85.854,138.007-85.854,138.007s89.7,6.785,156.664-43.274S1217.4,584.776,1217.4,584.776,1127.71,577.99,1060.741,628.049Z" transform="translate(-323.764 -159.355)" fill="#0d7dfc"/>
    <path id="Trazado_62" data-name="Trazado 62" d="M986.158,775.185s-.983-.549-2.762-1.641c-1.419-.872-3.366-2.089-5.719-3.644-21.045-13.867-75.56-54.652-97.921-117.582-27.976-78.791,5.058-162.457,5.058-162.457s72.061,40.511,102.672,113.276c1.334,3.134,2.568,6.331,3.73,9.591,24.343,68.555,2.495,140.8-3.589,158.411C986.712,773.776,986.158,775.185,986.158,775.185Z" transform="translate(-254.435 -169.332)" fill="#68e1fd"/>
    <path id="Trazado_63" data-name="Trazado 63" d="M984.57,778.674l-1.026-.744c-.733-.529-73.415-53.927-92.091-134.865s23.26-160.782,23.687-161.579l.6-1.118,1.026.744c.733.529,73.415,53.927,92.091,134.865h0c18.676,80.938-23.26,160.782-23.687,161.579ZM916.5,483.679c-5.04,10.056-40.164,84.047-22.893,158.889s81.26,125.961,90.2,132.793c5.04-10.056,40.164-84.047,22.893-158.889h0C989.429,541.63,925.437,490.511,916.5,483.679Z" transform="translate(-257.63 -170.334)" fill="#3f3d56"/>
    <path id="Trazado_64" data-name="Trazado 64" d="M978.166,760.332c-1.633.951-3.06,1.751-4.231,2.405-2.582,1.41-4.013,2.12-4.013,2.12s-.677-2.037-1.706-5.764c-5.67-20.391-21.9-91.454,5.265-156.726q2.143-5.129,4.545-10.037c1.334,3.134,2.568,6.331,3.73,9.591C1006.1,670.476,984.251,742.722,978.166,760.332Z" transform="translate(-315.876 -158.525)" opacity="0.1"/>
    <path id="Trazado_65" data-name="Trazado 65" d="M1089.714,660.583c-32.125,77.2-112.756,117.062-112.756,117.062s-28.565-85.3,3.551-162.492S1093.26,498.092,1093.26,498.092,1121.828,583.388,1089.714,660.583Z" transform="translate(-324.78 -168.464)" fill="#68e1fd"/>
    <rect id="Rect치ngulo_56" data-name="Rect치ngulo 56" width="297.04" height="2.21" transform="translate(651.938 606.516) rotate(-67.243)" fill="#3f3d56"/>
    <path id="Trazado_66" data-name="Trazado 66" d="M887.173,775.447c0,10.353-40.325,19.821-106.995,27.09-12.122,1.317-25.116,2.561-38.891,3.733q-17.864,1.515-37.435,2.85-18.968,1.272-39.384,2.363c-42.995,2.309-90.519,3.968-141.008,4.8q-18.376.3-37.253.469-19.65.162-39.756.162c-243.406,0-440.722-18.559-440.722-41.464s197.316-41.464,440.722-41.464c104.787,0,201.025,3.445,276.661,9.18q4.176.325,8.268.631a.065.065,0,0,0,.053.018C826.711,751.424,887.173,762.768,887.173,775.447Z" transform="translate(-5.734 -143.586)" fill="#3f3d56"/>
    <path id="Trazado_67" data-name="Trazado 67" d="M887.173,775.447c0,10.353-40.325,19.821-106.995,27.09-12.122,1.317-25.116,2.561-38.891,3.733q-17.864,1.515-37.435,2.85-18.968,1.272-39.384,2.363c-42.995,2.309-90.519,3.968-141.008,4.8q-18.376.3-37.253.469-19.65.162-39.756.162c-243.406,0-440.722-18.559-440.722-41.464s197.316-41.464,440.722-41.464c104.787,0,201.025,3.445,276.661,9.18q4.176.325,8.268.631a.065.065,0,0,0,.053.018C826.711,751.424,887.173,762.768,887.173,775.447Z" transform="translate(-5.734 -143.586)" fill="#0d7dfc" opacity="0.15"/>
    <path id="Trazado_68" data-name="Trazado 68" d="M833.512,768.2c0,8.656-36.291,16.571-96.292,22.651-10.9,1.094-22.6,2.134-35,3.117q-16.075,1.26-33.69,2.377-17.072,1.078-35.446,1.979c-38.7,1.935-81.471,3.316-126.911,4.013q-16.53.249-33.523.387-17.69.149-35.778.144c-219.062,0-396.645-15.521-396.645-34.667S217.812,733.53,436.875,733.53c48.439,0,94.847.763,137.758,2.156h.108c40.584,1.315,78.038,3.195,111.121,5.527q3.761.265,7.443.52a.054.054,0,0,0,.051.022c15.154,1.128,29.332,2.344,42.4,3.648.144.011.289.033.433.044C796.809,751.538,833.512,759.486,833.512,768.2Z" transform="translate(-2.095 -143.634)" fill="#0d7dfc"/>
    <path id="Trazado_69" data-name="Trazado 69" d="M1026.2,745.2c-8.214,53.405-60,35.508-122.674,35.508-66.206,0-120.264,19.976-123.635-45.225,62.083,1.315,119.379,3.195,169.988,5.527q5.754.265,11.386.52a.105.105,0,0,0,.077.022C984.527,742.677,1006.216,743.893,1026.2,745.2Z" transform="translate(-268.558 -143.428)" opacity="0.1"/>
    <path id="Trazado_70" data-name="Trazado 70" d="M327.889,733.746c0,19.254-11.444,25.976-25.564,25.976-.327,0-.654,0-.979-.012-.654-.014-1.3-.045-1.944-.089-12.743-.9-22.642-7.969-22.642-25.875,0-18.527,23.675-41.907,25.458-43.641l0,0c.068-.068.1-.1.1-.1S327.889,714.5,327.889,733.746Z" transform="translate(-76.861 -148.224)" fill="#68e1fd"/>
    <path id="Trazado_71" data-name="Trazado 71" d="M300.023,756.776l9.35-13.063L300,758.212l-.024,1.5c-.654-.014-1.3-.045-1.944-.089l1.007-19.261-.007-.151.016-.026.1-1.821-9.4-14.533L299.174,737l.024.386.76-14.553-8.045-15.018,8.143,12.466.793-30.173,0-.1v.1L300.72,713.9l8.009-9.433-8.042,11.482-.212,13.03,7.48-12.506-7.51,14.423-.118,7.245,10.854-17.407-10.9,19.933Z" transform="translate(-77.869 -148.224)" fill="#3f3d56"/>
    <path id="Trazado_72" data-name="Trazado 72" d="M779.734,730.049c0-73.264,55.433-132.656,123.812-132.656s123.812,59.392,123.812,132.656-55.433,51.957-123.812,51.957S779.734,803.314,779.734,730.049Z" transform="translate(-268.891 -157.992)" fill="#0d7dfc"/>
    <rect id="Rect치ngulo_57" data-name="Rect치ngulo 57" width="2.211" height="149.438" transform="translate(167.35 484.657)" fill="#3f3d56"/>
    <circle id="Elipse_2" data-name="Elipse 2" cx="21.133" cy="21.133" r="21.133" transform="translate(140.987 490.367)" fill="#3f3d56"/>
    <path id="Trazado_73" data-name="Trazado 73" d="M164.31,727.179S161.291,662.248,99.4,669.8" transform="translate(4.145 -150.42)" fill="#3f3d56"/>
    <path id="Trazado_74" data-name="Trazado 74" d="M730.02,665.457c.552,1.951,1.167,3.888,1.825,5.812-2.952-2.9-5.847-5.881-8.8-8.765,1.184.369,2.364.737,3.481,1.175a21.135,21.135,0,0,1,3.493,1.778Zm-14.3-9.689c-17.395-15.125-37.55-26.834-55.376-41.5,9.734,4.789,19.2,10.369,28.6,15.72q16.712,9.521,33.821,18.3a27.583,27.583,0,0,1-7.04,7.476Zm7.44-38.085q.416-.425.833-.854c.008,2.149.024,4.158.05,5.982q-2.338-.776-4.662-1.591a41.173,41.173,0,0,0,3.779-3.537ZM569.941,658.63A143.064,143.064,0,0,0,588.5,632.152c6.906,12.065,18.127,20.764,27.672,30.868C600.8,660.99,585.393,659.314,569.941,658.63Z" transform="translate(-173.761 -130.347)" fill="url(#linear-gradient)"/>
    <path id="Trazado_75" data-name="Trazado 75" d="M127.889,759.746c0,19.254-11.444,25.976-25.564,25.976-.327,0-.654,0-.979-.012-.654-.014-1.3-.045-1.943-.089-12.743-.9-22.642-7.969-22.642-25.875,0-18.527,23.675-41.907,25.458-43.641l0,0c.068-.068.1-.1.1-.1S127.889,740.5,127.889,759.746Z" transform="translate(1.757 -145.482)" fill="#68e1fd"/>
    <path id="Trazado_76" data-name="Trazado 76" d="M100.023,782.777l9.35-13.063L100,784.212l-.024,1.5c-.654-.014-1.3-.045-1.943-.089L99.04,766.36l-.007-.151.016-.026.1-1.821-9.4-14.534L99.174,763l.024.386.76-14.553-8.045-15.018,8.143,12.466.793-30.173,0-.1v.1L100.72,739.9l8.009-9.433-8.042,11.482-.212,13.03,7.48-12.506-7.51,14.423-.118,7.245,10.854-17.407-10.9,19.933Z" transform="translate(3.127 -145.482)" fill="#3f3d56"/>
    <circle id="Elipse_3" data-name="Elipse 3" cx="11" cy="11" r="11" transform="translate(131.995 472.326)" fill="#68e1fd"/>
    <path id="Trazado_77" data-name="Trazado 77" d="M783.071,467.126s40.1-8.878,44.526,26.5-21.3,42.052-21.3,42.052l-16.288,4.377L727,523.47l8.844-25.426Z" transform="translate(-205.953 -120.801)" fill="#2f2e41"/>
    <circle id="Elipse_4" data-name="Elipse 4" cx="54.194" cy="54.194" r="54.194" transform="translate(511.188 254.926)" fill="#2f2e41"/>
    <path id="Trazado_78" data-name="Trazado 78" d="M586.65,430.572l11.012,2.214L635.1,488.145l-16.517,2.214Z" transform="translate(-153.499 -32.672)" fill="#2f2e41"/>
    <path id="Trazado_79" data-name="Trazado 79" d="M351.456,724.837A216.306,216.306,0,0,0,362.4,753.411,266.675,266.675,0,0,0,398.931,743c.367-.133-6.833-9.551-7.589-10.32-2.853-2.9-6.545-6.294-10.317-7.935-3.8-1.655-8.487-.392-12.557-.184Q359.97,725,351.456,724.837Z" transform="translate(-96.098 -144.649)" fill="#fbbebe"/>
    <path id="Trazado_80" data-name="Trazado 80" d="M390.056,741.1c-6.206-1.942-9.978-8.187-12.5-14.21s-4.56-12.59-9.348-17.01c-1.835.088-3.312,1.579-4.22,3.184s-1.448,3.415-2.5,4.931c-2,2.886-5.507,4.28-8.018,6.727-2.632,2.565-4.071,6.194-6.8,8.66-3.422,3.1-8.26,3.866-12.75,4.89a81.764,81.764,0,0,0-19.952,7.4,33.5,33.5,0,0,1-7.391,3.312,27.756,27.756,0,0,1-8.644.289l-19.851-1.415a15.51,15.51,0,0,0-5.3.232c-4.081,1.146-6.615,5.7-6.315,9.95s2.944,8.058,6.282,10.681a41.815,41.815,0,0,0,11.305,5.728,335.007,335.007,0,0,0,53.226,15.2l.01,3.929a91.928,91.928,0,0,0,40.518,9.434,6.3,6.3,0,0,0,3.033-.526c1.393-.756,2.038-2.383,2.554-3.889a157.5,157.5,0,0,0,8.28-43.155,32.759,32.759,0,0,0-.855-11.116c-1.081-3.574,2.642-2.072-.8-3.471" transform="translate(-80.147 -146.128)" fill="#2f2e41"/>
    <path id="Trazado_81" data-name="Trazado 81" d="M759.944,671.923c-58.855,3.524-117.026-13.7-175.956-15.545-7.326-.229-14.733-.212-21.886,1.395-7.568,1.7-14.622,5.124-21.659,8.4-31.606,14.705-64.3,26.886-96.961,39.049l-37.514,13.973c-7.5,2.792-15.265,5.628-23.245,5.14-3.577-.219-7.968-.76-9.98,2.222-6.1,9.042-3.219,22.325.813,32.473,1.309,3.294,3.523,6.847,7.03,7.222,2.469.264,4.766-1.166,7.165-1.808,6.829-1.829,13.636,2.764,20.664,3.512,8.682.924,16.744-4.022,24.939-7.051,13.591-5.023,28.452-4.865,42.737-7.245,23.954-3.989,46.155-15.112,66.909-27.784,7.9-4.826,15.9-9.995,24.977-11.76,10.438-2.029,21.16.66,31.394,3.555a725.091,725.091,0,0,1,71.974,24.509c12.4,4.961,24.706,10.281,37.606,13.713a135.969,135.969,0,0,0,84.28-4.914c9.421-3.723,19.657-10.3,20.2-20.468.308-5.795-4.186-10.9-7.189-15.856-1.926-3.178-3.853-6.357-5.951-9.424C790.136,690.394,777.82,670.853,759.944,671.923Z" transform="translate(-161.572 -151.782)" fill="#2f2e41"/>
    <path id="Trazado_82" data-name="Trazado 82" d="M759.944,671.923c-58.855,3.524-117.026-13.7-175.956-15.545-7.326-.229-14.733-.212-21.886,1.395-7.568,1.7-14.622,5.124-21.659,8.4-31.606,14.705-64.3,26.886-96.961,39.049l-37.514,13.973c-7.5,2.792-15.265,5.628-23.245,5.14-3.577-.219-7.968-.76-9.98,2.222-6.1,9.042-3.219,22.325.813,32.473,1.309,3.294,3.523,6.847,7.03,7.222,2.469.264,4.766-1.166,7.165-1.808,6.829-1.829,13.636,2.764,20.664,3.512,8.682.924,16.744-4.022,24.939-7.051,13.591-5.023,28.452-4.865,42.737-7.245,23.954-3.989,46.155-15.112,66.909-27.784,7.9-4.826,15.9-9.995,24.977-11.76,10.438-2.029,21.16.66,31.394,3.555a725.091,725.091,0,0,1,71.974,24.509c12.4,4.961,24.706,10.281,37.606,13.713a135.969,135.969,0,0,0,84.28-4.914c9.421-3.723,19.657-10.3,20.2-20.468.308-5.795-4.186-10.9-7.189-15.856-1.926-3.178-3.853-6.357-5.951-9.424C790.136,690.394,777.82,670.853,759.944,671.923Z" transform="translate(-161.572 -151.782)" opacity="0.1"/>
    <path id="Trazado_83" data-name="Trazado 83" d="M453.673,729.674q13.819,4.716,27.88,8.672c5.247-8.615,15.064-14.611,17.3-24.46a2.15,2.15,0,0,0,0-1.319,2.22,2.22,0,0,0-1.055-.944,51.912,51.912,0,0,0-21.831-6.4c-6.049-.382-8.81,5.934-11.553,10.373C463.307,717.4,456.138,730.515,453.673,729.674Z" transform="translate(-122.529 -146.621)" fill="#fbbebe"/>
    <path id="Trazado_84" data-name="Trazado 84" d="M474.037,722.993c-5.441-1.14-10.765-4.065-13.543-8.9-1.3-2.268-2.686-5.325-5.284-5.153-2.412.159-3.52,3.036-4.063,5.4-2.033,8.868-4.031,17.807-7.6,26.172s-8.845,16.217-16.289,21.395c-3.414,2.375-7.22,4.148-10.557,6.631-3,2.231-5.612,5.028-8.924,6.753a50.329,50.329,0,0,1-6.844,2.553,46.355,46.355,0,0,0-9.8,4.77,19.719,19.719,0,0,0-6.674,6.377,9.352,9.352,0,0,0-.55,8.925,9.658,9.658,0,0,0,6.533,4.474,27.97,27.97,0,0,0,8.12.2c10.731-.791,21.449-1.746,32.167-2.7a92.229,92.229,0,0,0,13.482-1.875c2.348-.566,4.648-1.316,6.987-1.92a57.622,57.622,0,0,1,12.255-1.785,10.267,10.267,0,0,1,3.575.326c2.483.811,4.245,3.281,6.808,3.783a10.8,10.8,0,0,0,4.848-.648c7.722-2.112,15.836-2.055,23.827-2.486,3.521-.19,7.642-.859,9.257-4.011,2.014-3.93-1.326-8.325-2.657-12.539a38.382,38.382,0,0,1-1.1-8.223,50.352,50.352,0,0,0-5.91-19.55c-2.732-5.016-6.461-10.562-4.542-15.945.651-1.827,1.947-3.527,1.818-5.464C498.807,721.052,478.97,724.028,474.037,722.993Z" transform="translate(-113.918 -146.228)" fill="#2f2e41"/>
    <path id="Trazado_85" data-name="Trazado 85" d="M647.575,589.963a46.06,46.06,0,0,1-23.451-23.293c-.983-2.235-1.791-4.568-2.737-6.824a51.844,51.844,0,0,0-14.015-19.463c-1.533-1.3-3.33-2.541-5.2-2.2-1.8.326-3.21,2.1-3.827,4.1a16.717,16.717,0,0,0-.388,6.289,112.606,112.606,0,0,0,2.55,14.71l2.852,13a24.9,24.9,0,0,0,1.775,5.8,20.43,20.43,0,0,0,4.788,5.728q3.908,3.6,7.943,7.007a22.2,22.2,0,0,0,13.774,6.124c11.688,2.167,23.575,5.289,33.438,12.917-.109-.085-.042-8.717-.213-9.706-.451-2.615-.8-5.205-2.5-6.974C658.534,593.2,652.233,592.033,647.575,589.963Z" transform="translate(-163.934 -126.728)" fill="#fbbebe"/>
    <path id="Trazado_86" data-name="Trazado 86" d="M647.575,589.963a46.06,46.06,0,0,1-23.451-23.293c-.983-2.235-1.791-4.568-2.737-6.824a51.844,51.844,0,0,0-14.015-19.463c-1.533-1.3-3.33-2.541-5.2-2.2-1.8.326-3.21,2.1-3.827,4.1a16.717,16.717,0,0,0-.388,6.289,112.606,112.606,0,0,0,2.55,14.71l2.852,13a24.9,24.9,0,0,0,1.775,5.8,20.43,20.43,0,0,0,4.788,5.728q3.908,3.6,7.943,7.007a22.2,22.2,0,0,0,13.774,6.124c11.688,2.167,23.575,5.289,33.438,12.917-.109-.085-.042-8.717-.213-9.706-.451-2.615-.8-5.205-2.5-6.974C658.534,593.2,652.233,592.033,647.575,589.963Z" transform="translate(-163.934 -126.728)" opacity="0.1"/>
    <ellipse id="Elipse_5" data-name="Elipse 5" cx="14.314" cy="14.393" rx="14.314" ry="14.393" transform="translate(545.04 352.087)" fill="#2f2e41"/>
    <path id="Trazado_87" data-name="Trazado 87" d="M752.688,474.174c-3.886-.431-8.2-.751-11.315,1.627a15.451,15.451,0,0,0-3.872,5.272c-2.993,5.619-5.944,11.345-7.45,17.536-1.278,5.253-1.49,10.747-3.072,15.915-2.935,9.588-10.456,17.681-11.315,27.676-.385,4.473.364,9.709-2.9,12.773a19.178,19.178,0,0,1-2.572,1.824,19.462,19.462,0,0,0-5.634,5.794c-1.222,1.941-2.162,4.17-4,5.533-2.911,2.157-7.744,1.938-9.179,5.275-1.475,3.43,2.267,7.247,1.4,10.88-.706,2.959-4,4.315-6.277,6.326-2.911,2.576-4.241,6.463-5.455,10.166a33.754,33.754,0,0,1-27.392-6.831c4,9.842,4.082,20.7,4.256,31.332.056,3.448-.051,7.318-2.513,9.719,11.4.244,22.511,3.331,33.632,5.845,4.861,1.1,10.137,2.052,14.669-.027a23.937,23.937,0,0,0,6.718-5.344c6.05-6.135,12.4-12.828,13.877-21.339.829-4.768.026-9.662.246-14.5.272-5.992,2.1-11.782,3.673-17.569a207.31,207.31,0,0,0,6.429-36.177c.659-7.544,7.175-13.616,10.6-20.358,6.476-12.728,13.093-25.985,13.581-40.273C758.99,480.474,757.414,474.7,752.688,474.174Z" transform="translate(-186.43 -132.082)" fill="#2f2e41"/>
    <path id="Trazado_88" data-name="Trazado 88" d="M752.688,474.174c-3.886-.431-8.2-.751-11.315,1.627a15.451,15.451,0,0,0-3.872,5.272c-2.993,5.619-5.944,11.345-7.45,17.536-1.278,5.253-1.49,10.747-3.072,15.915-2.935,9.588-10.456,17.681-11.315,27.676-.385,4.473.364,9.709-2.9,12.773a19.178,19.178,0,0,1-2.572,1.824,19.462,19.462,0,0,0-5.634,5.794c-1.222,1.941-2.162,4.17-4,5.533-2.911,2.157-7.744,1.938-9.179,5.275-1.475,3.43,2.267,7.247,1.4,10.88-.706,2.959-4,4.315-6.277,6.326-2.911,2.576-4.241,6.463-5.455,10.166a33.754,33.754,0,0,1-27.392-6.831c4,9.842,4.082,20.7,4.256,31.332.056,3.448-.051,7.318-2.513,9.719,11.4.244,22.511,3.331,33.632,5.845,4.861,1.1,10.137,2.052,14.669-.027a23.937,23.937,0,0,0,6.718-5.344c6.05-6.135,12.4-12.828,13.877-21.339.829-4.768.026-9.662.246-14.5.272-5.992,2.1-11.782,3.673-17.569a207.31,207.31,0,0,0,6.429-36.177c.659-7.544,7.175-13.616,10.6-20.358,6.476-12.728,13.093-25.985,13.581-40.273C758.99,480.474,757.414,474.7,752.688,474.174Z" transform="translate(-186.43 -132.082)" opacity="0.1"/>
    <path id="Trazado_89" data-name="Trazado 89" d="M759.175,693.2c-12.258-5.832-21.227-16.706-31.138-26.013-18.921-17.766-42.059-30.344-61.952-47-13.187-11.042-24.98-23.9-39.47-33.142a98.251,98.251,0,0,0-42.273-14.812,11.905,11.905,0,0,0-5.177.259,12.257,12.257,0,0,0-4.812,3.806,150.523,150.523,0,0,0-17.038,23.43c-25.216,42.8-61.032,78.8-90.706,118.605a5.322,5.322,0,0,0-.354,7.187l6.036,11.828c3.378,6.619,8.789,14.329,16.071,13.013,3.328-.6,5.979-3.049,8.429-5.392l27.1-25.9L552.3,691.908c16.646-15.912,33.577-32.194,44.429-52.549,8.481,14.709,23.528,24.336,33.852,37.8,3.927,5.122,7.134,10.754,10.64,16.176,5.619,8.692,12.009,16.849,18.39,24.992l32.589,41.6c4.444,5.673,9.012,11.459,15.09,15.307,7.719,4.887,17.106,6.174,26.191,6.988a346.71,346.71,0,0,0,36.824,1.332c9.37-.16,19.033-.775,27.441-4.936s15.314-12.7,14.878-22.116c-.227-4.895-2.355-9.486-4.7-13.783C796.283,721.358,781.07,703.617,759.175,693.2Z" transform="translate(-178.115 -160.663)" fill="#2f2e41"/>
    <ellipse id="Elipse_6" data-name="Elipse 6" cx="11.011" cy="11.072" rx="11.011" ry="11.072" transform="translate(554.566 363.866)" fill="#2f2e41"/>
    <path id="Trazado_90" data-name="Trazado 90" d="M758.46,486.8c2.684,4.74,2.686,10.639,1.209,15.887s-4.3,10-7.087,14.673c-2.746,4.6-5.523,9.249-9.206,13.135,17,.813,33.472-5.853,48.471-13.931,12.066-6.5,24.107-14.521,30.547-26.666-3.766,1.131-7.917.015-11.25-2.08a41.865,41.865,0,0,1-8.62-8.029l-8.533-9.6a38.3,38.3,0,0,1-5.248-6.888,19.365,19.365,0,0,1-2.253-11.135A63.643,63.643,0,0,1,775.2,461.54c-6.094,3.966-12.813,6.844-18.92,10.787-2.166,1.4-6.982,3.648-5.742,6.478C751.747,481.565,756.743,483.771,758.46,486.8Z" transform="translate(-205.444 -120.109)" fill="#fbbebe"/>
    <path id="Trazado_91" data-name="Trazado 91" d="M758.46,486.8c2.684,4.74,2.686,10.639,1.209,15.887s-4.3,10-7.087,14.673c-2.746,4.6-5.523,9.249-9.206,13.135,17,.813,33.472-5.853,48.471-13.931,12.066-6.5,24.107-14.521,30.547-26.666-3.766,1.131-7.917.015-11.25-2.08a41.865,41.865,0,0,1-8.62-8.029l-8.533-9.6a38.3,38.3,0,0,1-5.248-6.888,19.365,19.365,0,0,1-2.253-11.135A63.643,63.643,0,0,1,775.2,461.54c-6.094,3.966-12.813,6.844-18.92,10.787-2.166,1.4-6.982,3.648-5.742,6.478C751.747,481.565,756.743,483.771,758.46,486.8Z" transform="translate(-205.444 -120.109)" opacity="0.1"/>
    <path id="Trazado_92" data-name="Trazado 92" d="M763.63,485.206c-3.194,5.371-3.879,11.713,0,16.608.483.609,2.276,4.389,3.05,4.424a2.889,2.889,0,0,0,1.94-.981c4.127-3.773,7.152-8.586,10.778-12.848s8.2-8.147,13.713-9.005c6.654-1.036,13.078,2.489,18.9,5.891,2.42,1.414,4.929,2.911,6.452,5.271a17.256,17.256,0,0,1,2.119,7.2c2.011,15.151,1.967,30.493,1.919,45.779-.035,11.049-.076,22.177-2.166,33.024-1.08,5.607-2.7,11.11-3.47,16.769a112.567,112.567,0,0,0-.684,15.045l-.016,21.036a54.172,54.172,0,0,0,.816,11.535c1,4.61,3.18,8.865,4.638,13.349a88.072,88.072,0,0,1,3.073,15.777l2.879,21.783c.907,6.86,1.577,14.365-2.572,19.887-1.875,2.5-4.34,4.5-6.242,6.972-7.121,9.274-4.836,22.506-7.807,33.835a42.4,42.4,0,0,1-13.811,21.171c-5.089,4.323-11.661,7.725-18.213,6.509-8.845-1.642-14.158-10.865-16.569-19.578s-3.29-18.2-8.515-25.559c-4.266-6.01-10.876-9.791-16.853-14.082s-11.817-9.822-13.118-17.09c-.568-3.174-.215-6.443-.552-9.651a22.834,22.834,0,0,0-14.091-18.5c-4.528-1.761-10.119-2.39-12.669-6.544,6.583-3.71,10.953-10.566,13.255-17.792s2.771-14.894,3.224-22.468l1.513-25.313c.676-11.312.982-22.524,5.964-32.689,2.227-4.544,5-8.8,7.316-13.3a149.558,149.558,0,0,0,7.837-19.509c3.611-10.372,7.224-20.747,10.443-31.249,1.534-5,3.008-10.1,5.742-14.56S758.511,486.167,763.63,485.206Z" transform="translate(-204.349 -170.033)" fill="#68e1fd"/>
    <path id="Trazado_93" data-name="Trazado 93" d="M706.451,650.062l6.7.242,1.427-10.123a21.216,21.216,0,0,1,1.418-5.9,36.453,36.453,0,0,1,3.851-5.643c6.593-9.313,6.112-21.68,7.746-32.993,2.178-15.089,8.481-29.215,14.716-43.114l13-28.981a31.409,31.409,0,0,0,3.6-16c.115-4.48,1.443-20.782,1.558-25.262.043-1.658-3.655-.737-4.4-2.214-1.631-3.218-3.862,5.508-6.907,7.423s-4.726,5.382-6.019,8.752c-2.8,7.3-4.515,14.978-7.126,22.35s-6.264,14.615-12.138,19.747c-2.669,2.332-5.745,4.182-8.266,6.676-8.089,8-8.877,20.632-9.162,32.036C706.268,583.839,704.957,650.062,706.451,650.062Z" transform="translate(-190.173 -133.039)" fill="#2f2e41"/>
    <path id="Trazado_94" data-name="Trazado 94" d="M799.445,474.157c-6.506,2.558-10.073,9.613-11.9,16.392s-2.573,14-6.067,20.086c-8.168,14.217-29,18.36-34.758,33.722-1.886,5.027-1.8,10.542-2.312,15.89-1.045,11.008-4.665,21.643-5.734,32.648-.829,8.526-.113,17.118.6,25.655l7.279,86.818c1.051,12.54,1.024,26.011-2.18,38.177,7.37,1.438,15.032-.487,21.87-3.6s13.078-7.4,19.659-11.028c11.316-6.243,23.8-10.667,33.706-18.983a19.59,19.59,0,0,0,4.541-5.02c1.986-3.433,2.148-7.585,3.093-11.441a62.738,62.738,0,0,1,3.263-8.992,267.92,267.92,0,0,0,9.469-26.768,147.94,147.94,0,0,0,4.355-18.381c.794-4.949,1.223-9.948,1.652-14.942A89.4,89.4,0,0,1,850.6,601.44a183.855,183.855,0,0,0,10.631-54.992,27.786,27.786,0,0,0-.547-8.1c-.863-3.3-2.808-6.176-4.4-9.183-3.025-5.7-4.841-11.969-7.7-17.755-6.451-13.075-17.843-22.988-29.777-31.3C812.948,476.038,806.085,471.546,799.445,474.157Z" transform="translate(-214.253 -171.07)" fill="#2f2e41"/>
    <path id="Trazado_95" data-name="Trazado 95" d="M663.5,604.975c-5.037-2.933-10.073-6.092-13.864-10.534-1.816-2.128-3.316-4.516-5.162-6.618-4.492-5.112-10.857-8.282-17.438-9.939s-13.424-1.908-20.208-1.965c-4.538-.038-9.188.027-13.437,1.631s-8.08,5.063-8.9,9.551c-.988,5.4,2.54,10.662,6.777,14.126a32.641,32.641,0,0,0,13.544,6.575,108.6,108.6,0,0,0,12.243,1.434c24.1,2.524,45.606,15.643,66.729,27.589q27.826,15.737,56.734,29.426a113.167,113.167,0,0,0,.951-17.415c-.1-4.347-.312-10.974-4.419-13.526-4.784-2.974-12.661-3.657-18.058-5.426A289.841,289.841,0,0,1,682.687,615.2Q672.908,610.451,663.5,604.975Z" transform="translate(-177.09 -131.615)" fill="#fbbebe"/>
    <ellipse id="Elipse_7" data-name="Elipse 7" cx="42.943" cy="43.18" rx="42.943" ry="43.18" transform="translate(513.862 284.26)" fill="#fbbebe"/>
    <path id="Trazado_96" data-name="Trazado 96" d="M814.814,518.892c-3.836,4.472-5.756,10.233-8.333,15.539-5.3,10.92-13.619,20.292-17.784,31.7-4.394,12.035-4.247,26.349-12.86,35.8-1.5,1.644-3.305,3.23-3.738,5.416-.257,1.3.01,2.686-.437,3.931-1.234,3.434-6.855,3.607-7.9,7.1-.307,1.023-.134,2.156-.514,3.154-.862,2.261-3.847,2.606-5.844,3.96-4.168,2.828-3.328,9.4-6.3,13.478-2.353,3.225-6.79,4.305-10.731,3.758s-7.55-2.433-11.138-4.159a10.136,10.136,0,0,0-4.006-1.258,8.408,8.408,0,0,0-4.625,1.579c-7.933,5.044-11.656,15.034-11.6,24.471s3.3,18.529,6.618,27.356A11.774,11.774,0,0,0,717.8,694.8c2.63,2.781,7.21,2.332,10.7.785s6.666-3.981,10.422-4.662c6.645-1.2,13.139,3.362,19.881,2.987,4.939-.275,9.31-3.147,13.413-5.925,6.55-4.434,13.22-8.979,18.035-15.271,2.949-3.853,5.109-8.245,7.68-12.362a142.8,142.8,0,0,1,10.845-14.484l24.762-30.31A48.993,48.993,0,0,0,845.4,592.51c2.354-8.078,4.724-16.249,5.132-24.656.335-6.92-.669-13.831-1.8-20.666-1.111-6.728-2.376-13.531-5.332-19.67C838.024,516.345,824.926,507.1,814.814,518.892Z" transform="translate(-210.261 -138.568)" fill="#2f2e41"/>
    <circle id="Elipse_8" data-name="Elipse 8" cx="54.194" cy="54.194" r="54.194" transform="translate(549.432 196.106)" fill="#2f2e41"/>
    <path id="Trazado_97" data-name="Trazado 97" d="M868.027,400.656A54.2,54.2,0,0,1,784.338,372.2a54.2,54.2,0,1,0,105.717-22.224A54.177,54.177,0,0,1,868.027,400.656Z" transform="translate(-223.567 -111.292)" fill="#2f2e41"/>
    <circle id="Elipse_9" data-name="Elipse 9" cx="39.742" cy="39.742" r="39.742" transform="translate(536.657 276.649)" fill="#2f2e41"/>
    <ellipse id="Elipse_10" data-name="Elipse 10" cx="35.226" cy="27.548" rx="35.226" ry="27.548" transform="translate(519.535 276.233)" fill="#2f2e41"/>
    <ellipse id="Elipse_11" data-name="Elipse 11" cx="5.527" cy="8.291" rx="5.527" ry="8.291" transform="matrix(0.776, -0.631, 0.631, 0.776, 553.033, 336.986)" fill="#fbbebe"/>
    <path id="Trazado_98" data-name="Trazado 98" d="M724.889,775.746c0,19.254-11.444,25.976-25.564,25.976-.327,0-.654,0-.979-.012-.654-.014-1.3-.045-1.943-.089-12.743-.9-22.642-7.969-22.642-25.875,0-18.527,23.675-41.907,25.458-43.641l0,0c.068-.068.1-.1.1-.1S724.889,756.5,724.889,775.746Z" transform="translate(-181.046 -143.795)" fill="#68e1fd"/>
    <path id="Trazado_99" data-name="Trazado 99" d="M697.023,798.776l9.35-13.063L697,800.212l-.024,1.5c-.654-.014-1.3-.045-1.943-.089l1.007-19.261-.007-.151.016-.026.1-1.821-9.4-14.533L696.174,779l.024.386.76-14.553-8.045-15.018,8.143,12.466.793-30.173,0-.1v.1L697.72,755.9l8.009-9.433-8.042,11.482-.212,13.03,7.48-12.506-7.51,14.423-.118,7.245,10.854-17.407-10.9,19.933Z" transform="translate(-178.698 -143.795)" fill="#3f3d56"/>
  </g>
</svg>
